<svg width="375" height="161" viewBox="0 0 375 161" fill="none" xmlns="http://www.w3.org/2000/svg">
<path d="M8.44162 3.96C10.0896 3.96 11.5376 4.312 12.7856 5.016C14.0336 5.72 14.9936 6.712 15.6656 7.992C16.3536 9.272 16.6976 10.744 16.6976 12.408C16.6976 14.088 16.3536 15.576 15.6656 16.872C14.9936 18.168 14.0256 19.184 12.7616 19.92C11.5136 20.64 10.0576 21 8.39362 21H2.29762V3.96H8.44162ZM8.29762 18.576C9.36962 18.576 10.2896 18.304 11.0576 17.76C11.8416 17.216 12.4336 16.48 12.8336 15.552C13.2496 14.608 13.4576 13.56 13.4576 12.408C13.4576 10.616 13.0096 9.168 12.1136 8.064C11.2176 6.944 9.96162 6.384 8.34562 6.384H5.39362V18.576H8.29762ZM22.2986 21.288C21.0666 21.288 20.0746 20.968 19.3226 20.328C18.5706 19.672 18.1946 18.808 18.1946 17.736C18.1946 17.16 18.3146 16.64 18.5546 16.176C18.8106 15.712 19.1786 15.328 19.6586 15.024C20.0906 14.768 20.6106 14.56 21.2186 14.4C21.8266 14.224 22.6106 14.072 23.5706 13.944L26.1146 13.632V13.32C26.1146 12.424 25.9306 11.776 25.5626 11.376C25.2106 10.96 24.6506 10.752 23.8826 10.752C23.1786 10.752 22.6186 10.936 22.2026 11.304C21.8026 11.656 21.5786 12.176 21.5306 12.864H18.5786C18.6746 11.584 19.1946 10.576 20.1386 9.84C21.0826 9.088 22.3306 8.712 23.8826 8.712C25.6586 8.712 26.9546 9.112 27.7706 9.912C28.6026 10.696 29.0186 11.96 29.0186 13.704V17.28C29.0186 18.912 29.1386 20.152 29.3786 21H26.4986C26.3866 20.344 26.3226 19.656 26.3066 18.936C26.0186 19.672 25.5146 20.248 24.7946 20.664C24.0906 21.08 23.2586 21.288 22.2986 21.288ZM23.2106 19.248C24.1066 19.248 24.8266 18.96 25.3706 18.384C25.9146 17.792 26.1866 17.024 26.1866 16.08V15.312L23.4746 15.72C22.6746 15.848 22.0906 16.064 21.7226 16.368C21.3546 16.672 21.1706 17.08 21.1706 17.592C21.1706 18.104 21.3466 18.512 21.6986 18.816C22.0666 19.104 22.5706 19.248 23.2106 19.248ZM36.4511 21.288C35.0751 21.288 33.8991 21.008 32.9231 20.448C31.9631 19.888 31.2911 19.08 30.9071 18.024L33.0671 17.064C33.3391 17.736 33.7631 18.256 34.3391 18.624C34.9311 18.992 35.6511 19.176 36.4991 19.176C37.2191 19.176 37.7711 19.04 38.1551 18.768C38.5551 18.496 38.7551 18.136 38.7551 17.688C38.7551 17.272 38.6191 16.96 38.3471 16.752C38.0911 16.544 37.6511 16.392 37.0271 16.296L34.8911 15.912C33.7711 15.704 32.9151 15.312 32.3231 14.736C31.7471 14.144 31.4591 13.368 31.4591 12.408C31.4591 11.304 31.8991 10.416 32.7791 9.744C33.6591 9.056 34.8511 8.712 36.3551 8.712C37.6351 8.712 38.7231 8.96 39.6191 9.456C40.5311 9.936 41.1311 10.608 41.4191 11.472L39.4271 12.552C39.1231 11.992 38.6991 11.56 38.1551 11.256C37.6271 10.952 36.9791 10.8 36.2111 10.8C35.5391 10.8 35.0191 10.928 34.6511 11.184C34.2831 11.424 34.0991 11.776 34.0991 12.24C34.0991 12.64 34.2271 12.944 34.4831 13.152C34.7551 13.36 35.1631 13.512 35.7071 13.608L38.0591 14.04C39.1951 14.248 40.0271 14.64 40.5551 15.216C41.0991 15.776 41.3711 16.536 41.3711 17.496C41.3711 18.648 40.9311 19.568 40.0511 20.256C39.1871 20.944 37.9871 21.288 36.4511 21.288ZM46.7437 3.6V11.208C47.4637 9.544 48.7517 8.712 50.6078 8.712C51.9038 8.712 52.8878 9.12 53.5598 9.936C54.2318 10.752 54.5677 11.952 54.5677 13.536V21H51.6877V13.776C51.6877 12.864 51.4957 12.176 51.1118 11.712C50.7438 11.248 50.1918 11.016 49.4557 11.016C48.5917 11.016 47.9197 11.336 47.4397 11.976C46.9757 12.6 46.7437 13.488 46.7437 14.64V21H43.8637V3.6H46.7437ZM64.1835 21.288C63.3195 21.288 62.5595 21.088 61.9035 20.688C61.2475 20.288 60.7595 19.744 60.4395 19.056L60.1515 21H57.7275V3.6H60.6075V10.872C60.9275 10.216 61.4075 9.696 62.0475 9.312C62.6875 8.912 63.4395 8.712 64.3035 8.712C65.2635 8.712 66.1035 8.976 66.8235 9.504C67.5595 10.032 68.1275 10.776 68.5275 11.736C68.9275 12.68 69.1275 13.768 69.1275 15C69.1275 16.248 68.9195 17.352 68.5035 18.312C68.1035 19.256 67.5275 19.992 66.7755 20.52C66.0395 21.032 65.1755 21.288 64.1835 21.288ZM63.2715 19.08C64.1675 19.08 64.8635 18.72 65.3595 18C65.8715 17.28 66.1275 16.28 66.1275 15C66.1275 13.736 65.8795 12.744 65.3835 12.024C64.8875 11.288 64.1835 10.92 63.2715 10.92C62.4235 10.92 61.7515 11.256 61.2555 11.928C60.7755 12.584 60.5355 13.48 60.5355 14.616V15.432C60.5355 16.552 60.7755 17.44 61.2555 18.096C61.7355 18.752 62.4075 19.08 63.2715 19.08ZM76.437 21.288C75.285 21.288 74.261 21.04 73.365 20.544C72.485 20.048 71.797 19.328 71.301 18.384C70.805 17.424 70.557 16.288 70.557 14.976C70.557 13.664 70.805 12.536 71.301 11.592C71.797 10.648 72.485 9.936 73.365 9.456C74.261 8.96 75.285 8.712 76.437 8.712C77.589 8.712 78.605 8.96 79.485 9.456C80.381 9.936 81.077 10.648 81.573 11.592C82.069 12.536 82.317 13.664 82.317 14.976C82.317 16.288 82.069 17.424 81.573 18.384C81.077 19.328 80.381 20.048 79.485 20.544C78.605 21.04 77.589 21.288 76.437 21.288ZM76.437 19.104C77.365 19.104 78.085 18.76 78.597 18.072C79.109 17.368 79.365 16.336 79.365 14.976C79.365 13.632 79.109 12.616 78.597 11.928C78.101 11.24 77.381 10.896 76.437 10.896C75.493 10.896 74.765 11.24 74.253 11.928C73.741 12.616 73.485 13.632 73.485 14.976C73.485 16.32 73.741 17.344 74.253 18.048C74.765 18.752 75.493 19.104 76.437 19.104ZM87.7736 21.288C86.5416 21.288 85.5496 20.968 84.7976 20.328C84.0456 19.672 83.6696 18.808 83.6696 17.736C83.6696 17.16 83.7896 16.64 84.0296 16.176C84.2856 15.712 84.6536 15.328 85.1336 15.024C85.5656 14.768 86.0856 14.56 86.6936 14.4C87.3016 14.224 88.0856 14.072 89.0456 13.944L91.5896 13.632V13.32C91.5896 12.424 91.4056 11.776 91.0376 11.376C90.6856 10.96 90.1256 10.752 89.3576 10.752C88.6536 10.752 88.0936 10.936 87.6776 11.304C87.2776 11.656 87.0536 12.176 87.0056 12.864H84.0536C84.1496 11.584 84.6696 10.576 85.6136 9.84C86.5576 9.088 87.8056 8.712 89.3576 8.712C91.1336 8.712 92.4296 9.112 93.2456 9.912C94.0776 10.696 94.4936 11.96 94.4936 13.704V17.28C94.4936 18.912 94.6136 20.152 94.8536 21H91.9736C91.8616 20.344 91.7976 19.656 91.7816 18.936C91.4936 19.672 90.9896 20.248 90.2696 20.664C89.5656 21.08 88.7336 21.288 87.7736 21.288ZM88.6856 19.248C89.5816 19.248 90.3016 18.96 90.8456 18.384C91.3896 17.792 91.6616 17.024 91.6616 16.08V15.312L88.9496 15.72C88.1496 15.848 87.5656 16.064 87.1976 16.368C86.8296 16.672 86.6456 17.08 86.6456 17.592C86.6456 18.104 86.8216 18.512 87.1736 18.816C87.5416 19.104 88.0456 19.248 88.6856 19.248ZM100.246 11.904C100.566 10.912 101.046 10.136 101.686 9.576C102.326 9 103.118 8.712 104.062 8.712C104.206 8.712 104.318 8.72 104.398 8.736V11.496L104.014 11.472C102.958 11.472 102.126 11.76 101.518 12.336C101.086 12.752 100.798 13.264 100.654 13.872C100.51 14.464 100.438 15.16 100.438 15.96V21H97.5581V9H100.246V11.904ZM110.036 21.288C109.076 21.288 108.228 21.032 107.492 20.52C106.756 19.992 106.188 19.256 105.788 18.312C105.388 17.352 105.188 16.256 105.188 15.024C105.188 13.776 105.396 12.68 105.812 11.736C106.244 10.776 106.844 10.032 107.612 9.504C108.38 8.976 109.26 8.712 110.252 8.712C111.9 8.712 113.052 9.376 113.708 10.704V3.6H116.588V21H113.876V18.84C113.54 19.608 113.036 20.208 112.364 20.64C111.708 21.072 110.932 21.288 110.036 21.288ZM111.02 19.08C111.868 19.08 112.54 18.752 113.036 18.096C113.532 17.424 113.78 16.528 113.78 15.408V14.64C113.78 13.472 113.532 12.56 113.036 11.904C112.54 11.248 111.86 10.92 110.996 10.92C110.116 10.92 109.428 11.28 108.932 12C108.436 12.704 108.188 13.696 108.188 14.976C108.188 16.256 108.436 17.264 108.932 18C109.444 18.72 110.14 19.08 111.02 19.08ZM126.177 9V5.976L129.057 4.824V9H131.985V11.088H129.057V16.824C129.057 17.464 129.201 17.944 129.489 18.264C129.777 18.568 130.217 18.72 130.809 18.72C131.081 18.72 131.473 18.672 131.985 18.576V21C131.281 21.144 130.625 21.216 130.017 21.216C128.641 21.216 127.657 20.88 127.065 20.208C126.473 19.536 126.177 18.56 126.177 17.28V11.088H124.017V9H126.177ZM144.229 15.72H135.805C135.821 16.728 136.117 17.536 136.693 18.144C137.285 18.736 138.053 19.032 138.997 19.032C139.685 19.032 140.277 18.864 140.773 18.528C141.269 18.192 141.653 17.696 141.925 17.04L144.133 18.048C143.685 19.088 143.005 19.888 142.093 20.448C141.197 21.008 140.133 21.288 138.901 21.288C137.061 21.288 135.621 20.752 134.581 19.68C133.541 18.592 133.021 17.072 133.021 15.12C133.021 13.136 133.525 11.576 134.533 10.44C135.557 9.288 136.965 8.712 138.757 8.712C140.501 8.712 141.845 9.208 142.789 10.2C143.749 11.176 144.229 12.576 144.229 14.4V15.72ZM141.397 13.632C141.397 12.656 141.165 11.912 140.701 11.4C140.237 10.888 139.573 10.632 138.709 10.632C137.797 10.632 137.093 10.912 136.597 11.472C136.101 12.032 135.837 12.816 135.805 13.824H141.397V13.632ZM149.433 11.112C150.153 9.512 151.337 8.712 152.985 8.712C154.681 8.712 155.817 9.52 156.393 11.136C157.209 9.52 158.457 8.712 160.137 8.712C161.289 8.712 162.185 9.104 162.825 9.888C163.481 10.656 163.809 11.744 163.809 13.152V21H160.929V13.608C160.929 11.88 160.273 11.016 158.961 11.016C158.225 11.016 157.657 11.272 157.257 11.784C156.873 12.296 156.681 13.032 156.681 13.992V21H153.801V13.536C153.801 12.704 153.633 12.08 153.297 11.664C152.977 11.232 152.497 11.016 151.857 11.016C151.137 11.016 150.577 11.288 150.177 11.832C149.777 12.36 149.577 13.104 149.577 14.064V21H146.697V9H149.433V11.112ZM169.602 9V11.088C169.97 10.32 170.482 9.736 171.138 9.336C171.81 8.92 172.578 8.712 173.442 8.712C174.402 8.712 175.242 8.976 175.962 9.504C176.698 10.016 177.266 10.744 177.666 11.688C178.066 12.632 178.266 13.728 178.266 14.976C178.266 16.24 178.058 17.352 177.642 18.312C177.226 19.272 176.642 20.008 175.89 20.52C175.138 21.032 174.274 21.288 173.298 21.288C172.482 21.288 171.77 21.112 171.162 20.76C170.554 20.392 170.082 19.896 169.746 19.272V25.68H166.866V9H169.602ZM172.458 19.08C173.322 19.08 174.002 18.72 174.498 18C175.01 17.264 175.266 16.256 175.266 14.976C175.266 13.696 175.018 12.704 174.522 12C174.042 11.28 173.362 10.92 172.482 10.92C171.602 10.92 170.914 11.256 170.418 11.928C169.922 12.584 169.674 13.512 169.674 14.712V15.312C169.674 16.464 169.922 17.384 170.418 18.072C170.93 18.744 171.61 19.08 172.458 19.08ZM185.578 21.288C184.426 21.288 183.402 21.04 182.506 20.544C181.626 20.048 180.938 19.328 180.442 18.384C179.946 17.424 179.698 16.288 179.698 14.976C179.698 13.664 179.946 12.536 180.442 11.592C180.938 10.648 181.626 9.936 182.506 9.456C183.402 8.96 184.426 8.712 185.578 8.712C186.73 8.712 187.746 8.96 188.626 9.456C189.522 9.936 190.218 10.648 190.714 11.592C191.21 12.536 191.458 13.664 191.458 14.976C191.458 16.288 191.21 17.424 190.714 18.384C190.218 19.328 189.522 20.048 188.626 20.544C187.746 21.04 186.73 21.288 185.578 21.288ZM185.578 19.104C186.506 19.104 187.226 18.76 187.738 18.072C188.25 17.368 188.506 16.336 188.506 14.976C188.506 13.632 188.25 12.616 187.738 11.928C187.242 11.24 186.522 10.896 185.578 10.896C184.634 10.896 183.906 11.24 183.394 11.928C182.882 12.616 182.626 13.632 182.626 14.976C182.626 16.32 182.882 17.344 183.394 18.048C183.906 18.752 184.634 19.104 185.578 19.104ZM196.508 11.904C196.828 10.912 197.308 10.136 197.948 9.576C198.588 9 199.38 8.712 200.324 8.712C200.468 8.712 200.58 8.72 200.66 8.736V11.496L200.276 11.472C199.22 11.472 198.388 11.76 197.78 12.336C197.348 12.752 197.06 13.264 196.916 13.872C196.772 14.464 196.7 15.16 196.7 15.96V21H193.82V9H196.508V11.904ZM205.481 21.288C204.249 21.288 203.257 20.968 202.505 20.328C201.753 19.672 201.377 18.808 201.377 17.736C201.377 17.16 201.497 16.64 201.737 16.176C201.993 15.712 202.361 15.328 202.841 15.024C203.273 14.768 203.793 14.56 204.401 14.4C205.009 14.224 205.793 14.072 206.753 13.944L209.297 13.632V13.32C209.297 12.424 209.113 11.776 208.745 11.376C208.393 10.96 207.833 10.752 207.065 10.752C206.361 10.752 205.801 10.936 205.385 11.304C204.985 11.656 204.761 12.176 204.713 12.864H201.761C201.857 11.584 202.377 10.576 203.321 9.84C204.265 9.088 205.513 8.712 207.065 8.712C208.841 8.712 210.137 9.112 210.953 9.912C211.785 10.696 212.201 11.96 212.201 13.704V17.28C212.201 18.912 212.321 20.152 212.561 21H209.681C209.569 20.344 209.505 19.656 209.489 18.936C209.201 19.672 208.697 20.248 207.977 20.664C207.273 21.08 206.441 21.288 205.481 21.288ZM206.393 19.248C207.289 19.248 208.009 18.96 208.553 18.384C209.097 17.792 209.369 17.024 209.369 16.08V15.312L206.657 15.72C205.857 15.848 205.273 16.064 204.905 16.368C204.537 16.672 204.353 17.08 204.353 17.592C204.353 18.104 204.529 18.512 204.881 18.816C205.249 19.104 205.753 19.248 206.393 19.248ZM217.954 11.904C218.274 10.912 218.754 10.136 219.394 9.576C220.034 9 220.826 8.712 221.77 8.712C221.914 8.712 222.026 8.72 222.106 8.736V11.496L221.722 11.472C220.666 11.472 219.834 11.76 219.226 12.336C218.794 12.752 218.506 13.264 218.362 13.872C218.218 14.464 218.146 15.16 218.146 15.96V21H215.266V9H217.954V11.904ZM223.997 9H226.877V21H223.997V9ZM223.853 4.008H226.973V7.008H223.853V4.008ZM233.22 21H230.34V3.6H233.22V21ZM237.085 25.8C236.733 25.8 236.293 25.76 235.765 25.68V23.4C236.053 23.464 236.389 23.496 236.773 23.496C237.461 23.496 238.005 23.344 238.405 23.04C238.821 22.752 239.141 22.272 239.365 21.6L239.605 20.88L234.925 9H238.093L240.709 16.848C240.853 17.28 240.973 17.752 241.069 18.264H241.117C241.149 17.976 241.269 17.504 241.477 16.848L243.853 9H246.853L242.341 21.672C241.813 23.16 241.133 24.216 240.301 24.84C239.469 25.48 238.397 25.8 237.085 25.8ZM257.837 21.288C255.133 21.288 253.781 19.76 253.781 16.704V9H256.661V16.272C256.661 17.152 256.837 17.824 257.189 18.288C257.557 18.752 258.085 18.984 258.773 18.984C259.573 18.984 260.213 18.68 260.693 18.072C261.173 17.464 261.413 16.656 261.413 15.648V9H264.317V21H261.581V18.768C261.293 19.52 260.805 20.128 260.117 20.592C259.445 21.056 258.685 21.288 257.837 21.288ZM270.388 9V11.328C271.204 9.584 272.532 8.712 274.372 8.712C275.684 8.712 276.676 9.12 277.348 9.936C278.02 10.752 278.356 11.96 278.356 13.56V21H275.476V13.848C275.476 11.96 274.724 11.016 273.22 11.016C272.372 11.016 271.708 11.336 271.228 11.976C270.764 12.616 270.532 13.504 270.532 14.64V21H267.652V9H270.388ZM284.446 21.288C283.214 21.288 282.222 20.968 281.47 20.328C280.718 19.672 280.342 18.808 280.342 17.736C280.342 17.16 280.462 16.64 280.702 16.176C280.958 15.712 281.326 15.328 281.806 15.024C282.238 14.768 282.758 14.56 283.366 14.4C283.974 14.224 284.758 14.072 285.718 13.944L288.262 13.632V13.32C288.262 12.424 288.078 11.776 287.71 11.376C287.358 10.96 286.798 10.752 286.03 10.752C285.326 10.752 284.766 10.936 284.35 11.304C283.95 11.656 283.726 12.176 283.678 12.864H280.726C280.822 11.584 281.342 10.576 282.286 9.84C283.23 9.088 284.478 8.712 286.03 8.712C287.806 8.712 289.102 9.112 289.918 9.912C290.75 10.696 291.166 11.96 291.166 13.704V17.28C291.166 18.912 291.286 20.152 291.526 21H288.646C288.534 20.344 288.47 19.656 288.454 18.936C288.166 19.672 287.662 20.248 286.942 20.664C286.238 21.08 285.406 21.288 284.446 21.288ZM285.358 19.248C286.254 19.248 286.974 18.96 287.518 18.384C288.062 17.792 288.334 17.024 288.334 16.08V15.312L285.622 15.72C284.822 15.848 284.238 16.064 283.87 16.368C283.502 16.672 283.318 17.08 283.318 17.592C283.318 18.104 283.494 18.512 283.846 18.816C284.214 19.104 284.718 19.248 285.358 19.248ZM295.315 9L297.667 16.608C297.859 17.216 298.003 17.808 298.099 18.384H298.171C298.267 17.808 298.411 17.216 298.603 16.608L300.931 9H303.955L299.683 21H296.563L292.291 9H295.315ZM308.424 21.288C307.192 21.288 306.2 20.968 305.448 20.328C304.696 19.672 304.32 18.808 304.32 17.736C304.32 17.16 304.44 16.64 304.68 16.176C304.936 15.712 305.304 15.328 305.784 15.024C306.216 14.768 306.736 14.56 307.344 14.4C307.952 14.224 308.736 14.072 309.696 13.944L312.24 13.632V13.32C312.24 12.424 312.056 11.776 311.688 11.376C311.336 10.96 310.776 10.752 310.008 10.752C309.304 10.752 308.744 10.936 308.328 11.304C307.928 11.656 307.704 12.176 307.656 12.864H304.704C304.8 11.584 305.32 10.576 306.264 9.84C307.208 9.088 308.456 8.712 310.008 8.712C311.784 8.712 313.08 9.112 313.896 9.912C314.728 10.696 315.144 11.96 315.144 13.704V17.28C315.144 18.912 315.264 20.152 315.504 21H312.624C312.512 20.344 312.448 19.656 312.432 18.936C312.144 19.672 311.64 20.248 310.92 20.664C310.216 21.08 309.384 21.288 308.424 21.288ZM309.336 19.248C310.232 19.248 310.952 18.96 311.496 18.384C312.04 17.792 312.312 17.024 312.312 16.08V15.312L309.6 15.72C308.8 15.848 308.216 16.064 307.848 16.368C307.48 16.672 307.296 17.08 307.296 17.592C307.296 18.104 307.472 18.512 307.824 18.816C308.192 19.104 308.696 19.248 309.336 19.248ZM318.208 9H321.088V21H318.208V9ZM318.064 4.008H321.184V7.008H318.064V4.008ZM327.431 21H324.551V3.6H327.431V21ZM333.937 21.288C332.705 21.288 331.713 20.968 330.961 20.328C330.209 19.672 329.833 18.808 329.833 17.736C329.833 17.16 329.953 16.64 330.193 16.176C330.449 15.712 330.817 15.328 331.297 15.024C331.729 14.768 332.249 14.56 332.857 14.4C333.465 14.224 334.249 14.072 335.209 13.944L337.753 13.632V13.32C337.753 12.424 337.569 11.776 337.201 11.376C336.849 10.96 336.289 10.752 335.521 10.752C334.817 10.752 334.257 10.936 333.841 11.304C333.441 11.656 333.217 12.176 333.169 12.864H330.217C330.313 11.584 330.833 10.576 331.777 9.84C332.721 9.088 333.969 8.712 335.521 8.712C337.297 8.712 338.593 9.112 339.409 9.912C340.241 10.696 340.657 11.96 340.657 13.704V17.28C340.657 18.912 340.777 20.152 341.017 21H338.137C338.025 20.344 337.961 19.656 337.945 18.936C337.657 19.672 337.153 20.248 336.433 20.664C335.729 21.08 334.897 21.288 333.937 21.288ZM334.849 19.248C335.745 19.248 336.465 18.96 337.009 18.384C337.553 17.792 337.825 17.024 337.825 16.08V15.312L335.113 15.72C334.313 15.848 333.729 16.064 333.361 16.368C332.993 16.672 332.809 17.08 332.809 17.592C332.809 18.104 332.985 18.512 333.337 18.816C333.705 19.104 334.209 19.248 334.849 19.248ZM350.297 21.288C349.433 21.288 348.673 21.088 348.017 20.688C347.361 20.288 346.873 19.744 346.553 19.056L346.265 21H343.841V3.6H346.721V10.872C347.041 10.216 347.521 9.696 348.161 9.312C348.801 8.912 349.553 8.712 350.417 8.712C351.377 8.712 352.217 8.976 352.937 9.504C353.673 10.032 354.241 10.776 354.641 11.736C355.041 12.68 355.241 13.768 355.241 15C355.241 16.248 355.033 17.352 354.617 18.312C354.217 19.256 353.641 19.992 352.889 20.52C352.153 21.032 351.289 21.288 350.297 21.288ZM349.385 19.08C350.281 19.08 350.977 18.72 351.473 18C351.985 17.28 352.241 16.28 352.241 15C352.241 13.736 351.993 12.744 351.497 12.024C351.001 11.288 350.297 10.92 349.385 10.92C348.537 10.92 347.865 11.256 347.369 11.928C346.889 12.584 346.649 13.48 346.649 14.616V15.432C346.649 16.552 346.889 17.44 347.369 18.096C347.849 18.752 348.521 19.08 349.385 19.08ZM360.608 21H357.728V3.6H360.608V21ZM374.266 15.72H365.842C365.858 16.728 366.154 17.536 366.73 18.144C367.322 18.736 368.09 19.032 369.034 19.032C369.722 19.032 370.314 18.864 370.81 18.528C371.306 18.192 371.69 17.696 371.962 17.04L374.17 18.048C373.722 19.088 373.042 19.888 372.13 20.448C371.234 21.008 370.17 21.288 368.938 21.288C367.098 21.288 365.658 20.752 364.618 19.68C363.578 18.592 363.058 17.072 363.058 15.12C363.058 13.136 363.562 11.576 364.57 10.44C365.594 9.288 367.002 8.712 368.794 8.712C370.538 8.712 371.882 9.208 372.826 10.2C373.786 11.176 374.266 12.576 374.266 14.4V15.72ZM371.434 13.632C371.434 12.656 371.202 11.912 370.738 11.4C370.274 10.888 369.61 10.632 368.746 10.632C367.834 10.632 367.13 10.912 366.634 11.472C366.138 12.032 365.874 12.816 365.842 13.824H371.434V13.632Z" fill="black"/>
<rect x="142.574" y="48.1206" width="11.6667" height="8.48489" fill="#CCCCCA"/>
<rect x="128.789" y="48.1206" width="11.6667" height="8.48489" fill="#CCCCCA"/>
<rect x="115" y="48.1206" width="11.6667" height="8.48489" fill="#CCCCCA"/>
<rect x="142.574" y="58.7267" width="11.6667" height="8.48489" fill="#CCCCCA"/>
<rect x="128.789" y="58.7267" width="11.6667" height="8.48489" fill="#CCCCCA"/>
<rect x="115" y="58.7267" width="11.6667" height="8.48489" fill="#CCCCCA"/>
<rect x="142.574" y="69.3329" width="11.6667" height="8.48489" fill="#CCCCCA"/>
<rect x="128.789" y="69.3329" width="11.6667" height="8.48489" fill="#CCCCCA"/>
<rect x="115" y="69.3329" width="11.6667" height="8.48489" fill="#CCCCCA"/>
<rect x="142.574" y="79.939" width="11.6667" height="8.48489" fill="#CCCCCA"/>
<rect x="128.789" y="79.939" width="11.6667" height="8.48489" fill="#CCCCCA"/>
<rect x="115" y="79.939" width="11.6667" height="8.48489" fill="#CCCCCA"/>
<g clip-path="url(#clip0_3719_4754)">
<path d="M162.572 85.2865L169.811 81.3044L175.603 78.0467L179.224 63.5665L185.739 61.3945L190.807 55.2404L197.685 68.6345L207.821 66.8245" stroke="#CCCCCA" stroke-width="4.34405"/>
</g>
<rect x="218.68" y="48.0946" width="41.3204" height="5.35635" fill="#CCCCCA"/>
<rect x="218.68" y="55.0944" width="33.6685" height="5.35635" fill="#CCCCCA"/>
<rect x="218.68" y="62.0942" width="26.0166" height="5.35635" fill="#CCCCCA"/>
<rect x="218.68" y="69.094" width="16.0691" height="5.35635" fill="#CCCCCA"/>
<rect x="218.68" y="76.0938" width="8.41713" height="5.35635" fill="#CCCCCA"/>
<rect x="218.68" y="83.0935" width="4.59116" height="5.35635" fill="#CCCCCA"/>
<path d="M11.5533 119.184L13.5213 128.336C13.5639 128.56 13.5959 128.768 13.6173 128.96H13.6653C13.6759 128.832 13.7186 128.624 13.7933 128.336L16.1293 119.184H17.6653L20.0013 128.336C20.0759 128.624 20.1186 128.832 20.1293 128.96H20.1773C20.1986 128.768 20.2306 128.56 20.2733 128.336L22.2413 119.184H23.7933L21.0893 130.544H19.2333L17.0253 121.68C16.9719 121.467 16.9399 121.291 16.9293 121.152H16.8653C16.8546 121.291 16.8226 121.467 16.7693 121.68L14.5613 130.544H12.7053L10.0013 119.184H11.5533ZM31.3225 126.944H25.6425C25.6532 127.723 25.8718 128.352 26.2985 128.832C26.7358 129.302 27.3118 129.536 28.0265 129.536C28.5385 129.536 28.9758 129.408 29.3385 129.152C29.7012 128.886 29.9732 128.507 30.1545 128.016L31.2745 128.512C30.9972 129.238 30.5705 129.792 29.9945 130.176C29.4292 130.55 28.7412 130.736 27.9305 130.736C26.7785 130.736 25.8825 130.384 25.2425 129.68C24.6025 128.966 24.2825 127.952 24.2825 126.64C24.2825 125.296 24.6025 124.246 25.2425 123.488C25.8825 122.731 26.7732 122.352 27.9145 122.352C29.0025 122.352 29.8398 122.662 30.4265 123.28C31.0238 123.899 31.3225 124.8 31.3225 125.984V126.944ZM29.9465 125.664C29.9465 124.939 29.7652 124.384 29.4025 124C29.0505 123.616 28.5438 123.424 27.8825 123.424C27.1892 123.424 26.6452 123.638 26.2505 124.064C25.8665 124.491 25.6638 125.083 25.6425 125.84H29.9465V125.664ZM32.4265 122.608C32.8105 122.438 33.0665 122.251 33.1945 122.048C33.3225 121.835 33.3865 121.526 33.3865 121.12V121.072H32.3625V119.184H34.2345V120.96C34.2345 121.611 34.1278 122.112 33.9145 122.464C33.7118 122.806 33.3385 123.088 32.7945 123.312L32.4265 122.608ZM37.1734 124.368C37.3761 123.771 37.6854 123.286 38.1014 122.912C38.5281 122.539 39.0294 122.352 39.6054 122.352C39.7334 122.352 39.8294 122.358 39.8934 122.368V123.696H39.8294C39.072 123.696 38.4854 123.904 38.0694 124.32C37.728 124.662 37.5094 125.056 37.4134 125.504C37.3174 125.952 37.2694 126.491 37.2694 127.12V130.544H35.9094V122.544H37.1734V124.368ZM47.5813 126.944H41.9013C41.9119 127.723 42.1306 128.352 42.5573 128.832C42.9946 129.302 43.5706 129.536 44.2853 129.536C44.7973 129.536 45.2346 129.408 45.5973 129.152C45.9599 128.886 46.2319 128.507 46.4133 128.016L47.5333 128.512C47.2559 129.238 46.8293 129.792 46.2533 130.176C45.6879 130.55 44.9999 130.736 44.1893 130.736C43.0373 130.736 42.1413 130.384 41.5013 129.68C40.8613 128.966 40.5413 127.952 40.5413 126.64C40.5413 125.296 40.8613 124.246 41.5013 123.488C42.1413 122.731 43.0319 122.352 44.1733 122.352C45.2613 122.352 46.0986 122.662 46.6853 123.28C47.2826 123.899 47.5813 124.8 47.5813 125.984V126.944ZM46.2053 125.664C46.2053 124.939 46.0239 124.384 45.6613 124C45.3093 123.616 44.8026 123.424 44.1413 123.424C43.4479 123.424 42.9039 123.638 42.5093 124.064C42.1253 124.491 41.9226 125.083 41.9013 125.84H46.2053V125.664ZM55.836 130.736C54.876 130.736 54.1773 130.47 53.74 129.936C53.3133 129.403 53.1 128.64 53.1 127.648V122.544H54.46V127.488C54.46 128.16 54.5987 128.678 54.876 129.04C55.164 129.392 55.5693 129.568 56.092 129.568C56.732 129.568 57.2493 129.318 57.644 128.816C58.0387 128.315 58.236 127.659 58.236 126.848V122.544H59.596V130.544H58.316V129.04C58.1347 129.531 57.8147 129.936 57.356 130.256C56.8973 130.576 56.3907 130.736 55.836 130.736ZM63.4406 122.544V124.128C63.9633 122.944 64.854 122.352 66.1126 122.352C66.998 122.352 67.6646 122.624 68.1126 123.168C68.5606 123.702 68.7846 124.502 68.7846 125.568V130.544H67.4246V125.648C67.4246 124.23 66.838 123.52 65.6646 123.52C65.0033 123.52 64.4806 123.776 64.0966 124.288C63.7126 124.79 63.5206 125.483 63.5206 126.368V130.544H62.1606V122.544H63.4406ZM73.0903 130.736C72.2689 130.736 71.6129 130.523 71.1223 130.096C70.6316 129.67 70.3863 129.099 70.3863 128.384C70.3863 127.979 70.4823 127.616 70.6743 127.296C70.8663 126.966 71.1436 126.699 71.5063 126.496C71.8156 126.347 72.1783 126.219 72.5943 126.112C73.0103 126.006 73.5436 125.915 74.1943 125.84L75.6823 125.664V125.536C75.6823 124.8 75.5436 124.272 75.2663 123.952C74.9889 123.632 74.5409 123.472 73.9223 123.472C73.3783 123.472 72.9463 123.611 72.6263 123.888C72.3063 124.166 72.1303 124.555 72.0983 125.056H70.6423C70.6956 124.235 71.0156 123.579 71.6023 123.088C72.1996 122.598 72.9676 122.352 73.9063 122.352C75.0049 122.352 75.8049 122.619 76.3063 123.152C76.8076 123.675 77.0583 124.518 77.0583 125.68V127.84C77.0583 129.056 77.1489 129.958 77.3303 130.544H75.9063C75.8423 130.096 75.7996 129.611 75.7783 129.088C75.5969 129.6 75.2663 130.006 74.7863 130.304C74.3063 130.592 73.7409 130.736 73.0903 130.736ZM73.3943 129.616C74.0876 129.616 74.6423 129.387 75.0583 128.928C75.4849 128.459 75.6983 127.835 75.6983 127.056V126.656L73.5223 126.976C72.9356 127.062 72.5036 127.216 72.2263 127.44C71.9596 127.654 71.8263 127.958 71.8263 128.352C71.8263 128.747 71.9649 129.056 72.2423 129.28C72.5196 129.504 72.9036 129.616 73.3943 129.616ZM83.3153 130.736C82.7179 130.736 82.1953 130.598 81.7473 130.32C81.3099 130.032 80.9846 129.648 80.7713 129.168L80.5313 130.544H79.4913V118.944H80.8513V123.936C81.0753 123.467 81.4059 123.088 81.8433 122.8C82.2806 122.502 82.7979 122.352 83.3953 122.352C84.0353 122.352 84.5953 122.534 85.0753 122.896C85.5659 123.248 85.9446 123.744 86.2113 124.384C86.4779 125.014 86.6113 125.734 86.6113 126.544C86.6113 127.366 86.4726 128.096 86.1953 128.736C85.9286 129.366 85.5446 129.856 85.0433 130.208C84.5526 130.56 83.9766 130.736 83.3153 130.736ZM82.9473 129.536C83.6406 129.536 84.1846 129.27 84.5793 128.736C84.9739 128.192 85.1713 127.462 85.1713 126.544C85.1713 125.627 84.9793 124.902 84.5953 124.368C84.2113 123.824 83.6673 123.552 82.9633 123.552C82.2913 123.552 81.7633 123.803 81.3793 124.304C81.0059 124.806 80.8193 125.494 80.8193 126.368V126.784C80.8193 127.627 81.0059 128.299 81.3793 128.8C81.7633 129.291 82.2859 129.536 82.9473 129.536ZM89.8906 130.544H88.5306V118.944H89.8906V130.544ZM98.8569 126.944H93.1769C93.1876 127.723 93.4062 128.352 93.8329 128.832C94.2702 129.302 94.8462 129.536 95.5609 129.536C96.0729 129.536 96.5102 129.408 96.8729 129.152C97.2356 128.886 97.5076 128.507 97.6889 128.016L98.8089 128.512C98.5316 129.238 98.1049 129.792 97.5289 130.176C96.9636 130.55 96.2756 130.736 95.4649 130.736C94.3129 130.736 93.4169 130.384 92.7769 129.68C92.1369 128.966 91.8169 127.952 91.8169 126.64C91.8169 125.296 92.1369 124.246 92.7769 123.488C93.4169 122.731 94.3076 122.352 95.4489 122.352C96.5369 122.352 97.3742 122.662 97.9609 123.28C98.5582 123.899 98.8569 124.8 98.8569 125.984V126.944ZM97.4809 125.664C97.4809 124.939 97.2996 124.384 96.9369 124C96.5849 123.616 96.0782 123.424 95.4169 123.424C94.7236 123.424 94.1796 123.638 93.7849 124.064C93.4009 124.491 93.1982 125.083 93.1769 125.84H97.4809V125.664ZM104.904 122.544V120.448L106.264 119.872V122.544H108.264V123.664H106.264V128.096C106.264 128.555 106.354 128.891 106.536 129.104C106.728 129.307 107.026 129.408 107.432 129.408C107.666 129.408 107.944 129.371 108.264 129.296V130.544C107.912 130.64 107.517 130.688 107.08 130.688C106.269 130.688 105.704 130.47 105.384 130.032C105.064 129.595 104.904 128.966 104.904 128.144V123.664H103.416V122.544H104.904ZM112.866 130.736C112.119 130.736 111.463 130.571 110.898 130.24C110.333 129.899 109.895 129.414 109.586 128.784C109.287 128.155 109.138 127.408 109.138 126.544C109.138 125.68 109.287 124.934 109.586 124.304C109.895 123.675 110.333 123.195 110.898 122.864C111.463 122.523 112.119 122.352 112.866 122.352C113.613 122.352 114.269 122.523 114.834 122.864C115.399 123.195 115.831 123.675 116.13 124.304C116.439 124.934 116.594 125.68 116.594 126.544C116.594 127.408 116.439 128.155 116.13 128.784C115.831 129.414 115.399 129.899 114.834 130.24C114.269 130.571 113.613 130.736 112.866 130.736ZM112.866 129.552C113.591 129.552 114.151 129.296 114.546 128.784C114.951 128.272 115.154 127.526 115.154 126.544C115.154 125.563 114.951 124.816 114.546 124.304C114.151 123.792 113.591 123.536 112.866 123.536C112.141 123.536 111.575 123.792 111.17 124.304C110.775 124.816 110.578 125.563 110.578 126.544C110.578 127.526 110.775 128.272 111.17 128.784C111.575 129.296 112.141 129.552 112.866 129.552ZM123.705 130.544H122.345V118.944H123.705V130.544ZM129.359 130.736C128.613 130.736 127.957 130.571 127.391 130.24C126.826 129.899 126.389 129.414 126.079 128.784C125.781 128.155 125.631 127.408 125.631 126.544C125.631 125.68 125.781 124.934 126.079 124.304C126.389 123.675 126.826 123.195 127.391 122.864C127.957 122.523 128.613 122.352 129.359 122.352C130.106 122.352 130.762 122.523 131.327 122.864C131.893 123.195 132.325 123.675 132.623 124.304C132.933 124.934 133.087 125.68 133.087 126.544C133.087 127.408 132.933 128.155 132.623 128.784C132.325 129.414 131.893 129.899 131.327 130.24C130.762 130.571 130.106 130.736 129.359 130.736ZM129.359 129.552C130.085 129.552 130.645 129.296 131.039 128.784C131.445 128.272 131.647 127.526 131.647 126.544C131.647 125.563 131.445 124.816 131.039 124.304C130.645 123.792 130.085 123.536 129.359 123.536C128.634 123.536 128.069 123.792 127.663 124.304C127.269 124.816 127.071 125.563 127.071 126.544C127.071 127.526 127.269 128.272 127.663 128.784C128.069 129.296 128.634 129.552 129.359 129.552ZM136.906 130.736C136.085 130.736 135.429 130.523 134.938 130.096C134.447 129.67 134.202 129.099 134.202 128.384C134.202 127.979 134.298 127.616 134.49 127.296C134.682 126.966 134.959 126.699 135.322 126.496C135.631 126.347 135.994 126.219 136.41 126.112C136.826 126.006 137.359 125.915 138.01 125.84L139.498 125.664V125.536C139.498 124.8 139.359 124.272 139.082 123.952C138.805 123.632 138.357 123.472 137.738 123.472C137.194 123.472 136.762 123.611 136.442 123.888C136.122 124.166 135.946 124.555 135.914 125.056H134.458C134.511 124.235 134.831 123.579 135.418 123.088C136.015 122.598 136.783 122.352 137.722 122.352C138.821 122.352 139.621 122.619 140.122 123.152C140.623 123.675 140.874 124.518 140.874 125.68V127.84C140.874 129.056 140.965 129.958 141.146 130.544H139.722C139.658 130.096 139.615 129.611 139.594 129.088C139.413 129.6 139.082 130.006 138.602 130.304C138.122 130.592 137.557 130.736 136.906 130.736ZM137.21 129.616C137.903 129.616 138.458 129.387 138.874 128.928C139.301 128.459 139.514 127.835 139.514 127.056V126.656L137.338 126.976C136.751 127.062 136.319 127.216 136.042 127.44C135.775 127.654 135.642 127.958 135.642 128.352C135.642 128.747 135.781 129.056 136.058 129.28C136.335 129.504 136.719 129.616 137.21 129.616ZM145.677 130.736C145.037 130.736 144.471 130.566 143.981 130.224C143.49 129.872 143.106 129.382 142.829 128.752C142.562 128.112 142.429 127.376 142.429 126.544C142.429 125.734 142.573 125.014 142.861 124.384C143.149 123.744 143.549 123.248 144.061 122.896C144.583 122.534 145.175 122.352 145.837 122.352C146.903 122.352 147.687 122.811 148.189 123.728V118.944H149.549V130.544H148.269V129.056C148.023 129.6 147.682 130.016 147.245 130.304C146.818 130.592 146.295 130.736 145.677 130.736ZM146.045 129.536C146.706 129.536 147.234 129.286 147.629 128.784C148.023 128.272 148.221 127.59 148.221 126.736V126.368C148.221 125.494 148.023 124.806 147.629 124.304C147.245 123.803 146.717 123.552 146.045 123.552C145.362 123.552 144.829 123.819 144.445 124.352C144.061 124.875 143.869 125.606 143.869 126.544C143.869 127.483 144.061 128.219 144.445 128.752C144.829 129.275 145.362 129.536 146.045 129.536ZM158.52 130.736C157.56 130.736 156.862 130.47 156.424 129.936C155.998 129.403 155.784 128.64 155.784 127.648V122.544H157.144V127.488C157.144 128.16 157.283 128.678 157.56 129.04C157.848 129.392 158.254 129.568 158.776 129.568C159.416 129.568 159.934 129.318 160.328 128.816C160.723 128.315 160.92 127.659 160.92 126.848V122.544H162.28V130.544H161V129.04C160.819 129.531 160.499 129.936 160.04 130.256C159.582 130.576 159.075 130.736 158.52 130.736ZM167.565 130.736C166.616 130.736 165.837 130.523 165.229 130.096C164.632 129.67 164.264 129.062 164.125 128.272L165.501 128.032C165.597 128.534 165.826 128.923 166.189 129.2C166.552 129.478 167.026 129.616 167.613 129.616C168.136 129.616 168.541 129.504 168.829 129.28C169.128 129.046 169.277 128.752 169.277 128.4C169.277 128.059 169.181 127.803 168.989 127.632C168.797 127.462 168.509 127.344 168.125 127.28L166.557 126.992C165.874 126.864 165.346 126.614 164.973 126.24C164.61 125.856 164.429 125.36 164.429 124.752C164.429 124.048 164.701 123.472 165.245 123.024C165.8 122.576 166.541 122.352 167.469 122.352C168.365 122.352 169.096 122.544 169.661 122.928C170.237 123.312 170.562 123.84 170.637 124.512L169.293 124.816C169.197 124.4 168.989 124.07 168.669 123.824C168.349 123.579 167.928 123.456 167.405 123.456C166.893 123.456 166.488 123.563 166.189 123.776C165.901 123.99 165.757 124.294 165.757 124.688C165.757 125.008 165.858 125.259 166.061 125.44C166.274 125.622 166.584 125.75 166.989 125.824L168.541 126.112C169.256 126.251 169.778 126.502 170.109 126.864C170.45 127.216 170.621 127.691 170.621 128.288C170.621 129.024 170.349 129.616 169.805 130.064C169.272 130.512 168.525 130.736 167.565 130.736ZM174.54 130.736C173.719 130.736 173.063 130.523 172.572 130.096C172.082 129.67 171.836 129.099 171.836 128.384C171.836 127.979 171.932 127.616 172.124 127.296C172.316 126.966 172.594 126.699 172.956 126.496C173.266 126.347 173.628 126.219 174.044 126.112C174.46 126.006 174.994 125.915 175.644 125.84L177.132 125.664V125.536C177.132 124.8 176.994 124.272 176.716 123.952C176.439 123.632 175.991 123.472 175.372 123.472C174.828 123.472 174.396 123.611 174.076 123.888C173.756 124.166 173.58 124.555 173.548 125.056H172.092C172.146 124.235 172.466 123.579 173.052 123.088C173.65 122.598 174.418 122.352 175.356 122.352C176.455 122.352 177.255 122.619 177.756 123.152C178.258 123.675 178.508 124.518 178.508 125.68V127.84C178.508 129.056 178.599 129.958 178.78 130.544H177.356C177.292 130.096 177.25 129.611 177.228 129.088C177.047 129.6 176.716 130.006 176.236 130.304C175.756 130.592 175.191 130.736 174.54 130.736ZM174.844 129.616C175.538 129.616 176.092 129.387 176.508 128.928C176.935 128.459 177.148 127.835 177.148 127.056V126.656L174.972 126.976C174.386 127.062 173.954 127.216 173.676 127.44C173.41 127.654 173.276 127.958 173.276 128.352C173.276 128.747 173.415 129.056 173.692 129.28C173.97 129.504 174.354 129.616 174.844 129.616ZM186.929 122.416C186.321 122.416 185.921 122.667 185.729 123.168C186.22 123.659 186.465 124.288 186.465 125.056C186.465 125.579 186.342 126.048 186.097 126.464C185.862 126.87 185.521 127.195 185.073 127.44C184.636 127.675 184.113 127.792 183.505 127.792C182.95 127.792 182.438 127.68 181.969 127.456C181.798 127.531 181.66 127.638 181.553 127.776C181.446 127.904 181.393 128.059 181.393 128.24C181.393 128.486 181.494 128.683 181.697 128.832C181.91 128.982 182.252 129.056 182.721 129.056H184.673C185.569 129.056 186.246 129.254 186.705 129.648C187.164 130.032 187.393 130.587 187.393 131.312C187.393 132.102 187.068 132.72 186.417 133.168C185.766 133.627 184.769 133.856 183.425 133.856C182.124 133.856 181.196 133.654 180.641 133.248C180.097 132.843 179.825 132.315 179.825 131.664C179.825 131.28 179.937 130.939 180.161 130.64C180.385 130.352 180.705 130.139 181.121 130C180.502 129.723 180.193 129.259 180.193 128.608C180.193 128.224 180.294 127.894 180.497 127.616C180.7 127.339 180.977 127.136 181.329 127.008C180.806 126.507 180.545 125.856 180.545 125.056C180.545 124.267 180.812 123.622 181.345 123.12C181.878 122.608 182.598 122.352 183.505 122.352C184.07 122.352 184.593 122.464 185.073 122.688C185.201 122.251 185.42 121.899 185.729 121.632C186.049 121.366 186.465 121.232 186.977 121.232C187.169 121.232 187.345 121.254 187.505 121.296V122.48C187.292 122.438 187.1 122.416 186.929 122.416ZM183.505 126.752C184.006 126.752 184.412 126.598 184.721 126.288C185.03 125.968 185.185 125.563 185.185 125.072C185.185 124.582 185.03 124.182 184.721 123.872C184.412 123.552 184.006 123.392 183.505 123.392C182.993 123.392 182.582 123.547 182.273 123.856C181.974 124.166 181.825 124.566 181.825 125.056C181.825 125.547 181.98 125.952 182.289 126.272C182.598 126.592 183.004 126.752 183.505 126.752ZM182.673 130.256C182.502 130.256 182.278 130.246 182.001 130.224C181.724 130.352 181.51 130.523 181.361 130.736C181.222 130.95 181.153 131.179 181.153 131.424C181.153 131.894 181.361 132.23 181.777 132.432C182.204 132.635 182.806 132.736 183.585 132.736C184.492 132.736 185.126 132.614 185.489 132.368C185.852 132.134 186.033 131.814 186.033 131.408C186.033 131.035 185.894 130.747 185.617 130.544C185.34 130.352 184.924 130.256 184.369 130.256H182.673ZM195.033 126.944H189.353C189.364 127.723 189.582 128.352 190.009 128.832C190.446 129.302 191.022 129.536 191.737 129.536C192.249 129.536 192.686 129.408 193.049 129.152C193.412 128.886 193.684 128.507 193.865 128.016L194.985 128.512C194.708 129.238 194.281 129.792 193.705 130.176C193.14 130.55 192.452 130.736 191.641 130.736C190.489 130.736 189.593 130.384 188.953 129.68C188.313 128.966 187.993 127.952 187.993 126.64C187.993 125.296 188.313 124.246 188.953 123.488C189.593 122.731 190.484 122.352 191.625 122.352C192.713 122.352 193.55 122.662 194.137 123.28C194.734 123.899 195.033 124.8 195.033 125.984V126.944ZM193.657 125.664C193.657 124.939 193.476 124.384 193.113 124C192.761 123.616 192.254 123.424 191.593 123.424C190.9 123.424 190.356 123.638 189.961 124.064C189.577 124.491 189.374 125.083 189.353 125.84H193.657V125.664ZM203.32 130.736C202.68 130.736 202.115 130.566 201.624 130.224C201.133 129.872 200.749 129.382 200.472 128.752C200.205 128.112 200.072 127.376 200.072 126.544C200.072 125.734 200.216 125.014 200.504 124.384C200.792 123.744 201.192 123.248 201.704 122.896C202.227 122.534 202.819 122.352 203.48 122.352C204.547 122.352 205.331 122.811 205.832 123.728V118.944H207.192V130.544H205.912V129.056C205.667 129.6 205.325 130.016 204.888 130.304C204.461 130.592 203.939 130.736 203.32 130.736ZM203.688 129.536C204.349 129.536 204.877 129.286 205.272 128.784C205.667 128.272 205.864 127.59 205.864 126.736V126.368C205.864 125.494 205.667 124.806 205.272 124.304C204.888 123.803 204.36 123.552 203.688 123.552C203.005 123.552 202.472 123.819 202.088 124.352C201.704 124.875 201.512 125.606 201.512 126.544C201.512 127.483 201.704 128.219 202.088 128.752C202.472 129.275 203.005 129.536 203.688 129.536ZM211.815 130.736C210.994 130.736 210.338 130.523 209.847 130.096C209.357 129.67 209.111 129.099 209.111 128.384C209.111 127.979 209.207 127.616 209.399 127.296C209.591 126.966 209.869 126.699 210.231 126.496C210.541 126.347 210.903 126.219 211.319 126.112C211.735 126.006 212.269 125.915 212.919 125.84L214.407 125.664V125.536C214.407 124.8 214.269 124.272 213.991 123.952C213.714 123.632 213.266 123.472 212.647 123.472C212.103 123.472 211.671 123.611 211.351 123.888C211.031 124.166 210.855 124.555 210.823 125.056H209.367C209.421 124.235 209.741 123.579 210.327 123.088C210.925 122.598 211.693 122.352 212.631 122.352C213.73 122.352 214.53 122.619 215.031 123.152C215.533 123.675 215.783 124.518 215.783 125.68V127.84C215.783 129.056 215.874 129.958 216.055 130.544H214.631C214.567 130.096 214.525 129.611 214.503 129.088C214.322 129.6 213.991 130.006 213.511 130.304C213.031 130.592 212.466 130.736 211.815 130.736ZM212.119 129.616C212.813 129.616 213.367 129.387 213.783 128.928C214.21 128.459 214.423 127.835 214.423 127.056V126.656L212.247 126.976C211.661 127.062 211.229 127.216 210.951 127.44C210.685 127.654 210.551 127.958 210.551 128.352C210.551 128.747 210.69 129.056 210.967 129.28C211.245 129.504 211.629 129.616 212.119 129.616ZM218.424 122.544V120.448L219.784 119.872V122.544H221.784V123.664H219.784V128.096C219.784 128.555 219.875 128.891 220.056 129.104C220.248 129.307 220.547 129.408 220.952 129.408C221.187 129.408 221.464 129.371 221.784 129.296V130.544C221.432 130.64 221.038 130.688 220.6 130.688C219.79 130.688 219.224 130.47 218.904 130.032C218.584 129.595 218.424 128.966 218.424 128.144V123.664H216.936V122.544H218.424ZM225.363 130.736C224.541 130.736 223.885 130.523 223.395 130.096C222.904 129.67 222.659 129.099 222.659 128.384C222.659 127.979 222.755 127.616 222.947 127.296C223.139 126.966 223.416 126.699 223.779 126.496C224.088 126.347 224.451 126.219 224.867 126.112C225.283 126.006 225.816 125.915 226.467 125.84L227.955 125.664V125.536C227.955 124.8 227.816 124.272 227.539 123.952C227.261 123.632 226.813 123.472 226.195 123.472C225.651 123.472 225.219 123.611 224.899 123.888C224.579 124.166 224.403 124.555 224.371 125.056H222.915C222.968 124.235 223.288 123.579 223.875 123.088C224.472 122.598 225.24 122.352 226.179 122.352C227.277 122.352 228.077 122.619 228.579 123.152C229.08 123.675 229.331 124.518 229.331 125.68V127.84C229.331 129.056 229.421 129.958 229.603 130.544H228.179C228.115 130.096 228.072 129.611 228.051 129.088C227.869 129.6 227.539 130.006 227.059 130.304C226.579 130.592 226.013 130.736 225.363 130.736ZM225.667 129.616C226.36 129.616 226.915 129.387 227.331 128.928C227.757 128.459 227.971 127.835 227.971 127.056V126.656L225.795 126.976C225.208 127.062 224.776 127.216 224.499 127.44C224.232 127.654 224.099 127.958 224.099 128.352C224.099 128.747 224.237 129.056 224.515 129.28C224.792 129.504 225.176 129.616 225.667 129.616ZM237.504 130.736C236.683 130.736 236.027 130.523 235.536 130.096C235.045 129.67 234.8 129.099 234.8 128.384C234.8 127.979 234.896 127.616 235.088 127.296C235.28 126.966 235.557 126.699 235.92 126.496C236.229 126.347 236.592 126.219 237.008 126.112C237.424 126.006 237.957 125.915 238.608 125.84L240.096 125.664V125.536C240.096 124.8 239.957 124.272 239.68 123.952C239.403 123.632 238.955 123.472 238.336 123.472C237.792 123.472 237.36 123.611 237.04 123.888C236.72 124.166 236.544 124.555 236.512 125.056H235.056C235.109 124.235 235.429 123.579 236.016 123.088C236.613 122.598 237.381 122.352 238.32 122.352C239.419 122.352 240.219 122.619 240.72 123.152C241.221 123.675 241.472 124.518 241.472 125.68V127.84C241.472 129.056 241.563 129.958 241.744 130.544H240.32C240.256 130.096 240.213 129.611 240.192 129.088C240.011 129.6 239.68 130.006 239.2 130.304C238.72 130.592 238.155 130.736 237.504 130.736ZM237.808 129.616C238.501 129.616 239.056 129.387 239.472 128.928C239.899 128.459 240.112 127.835 240.112 127.056V126.656L237.936 126.976C237.349 127.062 236.917 127.216 236.64 127.44C236.373 127.654 236.24 127.958 236.24 128.352C236.24 128.747 236.379 129.056 236.656 129.28C236.933 129.504 237.317 129.616 237.808 129.616ZM244.113 122.544V120.448L245.473 119.872V122.544H247.473V123.664H245.473V128.096C245.473 128.555 245.564 128.891 245.745 129.104C245.937 129.307 246.236 129.408 246.641 129.408C246.876 129.408 247.153 129.371 247.473 129.296V130.544C247.121 130.64 246.726 130.688 246.289 130.688C245.478 130.688 244.913 130.47 244.593 130.032C244.273 129.595 244.113 128.966 244.113 128.144V123.664H242.625V122.544H244.113ZM253.27 122.544V120.448L254.63 119.872V122.544H256.63V123.664H254.63V128.096C254.63 128.555 254.721 128.891 254.902 129.104C255.094 129.307 255.393 129.408 255.798 129.408C256.033 129.408 256.31 129.371 256.63 129.296V130.544C256.278 130.64 255.883 130.688 255.446 130.688C254.635 130.688 254.07 130.47 253.75 130.032C253.43 129.595 253.27 128.966 253.27 128.144V123.664H251.782V122.544H253.27ZM259.743 118.944V124.048C260.223 122.918 261.097 122.352 262.367 122.352C263.231 122.352 263.887 122.624 264.335 123.168C264.783 123.712 265.007 124.512 265.007 125.568V130.544H263.647V125.664C263.647 124.96 263.497 124.427 263.199 124.064C262.911 123.702 262.479 123.52 261.903 123.52C261.22 123.52 260.687 123.771 260.303 124.272C259.929 124.763 259.743 125.462 259.743 126.368V130.544H258.383V118.944H259.743ZM267.326 122.544H268.686V130.544H267.326V122.544ZM267.23 119.344H268.782V121.056H267.23V119.344ZM273.961 130.736C273.011 130.736 272.233 130.523 271.625 130.096C271.027 129.67 270.659 129.062 270.521 128.272L271.897 128.032C271.993 128.534 272.222 128.923 272.585 129.2C272.947 129.478 273.422 129.616 274.009 129.616C274.531 129.616 274.937 129.504 275.225 129.28C275.523 129.046 275.673 128.752 275.673 128.4C275.673 128.059 275.577 127.803 275.385 127.632C275.193 127.462 274.905 127.344 274.521 127.28L272.953 126.992C272.27 126.864 271.742 126.614 271.369 126.24C271.006 125.856 270.825 125.36 270.825 124.752C270.825 124.048 271.097 123.472 271.641 123.024C272.195 122.576 272.937 122.352 273.865 122.352C274.761 122.352 275.491 122.544 276.057 122.928C276.633 123.312 276.958 123.84 277.033 124.512L275.689 124.816C275.593 124.4 275.385 124.07 275.065 123.824C274.745 123.579 274.323 123.456 273.801 123.456C273.289 123.456 272.883 123.563 272.585 123.776C272.297 123.99 272.153 124.294 272.153 124.688C272.153 125.008 272.254 125.259 272.457 125.44C272.67 125.622 272.979 125.75 273.385 125.824L274.937 126.112C275.651 126.251 276.174 126.502 276.505 126.864C276.846 127.216 277.017 127.691 277.017 128.288C277.017 129.024 276.745 129.616 276.201 130.064C275.667 130.512 274.921 130.736 273.961 130.736ZM283.076 122.544V120.448L284.436 119.872V122.544H286.436V123.664H284.436V128.096C284.436 128.555 284.527 128.891 284.708 129.104C284.9 129.307 285.199 129.408 285.604 129.408C285.839 129.408 286.116 129.371 286.436 129.296V130.544C286.084 130.64 285.689 130.688 285.252 130.688C284.441 130.688 283.876 130.47 283.556 130.032C283.236 129.595 283.076 128.966 283.076 128.144V123.664H281.588V122.544H283.076ZM288.109 122.544H289.469V130.544H288.109V122.544ZM288.013 119.344H289.565V121.056H288.013V119.344ZM293.303 123.936C293.751 122.88 294.514 122.352 295.591 122.352C296.146 122.352 296.615 122.491 296.999 122.768C297.394 123.035 297.682 123.43 297.863 123.952C298.386 122.886 299.196 122.352 300.295 122.352C301.063 122.352 301.66 122.614 302.087 123.136C302.514 123.648 302.727 124.368 302.727 125.296V130.544H301.367V125.408C301.367 124.15 300.86 123.52 299.847 123.52C299.282 123.52 298.839 123.723 298.519 124.128C298.21 124.523 298.055 125.083 298.055 125.808V130.544H296.695V125.344C296.695 124.758 296.562 124.31 296.295 124C296.039 123.68 295.671 123.52 295.191 123.52C294.636 123.52 294.194 123.734 293.863 124.16C293.543 124.576 293.383 125.147 293.383 125.872V130.544H292.023V122.544H293.303V123.936ZM311.367 126.944H305.687C305.698 127.723 305.916 128.352 306.343 128.832C306.78 129.302 307.356 129.536 308.071 129.536C308.583 129.536 309.02 129.408 309.383 129.152C309.746 128.886 310.018 128.507 310.199 128.016L311.319 128.512C311.042 129.238 310.615 129.792 310.039 130.176C309.474 130.55 308.786 130.736 307.975 130.736C306.823 130.736 305.927 130.384 305.287 129.68C304.647 128.966 304.327 127.952 304.327 126.64C304.327 125.296 304.647 124.246 305.287 123.488C305.927 122.731 306.818 122.352 307.959 122.352C309.047 122.352 309.884 122.662 310.471 123.28C311.068 123.899 311.367 124.8 311.367 125.984V126.944ZM309.991 125.664C309.991 124.939 309.81 124.384 309.447 124C309.095 123.616 308.588 123.424 307.927 123.424C307.234 123.424 306.69 123.638 306.295 124.064C305.911 124.491 305.708 125.083 305.687 125.84H309.991V125.664ZM314.685 130.544H312.813V128.656H314.685V130.544ZM324.951 119.184C325.729 119.184 326.407 119.323 326.983 119.6C327.569 119.878 328.017 120.272 328.327 120.784C328.647 121.286 328.807 121.872 328.807 122.544C328.807 123.216 328.647 123.808 328.327 124.32C328.017 124.822 327.569 125.211 326.983 125.488C326.407 125.766 325.729 125.904 324.951 125.904H322.439V130.544H320.919V119.184H324.951ZM324.791 124.624C325.527 124.624 326.113 124.438 326.551 124.064C326.988 123.68 327.207 123.174 327.207 122.544C327.207 121.915 326.988 121.414 326.551 121.04C326.113 120.656 325.527 120.464 324.791 120.464H322.439V124.624H324.791ZM331.691 130.544H330.331V118.944H331.691V130.544ZM340.658 126.944H334.978C334.988 127.723 335.207 128.352 335.634 128.832C336.071 129.302 336.647 129.536 337.362 129.536C337.874 129.536 338.311 129.408 338.674 129.152C339.036 128.886 339.308 128.507 339.49 128.016L340.61 128.512C340.332 129.238 339.906 129.792 339.33 130.176C338.764 130.55 338.076 130.736 337.266 130.736C336.114 130.736 335.218 130.384 334.578 129.68C333.938 128.966 333.618 127.952 333.618 126.64C333.618 125.296 333.938 124.246 334.578 123.488C335.218 122.731 336.108 122.352 337.25 122.352C338.338 122.352 339.175 122.662 339.762 123.28C340.359 123.899 340.658 124.8 340.658 125.984V126.944ZM339.282 125.664C339.282 124.939 339.1 124.384 338.738 124C338.386 123.616 337.879 123.424 337.218 123.424C336.524 123.424 335.98 123.638 335.586 124.064C335.202 124.491 334.999 125.083 334.978 125.84H339.282V125.664ZM344.564 130.736C343.743 130.736 343.087 130.523 342.596 130.096C342.105 129.67 341.86 129.099 341.86 128.384C341.86 127.979 341.956 127.616 342.148 127.296C342.34 126.966 342.617 126.699 342.98 126.496C343.289 126.347 343.652 126.219 344.068 126.112C344.484 126.006 345.017 125.915 345.668 125.84L347.156 125.664V125.536C347.156 124.8 347.017 124.272 346.74 123.952C346.463 123.632 346.015 123.472 345.396 123.472C344.852 123.472 344.42 123.611 344.1 123.888C343.78 124.166 343.604 124.555 343.572 125.056H342.116C342.169 124.235 342.489 123.579 343.076 123.088C343.673 122.598 344.441 122.352 345.38 122.352C346.479 122.352 347.279 122.619 347.78 123.152C348.281 123.675 348.532 124.518 348.532 125.68V127.84C348.532 129.056 348.623 129.958 348.804 130.544H347.38C347.316 130.096 347.273 129.611 347.252 129.088C347.071 129.6 346.74 130.006 346.26 130.304C345.78 130.592 345.215 130.736 344.564 130.736ZM344.868 129.616C345.561 129.616 346.116 129.387 346.532 128.928C346.959 128.459 347.172 127.835 347.172 127.056V126.656L344.996 126.976C344.409 127.062 343.977 127.216 343.7 127.44C343.433 127.654 343.3 127.958 343.3 128.352C343.3 128.747 343.439 129.056 343.716 129.28C343.993 129.504 344.377 129.616 344.868 129.616ZM353.605 130.736C352.656 130.736 351.877 130.523 351.269 130.096C350.672 129.67 350.304 129.062 350.165 128.272L351.541 128.032C351.637 128.534 351.866 128.923 352.229 129.2C352.592 129.478 353.066 129.616 353.653 129.616C354.176 129.616 354.581 129.504 354.869 129.28C355.168 129.046 355.317 128.752 355.317 128.4C355.317 128.059 355.221 127.803 355.029 127.632C354.837 127.462 354.549 127.344 354.165 127.28L352.597 126.992C351.914 126.864 351.386 126.614 351.013 126.24C350.65 125.856 350.469 125.36 350.469 124.752C350.469 124.048 350.741 123.472 351.285 123.024C351.84 122.576 352.581 122.352 353.509 122.352C354.405 122.352 355.136 122.544 355.701 122.928C356.277 123.312 356.602 123.84 356.677 124.512L355.333 124.816C355.237 124.4 355.029 124.07 354.709 123.824C354.389 123.579 353.968 123.456 353.445 123.456C352.933 123.456 352.528 123.563 352.229 123.776C351.941 123.99 351.797 124.294 351.797 124.688C351.797 125.008 351.898 125.259 352.101 125.44C352.314 125.622 352.624 125.75 353.029 125.824L354.581 126.112C355.296 126.251 355.818 126.502 356.149 126.864C356.49 127.216 356.661 127.691 356.661 128.288C356.661 129.024 356.389 129.616 355.845 130.064C355.312 130.512 354.565 130.736 353.605 130.736ZM364.916 126.944H359.236C359.247 127.723 359.466 128.352 359.892 128.832C360.33 129.302 360.906 129.536 361.62 129.536C362.132 129.536 362.57 129.408 362.932 129.152C363.295 128.886 363.567 128.507 363.748 128.016L364.868 128.512C364.591 129.238 364.164 129.792 363.588 130.176C363.023 130.55 362.335 130.736 361.524 130.736C360.372 130.736 359.476 130.384 358.836 129.68C358.196 128.966 357.876 127.952 357.876 126.64C357.876 125.296 358.196 124.246 358.836 123.488C359.476 122.731 360.367 122.352 361.508 122.352C362.596 122.352 363.434 122.662 364.02 123.28C364.618 123.899 364.916 124.8 364.916 125.984V126.944ZM363.54 125.664C363.54 124.939 363.359 124.384 362.996 124C362.644 123.616 362.138 123.424 361.476 123.424C360.783 123.424 360.239 123.638 359.844 124.064C359.46 124.491 359.258 125.083 359.236 125.84H363.54V125.664ZM91.4696 146.544V144.448L92.8296 143.872V146.544H94.8296V147.664H92.8296V152.096C92.8296 152.555 92.9202 152.891 93.1016 153.104C93.2936 153.307 93.5922 153.408 93.9976 153.408C94.2322 153.408 94.5096 153.371 94.8296 153.296V154.544C94.4776 154.64 94.0829 154.688 93.6456 154.688C92.8349 154.688 92.2696 154.47 91.9496 154.032C91.6296 153.595 91.4696 152.966 91.4696 152.144V147.664H89.9816V146.544H91.4696ZM97.7662 148.368C97.9689 147.771 98.2782 147.286 98.6942 146.912C99.1209 146.539 99.6222 146.352 100.198 146.352C100.326 146.352 100.422 146.358 100.486 146.368V147.696H100.422C99.6649 147.696 99.0782 147.904 98.6622 148.32C98.3209 148.662 98.1022 149.056 98.0062 149.504C97.9102 149.952 97.8622 150.491 97.8622 151.12V154.544H96.5022V146.544H97.7662V148.368ZM102.277 157.744C102.01 157.744 101.765 157.723 101.541 157.68V156.48C101.679 156.502 101.871 156.512 102.117 156.512C102.597 156.512 102.975 156.395 103.253 156.16C103.53 155.936 103.759 155.563 103.941 155.04L104.149 154.448L100.965 146.544H102.485L104.533 152.112C104.65 152.432 104.741 152.747 104.805 153.056H104.837C104.879 152.864 104.97 152.55 105.109 152.112L106.965 146.544H108.437L105.317 155.056C104.965 156.027 104.543 156.715 104.053 157.12C103.562 157.536 102.97 157.744 102.277 157.744ZM115.542 154.736C114.72 154.736 114.064 154.523 113.574 154.096C113.083 153.67 112.838 153.099 112.838 152.384C112.838 151.979 112.934 151.616 113.126 151.296C113.318 150.966 113.595 150.699 113.958 150.496C114.267 150.347 114.63 150.219 115.046 150.112C115.462 150.006 115.995 149.915 116.646 149.84L118.134 149.664V149.536C118.134 148.8 117.995 148.272 117.718 147.952C117.44 147.632 116.992 147.472 116.374 147.472C115.83 147.472 115.398 147.611 115.078 147.888C114.758 148.166 114.582 148.555 114.55 149.056H113.094C113.147 148.235 113.467 147.579 114.054 147.088C114.651 146.598 115.419 146.352 116.358 146.352C117.456 146.352 118.256 146.619 118.758 147.152C119.259 147.675 119.51 148.518 119.51 149.68V151.84C119.51 153.056 119.6 153.958 119.782 154.544H118.358C118.294 154.096 118.251 153.611 118.23 153.088C118.048 153.6 117.718 154.006 117.238 154.304C116.758 154.592 116.192 154.736 115.542 154.736ZM115.846 153.616C116.539 153.616 117.094 153.387 117.51 152.928C117.936 152.459 118.15 151.835 118.15 151.056V150.656L115.974 150.976C115.387 151.062 114.955 151.216 114.678 151.44C114.411 151.654 114.278 151.958 114.278 152.352C114.278 152.747 114.416 153.056 114.694 153.28C114.971 153.504 115.355 153.616 115.846 153.616ZM127.931 146.416C127.323 146.416 126.923 146.667 126.731 147.168C127.221 147.659 127.467 148.288 127.467 149.056C127.467 149.579 127.344 150.048 127.099 150.464C126.864 150.87 126.523 151.195 126.075 151.44C125.637 151.675 125.115 151.792 124.507 151.792C123.952 151.792 123.44 151.68 122.971 151.456C122.8 151.531 122.661 151.638 122.555 151.776C122.448 151.904 122.395 152.059 122.395 152.24C122.395 152.486 122.496 152.683 122.699 152.832C122.912 152.982 123.253 153.056 123.723 153.056H125.675C126.571 153.056 127.248 153.254 127.707 153.648C128.165 154.032 128.395 154.587 128.395 155.312C128.395 156.102 128.069 156.72 127.419 157.168C126.768 157.627 125.771 157.856 124.427 157.856C123.125 157.856 122.197 157.654 121.643 157.248C121.099 156.843 120.827 156.315 120.827 155.664C120.827 155.28 120.939 154.939 121.163 154.64C121.387 154.352 121.707 154.139 122.123 154C121.504 153.723 121.195 153.259 121.195 152.608C121.195 152.224 121.296 151.894 121.499 151.616C121.701 151.339 121.979 151.136 122.331 151.008C121.808 150.507 121.547 149.856 121.547 149.056C121.547 148.267 121.813 147.622 122.347 147.12C122.88 146.608 123.6 146.352 124.507 146.352C125.072 146.352 125.595 146.464 126.075 146.688C126.203 146.251 126.421 145.899 126.731 145.632C127.051 145.366 127.467 145.232 127.979 145.232C128.171 145.232 128.347 145.254 128.507 145.296V146.48C128.293 146.438 128.101 146.416 127.931 146.416ZM124.507 150.752C125.008 150.752 125.413 150.598 125.723 150.288C126.032 149.968 126.187 149.563 126.187 149.072C126.187 148.582 126.032 148.182 125.723 147.872C125.413 147.552 125.008 147.392 124.507 147.392C123.995 147.392 123.584 147.547 123.275 147.856C122.976 148.166 122.827 148.566 122.827 149.056C122.827 149.547 122.981 149.952 123.291 150.272C123.6 150.592 124.005 150.752 124.507 150.752ZM123.675 154.256C123.504 154.256 123.28 154.246 123.003 154.224C122.725 154.352 122.512 154.523 122.363 154.736C122.224 154.95 122.155 155.179 122.155 155.424C122.155 155.894 122.363 156.23 122.779 156.432C123.205 156.635 123.808 156.736 124.587 156.736C125.493 156.736 126.128 156.614 126.491 156.368C126.853 156.134 127.035 155.814 127.035 155.408C127.035 155.035 126.896 154.747 126.619 154.544C126.341 154.352 125.925 154.256 125.371 154.256H123.675ZM131.777 154.736C130.955 154.736 130.299 154.523 129.809 154.096C129.318 153.67 129.073 153.099 129.073 152.384C129.073 151.979 129.169 151.616 129.361 151.296C129.553 150.966 129.83 150.699 130.193 150.496C130.502 150.347 130.865 150.219 131.281 150.112C131.697 150.006 132.23 149.915 132.881 149.84L134.369 149.664V149.536C134.369 148.8 134.23 148.272 133.953 147.952C133.675 147.632 133.227 147.472 132.609 147.472C132.065 147.472 131.633 147.611 131.313 147.888C130.993 148.166 130.817 148.555 130.785 149.056H129.329C129.382 148.235 129.702 147.579 130.289 147.088C130.886 146.598 131.654 146.352 132.593 146.352C133.691 146.352 134.491 146.619 134.993 147.152C135.494 147.675 135.745 148.518 135.745 149.68V151.84C135.745 153.056 135.835 153.958 136.017 154.544H134.593C134.529 154.096 134.486 153.611 134.465 153.088C134.283 153.6 133.953 154.006 133.473 154.304C132.993 154.592 132.427 154.736 131.777 154.736ZM132.081 153.616C132.774 153.616 133.329 153.387 133.745 152.928C134.171 152.459 134.385 151.835 134.385 151.056V150.656L132.209 150.976C131.622 151.062 131.19 151.216 130.913 151.44C130.646 151.654 130.513 151.958 130.513 152.352C130.513 152.747 130.651 153.056 130.929 153.28C131.206 153.504 131.59 153.616 132.081 153.616ZM138.098 146.544H139.458V154.544H138.098V146.544ZM138.002 143.344H139.554V145.056H138.002V143.344ZM143.292 146.544V148.128C143.815 146.944 144.706 146.352 145.964 146.352C146.85 146.352 147.516 146.624 147.964 147.168C148.412 147.702 148.636 148.502 148.636 149.568V154.544H147.276V149.648C147.276 148.23 146.69 147.52 145.516 147.52C144.855 147.52 144.332 147.776 143.948 148.288C143.564 148.79 143.372 149.483 143.372 150.368V154.544H142.012V146.544H143.292ZM157.802 154.736C157.055 154.736 156.399 154.571 155.834 154.24C155.269 153.899 154.831 153.414 154.522 152.784C154.223 152.155 154.074 151.408 154.074 150.544C154.074 149.68 154.223 148.934 154.522 148.304C154.831 147.675 155.269 147.195 155.834 146.864C156.399 146.523 157.055 146.352 157.802 146.352C158.549 146.352 159.205 146.523 159.77 146.864C160.335 147.195 160.767 147.675 161.066 148.304C161.375 148.934 161.53 149.68 161.53 150.544C161.53 151.408 161.375 152.155 161.066 152.784C160.767 153.414 160.335 153.899 159.77 154.24C159.205 154.571 158.549 154.736 157.802 154.736ZM157.802 153.552C158.527 153.552 159.087 153.296 159.482 152.784C159.887 152.272 160.09 151.526 160.09 150.544C160.09 149.563 159.887 148.816 159.482 148.304C159.087 147.792 158.527 147.536 157.802 147.536C157.077 147.536 156.511 147.792 156.106 148.304C155.711 148.816 155.514 149.563 155.514 150.544C155.514 151.526 155.711 152.272 156.106 152.784C156.511 153.296 157.077 153.552 157.802 153.552ZM164.629 148.368C164.831 147.771 165.141 147.286 165.557 146.912C165.983 146.539 166.485 146.352 167.061 146.352C167.189 146.352 167.285 146.358 167.349 146.368V147.696H167.285C166.527 147.696 165.941 147.904 165.525 148.32C165.183 148.662 164.965 149.056 164.869 149.504C164.773 149.952 164.725 150.491 164.725 151.12V154.544H163.365V146.544H164.629V148.368ZM175.591 154.736C174.855 154.736 174.21 154.566 173.655 154.224C173.1 153.883 172.668 153.398 172.359 152.768C172.06 152.128 171.911 151.387 171.911 150.544C171.911 149.243 172.236 148.219 172.887 147.472C173.548 146.726 174.45 146.352 175.591 146.352C176.53 146.352 177.287 146.608 177.863 147.12C178.439 147.632 178.78 148.347 178.887 149.264L177.495 149.424C177.42 148.816 177.212 148.352 176.871 148.032C176.54 147.702 176.103 147.536 175.559 147.536C174.866 147.536 174.322 147.803 173.927 148.336C173.543 148.859 173.351 149.59 173.351 150.528C173.351 151.488 173.548 152.235 173.943 152.768C174.338 153.291 174.892 153.552 175.607 153.552C176.151 153.552 176.588 153.392 176.919 153.072C177.25 152.752 177.468 152.278 177.575 151.648L178.871 151.856C178.722 152.774 178.359 153.483 177.783 153.984C177.218 154.486 176.487 154.736 175.591 154.736ZM183.741 154.736C182.994 154.736 182.338 154.571 181.773 154.24C181.207 153.899 180.77 153.414 180.461 152.784C180.162 152.155 180.013 151.408 180.013 150.544C180.013 149.68 180.162 148.934 180.461 148.304C180.77 147.675 181.207 147.195 181.773 146.864C182.338 146.523 182.994 146.352 183.741 146.352C184.487 146.352 185.143 146.523 185.709 146.864C186.274 147.195 186.706 147.675 187.005 148.304C187.314 148.934 187.469 149.68 187.469 150.544C187.469 151.408 187.314 152.155 187.005 152.784C186.706 153.414 186.274 153.899 185.709 154.24C185.143 154.571 184.487 154.736 183.741 154.736ZM183.741 153.552C184.466 153.552 185.026 153.296 185.421 152.784C185.826 152.272 186.029 151.526 186.029 150.544C186.029 149.563 185.826 148.816 185.421 148.304C185.026 147.792 184.466 147.536 183.741 147.536C183.015 147.536 182.45 147.792 182.045 148.304C181.65 148.816 181.453 149.563 181.453 150.544C181.453 151.526 181.65 152.272 182.045 152.784C182.45 153.296 183.015 153.552 183.741 153.552ZM190.583 146.544V148.128C191.106 146.944 191.997 146.352 193.255 146.352C194.141 146.352 194.807 146.624 195.255 147.168C195.703 147.702 195.927 148.502 195.927 149.568V154.544H194.567V149.648C194.567 148.23 193.981 147.52 192.807 147.52C192.146 147.52 191.623 147.776 191.239 148.288C190.855 148.79 190.663 149.483 190.663 150.368V154.544H189.303V146.544H190.583ZM198.381 146.544V144.448L199.741 143.872V146.544H201.741V147.664H199.741V152.096C199.741 152.555 199.831 152.891 200.013 153.104C200.205 153.307 200.503 153.408 200.909 153.408C201.143 153.408 201.421 153.371 201.741 153.296V154.544C201.389 154.64 200.994 154.688 200.557 154.688C199.746 154.688 199.181 154.47 198.861 154.032C198.541 153.595 198.381 152.966 198.381 152.144V147.664H196.893V146.544H198.381ZM205.319 154.736C204.498 154.736 203.842 154.523 203.351 154.096C202.861 153.67 202.615 153.099 202.615 152.384C202.615 151.979 202.711 151.616 202.903 151.296C203.095 150.966 203.373 150.699 203.735 150.496C204.045 150.347 204.407 150.219 204.823 150.112C205.239 150.006 205.773 149.915 206.423 149.84L207.911 149.664V149.536C207.911 148.8 207.773 148.272 207.495 147.952C207.218 147.632 206.77 147.472 206.151 147.472C205.607 147.472 205.175 147.611 204.855 147.888C204.535 148.166 204.359 148.555 204.327 149.056H202.871C202.925 148.235 203.245 147.579 203.831 147.088C204.429 146.598 205.197 146.352 206.135 146.352C207.234 146.352 208.034 146.619 208.535 147.152C209.037 147.675 209.287 148.518 209.287 149.68V151.84C209.287 153.056 209.378 153.958 209.559 154.544H208.135C208.071 154.096 208.029 153.611 208.007 153.088C207.826 153.6 207.495 154.006 207.015 154.304C206.535 154.592 205.97 154.736 205.319 154.736ZM205.623 153.616C206.317 153.616 206.871 153.387 207.287 152.928C207.714 152.459 207.927 151.835 207.927 151.056V150.656L205.751 150.976C205.165 151.062 204.733 151.216 204.455 151.44C204.189 151.654 204.055 151.958 204.055 152.352C204.055 152.747 204.194 153.056 204.471 153.28C204.749 153.504 205.133 153.616 205.623 153.616ZM214.522 154.736C213.786 154.736 213.141 154.566 212.586 154.224C212.032 153.883 211.6 153.398 211.29 152.768C210.992 152.128 210.842 151.387 210.842 150.544C210.842 149.243 211.168 148.219 211.818 147.472C212.48 146.726 213.381 146.352 214.522 146.352C215.461 146.352 216.218 146.608 216.794 147.12C217.37 147.632 217.712 148.347 217.818 149.264L216.426 149.424C216.352 148.816 216.144 148.352 215.802 148.032C215.472 147.702 215.034 147.536 214.49 147.536C213.797 147.536 213.253 147.803 212.858 148.336C212.474 148.859 212.282 149.59 212.282 150.528C212.282 151.488 212.48 152.235 212.874 152.768C213.269 153.291 213.824 153.552 214.538 153.552C215.082 153.552 215.52 153.392 215.85 153.072C216.181 152.752 216.4 152.278 216.506 151.648L217.802 151.856C217.653 152.774 217.29 153.483 216.714 153.984C216.149 154.486 215.418 154.736 214.522 154.736ZM219.952 146.544V144.448L221.312 143.872V146.544H223.312V147.664H221.312V152.096C221.312 152.555 221.403 152.891 221.584 153.104C221.776 153.307 222.075 153.408 222.48 153.408C222.715 153.408 222.992 153.371 223.312 153.296V154.544C222.96 154.64 222.565 154.688 222.128 154.688C221.317 154.688 220.752 154.47 220.432 154.032C220.112 153.595 219.952 152.966 219.952 152.144V147.664H218.464V146.544H219.952ZM231.541 154.736C230.592 154.736 229.813 154.523 229.205 154.096C228.608 153.67 228.24 153.062 228.101 152.272L229.477 152.032C229.573 152.534 229.802 152.923 230.165 153.2C230.528 153.478 231.002 153.616 231.589 153.616C232.112 153.616 232.517 153.504 232.805 153.28C233.104 153.046 233.253 152.752 233.253 152.4C233.253 152.059 233.157 151.803 232.965 151.632C232.773 151.462 232.485 151.344 232.101 151.28L230.533 150.992C229.85 150.864 229.322 150.614 228.949 150.24C228.586 149.856 228.405 149.36 228.405 148.752C228.405 148.048 228.677 147.472 229.221 147.024C229.776 146.576 230.517 146.352 231.445 146.352C232.341 146.352 233.072 146.544 233.637 146.928C234.213 147.312 234.538 147.84 234.613 148.512L233.269 148.816C233.173 148.4 232.965 148.07 232.645 147.824C232.325 147.579 231.904 147.456 231.381 147.456C230.869 147.456 230.464 147.563 230.165 147.776C229.877 147.99 229.733 148.294 229.733 148.688C229.733 149.008 229.834 149.259 230.037 149.44C230.25 149.622 230.56 149.75 230.965 149.824L232.517 150.112C233.232 150.251 233.754 150.502 234.085 150.864C234.426 151.216 234.597 151.691 234.597 152.288C234.597 153.024 234.325 153.616 233.781 154.064C233.248 154.512 232.501 154.736 231.541 154.736ZM239.028 154.736C238.068 154.736 237.37 154.47 236.932 153.936C236.506 153.403 236.292 152.64 236.292 151.648V146.544H237.652V151.488C237.652 152.16 237.791 152.678 238.068 153.04C238.356 153.392 238.762 153.568 239.284 153.568C239.924 153.568 240.442 153.318 240.836 152.816C241.231 152.315 241.428 151.659 241.428 150.848V146.544H242.788V154.544H241.508V153.04C241.327 153.531 241.007 153.936 240.548 154.256C240.09 154.576 239.583 154.736 239.028 154.736ZM246.633 146.544V148.032C246.889 147.488 247.241 147.072 247.689 146.784C248.137 146.496 248.654 146.352 249.241 146.352C249.881 146.352 250.446 146.528 250.937 146.88C251.427 147.222 251.806 147.712 252.073 148.352C252.339 148.982 252.473 149.712 252.473 150.544C252.473 151.387 252.329 152.123 252.041 152.752C251.763 153.382 251.374 153.872 250.873 154.224C250.371 154.566 249.801 154.736 249.161 154.736C248.574 154.736 248.067 154.598 247.641 154.32C247.214 154.043 246.905 153.696 246.713 153.28V157.664H245.353V146.544H246.633ZM248.841 153.536C249.523 153.536 250.057 153.275 250.441 152.752C250.835 152.219 251.033 151.483 251.033 150.544C251.033 149.606 250.841 148.875 250.457 148.352C250.083 147.819 249.561 147.552 248.889 147.552C248.217 147.552 247.678 147.803 247.273 148.304C246.878 148.795 246.681 149.472 246.681 150.336V150.72C246.681 151.584 246.873 152.272 247.257 152.784C247.651 153.286 248.179 153.536 248.841 153.536ZM255.594 146.544V148.032C255.85 147.488 256.202 147.072 256.65 146.784C257.098 146.496 257.615 146.352 258.202 146.352C258.842 146.352 259.407 146.528 259.898 146.88C260.389 147.222 260.767 147.712 261.034 148.352C261.301 148.982 261.434 149.712 261.434 150.544C261.434 151.387 261.29 152.123 261.002 152.752C260.725 153.382 260.335 153.872 259.834 154.224C259.333 154.566 258.762 154.736 258.122 154.736C257.535 154.736 257.029 154.598 256.602 154.32C256.175 154.043 255.866 153.696 255.674 153.28V157.664H254.314V146.544H255.594ZM257.802 153.536C258.485 153.536 259.018 153.275 259.402 152.752C259.797 152.219 259.994 151.483 259.994 150.544C259.994 149.606 259.802 148.875 259.418 148.352C259.045 147.819 258.522 147.552 257.85 147.552C257.178 147.552 256.639 147.803 256.234 148.304C255.839 148.795 255.642 149.472 255.642 150.336V150.72C255.642 151.584 255.834 152.272 256.218 152.784C256.613 153.286 257.141 153.536 257.802 153.536ZM266.283 154.736C265.537 154.736 264.881 154.571 264.315 154.24C263.75 153.899 263.313 153.414 263.003 152.784C262.705 152.155 262.555 151.408 262.555 150.544C262.555 149.68 262.705 148.934 263.003 148.304C263.313 147.675 263.75 147.195 264.315 146.864C264.881 146.523 265.537 146.352 266.283 146.352C267.03 146.352 267.686 146.523 268.251 146.864C268.817 147.195 269.249 147.675 269.547 148.304C269.857 148.934 270.011 149.68 270.011 150.544C270.011 151.408 269.857 152.155 269.547 152.784C269.249 153.414 268.817 153.899 268.251 154.24C267.686 154.571 267.03 154.736 266.283 154.736ZM266.283 153.552C267.009 153.552 267.569 153.296 267.963 152.784C268.369 152.272 268.571 151.526 268.571 150.544C268.571 149.563 268.369 148.816 267.963 148.304C267.569 147.792 267.009 147.536 266.283 147.536C265.558 147.536 264.993 147.792 264.587 148.304C264.193 148.816 263.995 149.563 263.995 150.544C263.995 151.526 264.193 152.272 264.587 152.784C264.993 153.296 265.558 153.552 266.283 153.552ZM273.11 148.368C273.313 147.771 273.622 147.286 274.038 146.912C274.465 146.539 274.966 146.352 275.542 146.352C275.67 146.352 275.766 146.358 275.83 146.368V147.696H275.766C275.009 147.696 274.422 147.904 274.006 148.32C273.665 148.662 273.446 149.056 273.35 149.504C273.254 149.952 273.206 150.491 273.206 151.12V154.544H271.846V146.544H273.11V148.368ZM277.876 146.544V144.448L279.236 143.872V146.544H281.236V147.664H279.236V152.096C279.236 152.555 279.327 152.891 279.508 153.104C279.7 153.307 279.999 153.408 280.404 153.408C280.639 153.408 280.916 153.371 281.236 153.296V154.544C280.884 154.64 280.49 154.688 280.052 154.688C279.242 154.688 278.676 154.47 278.356 154.032C278.036 153.595 277.876 152.966 277.876 152.144V147.664H276.388V146.544H277.876ZM284.461 154.544H282.589V152.656H284.461V154.544Z" fill="black"/>
<defs>
<clipPath id="clip0_3719_4754">
<rect width="41.2685" height="40.5445" fill="white" transform="translate(165.828 48)"/>
</clipPath>
</defs>
</svg>
