<svg width="61" height="81" viewBox="0 0 61 81" fill="none" xmlns="http://www.w3.org/2000/svg">
<rect x="3.41748" y="1.0574" width="55.1846" height="53.8508" fill="white" stroke="white" stroke-width="0.5"/>
<path d="M11.3399 76.039L11.3102 76.105C11.0474 76.6862 11.0298 77.3599 11.0298 77.5462C11.0298 77.8306 11.0589 78.0886 11.0858 78.3249L11.0866 78.3321C11.1118 78.5583 11.1337 78.7558 11.1337 78.9618C11.1337 79.0459 11.1337 79.1478 11.1315 79.24C11.1292 79.3391 11.1246 79.4038 11.1203 79.4264C11.1203 79.4266 11.1203 79.4267 11.1203 79.4269L11.089 79.5841C11.073 79.6647 11.0976 79.7479 11.1547 79.8069C11.2119 79.8658 11.2943 79.8929 11.3753 79.8794L11.5363 79.8526L11.5363 79.8526C11.6296 79.837 11.6679 79.8369 11.786 79.8369C12.1983 79.8369 12.5446 79.9121 12.9389 79.9988L12.939 79.9988L12.9419 79.9994C13.4171 80.1038 13.974 80.226 14.7634 80.226C16.1204 80.226 17.2888 79.7663 18.1194 78.9618C18.9505 78.1569 19.428 77.0213 19.428 75.7002C19.428 73.0533 17.6333 71.8343 16.0125 70.7333L15.9791 70.7106C14.5021 69.707 13.2658 68.8467 13.2658 67.1886C13.2658 66.4478 13.5449 65.9723 13.9352 65.6748C14.3358 65.3696 14.8793 65.2331 15.4254 65.2331C16.1497 65.2331 16.7135 65.4177 17.1269 65.7545C17.5399 66.0909 17.8287 66.6003 17.9641 67.2986L17.9641 67.2988L17.9817 67.3893C18.0045 67.5068 18.1074 67.5916 18.2271 67.5916H18.5644C18.6337 67.5916 18.6999 67.5628 18.7472 67.5121C18.7945 67.4614 18.8186 67.3933 18.8138 67.3242L18.8055 67.2062C18.8055 67.206 18.8055 67.2059 18.8055 67.2057C18.7862 66.912 18.786 66.4105 18.786 66.1017C18.786 65.5893 18.8029 65.2337 18.8478 64.7838L18.8478 64.7834L18.8621 64.6381C18.8697 64.5608 18.8409 64.4844 18.7842 64.4313C18.7275 64.3782 18.6494 64.3544 18.5727 64.367L18.4273 64.3909L18.427 64.3909C18.3349 64.4062 18.2582 64.4067 18.1345 64.4067C17.8094 64.4067 17.4968 64.3481 17.1029 64.2735C16.6323 64.1837 16.0797 64.0784 15.3841 64.0784C14.1678 64.0784 13.1185 64.4872 12.3718 65.2044C11.6244 65.9224 11.1954 66.935 11.1954 68.1117C11.1954 70.5881 12.952 71.7717 14.5266 72.8326L14.5572 72.8533L14.5573 72.8533C16.0983 73.8916 17.399 74.7878 17.399 76.5829C17.399 77.4329 17.0879 78.0257 16.6403 78.4095C16.1869 78.7983 15.5732 78.9894 14.9492 78.9894C14.2119 78.9894 13.4817 78.7876 12.943 78.4076C12.4109 78.0322 12.0663 77.4858 12.0663 76.7669C12.0663 76.6457 12.0798 76.5228 12.0978 76.3612L12.0978 76.3607L12.1188 76.1689C12.1265 76.0983 12.1038 76.0278 12.0564 75.9749C12.0089 75.922 11.9413 75.8918 11.8702 75.8918H11.5678C11.4695 75.8918 11.3803 75.9494 11.3399 76.039Z" fill="white" stroke="black" stroke-width="0.5" stroke-linejoin="round"/>
<path d="M44.4106 72.3242C44.4106 74.4283 43.8854 76.1042 42.966 77.2487C42.0516 78.387 40.7298 79.0221 39.0787 79.0221C37.4492 79.0221 36.1662 78.3929 35.2837 77.2443C34.3949 76.0875 33.8944 74.3796 33.8944 72.1995C33.8944 69.5972 34.5842 67.8697 35.5614 66.7953C36.5377 65.7218 37.8254 65.2731 39.0787 65.2731C40.3051 65.2731 41.6315 65.728 42.6525 66.8232C43.6728 67.9177 44.4106 69.6763 44.4106 72.3242ZM39.2467 64.0921C34.2165 64.0921 31.2217 68.2575 31.2217 72.2618C31.2217 76.165 34.1545 80.2239 39.0787 80.2239C43.555 80.2239 47.0624 76.6957 47.0624 72.1995C47.0624 67.6648 43.6363 64.0921 39.2467 64.0921Z" fill="white" stroke="black" stroke-width="0.5" stroke-linejoin="round"/>
<path d="M60.2039 79.3984L60.2027 79.3979C59.9475 79.311 59.6583 79.1036 59.3436 78.7862C59.0321 78.472 58.7121 78.0669 58.3929 77.61C57.7541 76.6957 57.1359 75.5996 56.608 74.6629L56.6079 74.6628L56.6005 74.6497C56.3158 74.145 56.0541 73.6811 55.8202 73.298C55.6733 73.0574 55.5331 72.8413 55.4009 72.6636C57.0869 71.8843 58.1024 70.4384 58.1024 68.7033C58.1024 67.3173 57.5637 66.162 56.6005 65.3576C55.6419 64.5568 54.2833 64.12 52.6648 64.12C52.4547 64.12 52.1219 64.1285 51.7641 64.1375C51.7426 64.1381 51.721 64.1386 51.6993 64.1392L51.6991 64.1392C51.2516 64.1508 50.7721 64.1628 50.4295 64.1628C49.4891 64.1628 49.1059 64.1628 48.3862 64.121C48.3861 64.121 48.3861 64.121 48.3861 64.121L48.2665 64.114C48.1978 64.11 48.1305 64.1345 48.0804 64.1817C48.0303 64.229 48.002 64.2947 48.002 64.3636V64.6836C48.002 64.8068 48.0917 64.9116 48.2134 64.9306L48.3088 64.9455L48.309 64.9455C48.644 64.9975 48.7784 65.0732 48.8655 65.2291C48.9746 65.4243 49.0343 65.7857 49.0343 66.509V77.8415C49.0343 78.2503 49.0177 78.5485 48.9843 78.7685C48.9508 78.99 48.9029 79.1125 48.8544 79.1845C48.77 79.3099 48.6498 79.3436 48.2642 79.4052L48.2639 79.4052L48.1692 79.4205C48.0481 79.44 47.959 79.5446 47.959 79.6673V79.9849C47.959 80.0532 47.9869 80.1186 48.0364 80.1657C48.0858 80.2129 48.1524 80.2378 48.2206 80.2346L48.3384 80.2291C48.3384 80.2291 48.3384 80.2291 48.3385 80.2291C48.7319 80.2118 49.3509 80.1869 50.1926 80.1869C50.8072 80.1869 51.4998 80.203 52.0447 80.2291C52.0451 80.2291 52.0454 80.2291 52.0458 80.2291L52.1621 80.2356C52.2307 80.2394 52.2979 80.2149 52.3478 80.1676C52.3978 80.1204 52.426 80.0547 52.426 79.986V79.6673C52.426 79.5446 52.337 79.44 52.2158 79.4205L52.1212 79.4052L52.1209 79.4052C51.7355 79.3436 51.6154 79.31 51.531 79.1845C51.4825 79.1125 51.4347 78.99 51.4011 78.7685C51.3677 78.5485 51.3511 78.2503 51.3511 77.8415V73.3283H52.364C52.5833 73.3283 52.8446 73.3078 53.1417 73.2686C53.2812 73.4265 53.4356 73.653 53.5894 73.9059C53.7708 74.2043 53.9396 74.5195 54.0699 74.7626L54.07 74.7627C54.1261 74.8673 54.1768 74.9617 54.219 75.0377C54.8505 76.2137 55.3453 77.1198 55.7673 77.8163C56.1887 78.5117 56.5458 79.0125 56.905 79.3698C57.2702 79.733 57.6362 79.9467 58.0678 80.0716C58.4894 80.1937 58.9652 80.2281 59.5381 80.25L59.5381 80.2501H59.5477H59.5508C59.8109 80.2501 59.9104 80.2501 60.1244 80.227L60.1249 80.227L60.2251 80.2159C60.3518 80.202 60.4478 80.0949 60.4478 79.9674V79.6608C60.4478 79.5543 60.3803 79.4595 60.2797 79.4246L60.2039 79.3984ZM51.3511 72.1611V65.4607C51.8176 65.3533 52.158 65.33 52.5359 65.33C53.4646 65.33 54.2138 65.6834 54.7348 66.3018C55.2595 66.9246 55.5697 67.837 55.5697 68.9776C55.5697 70.1237 55.2865 70.9003 54.7376 71.397C54.1831 71.8988 53.3078 72.1611 52.0203 72.1611H51.3511Z" fill="white" stroke="black" stroke-width="0.5" stroke-linejoin="round"/>
<path d="M32.0109 64.3917C32.0358 64.3149 32.022 64.2308 31.9739 64.1659C31.9259 64.101 31.8494 64.0633 31.7687 64.0647L31.6109 64.0675L31.6104 64.0675C30.5964 64.0871 25.2963 64.1745 20.5265 64.0631L20.4358 64.0609C20.3184 64.0581 20.2149 64.1372 20.1869 64.2512L20.1655 64.3383C20.1655 64.3384 20.1655 64.3384 20.1655 64.3385C20.0709 64.7214 19.9761 65.0487 19.883 65.3694C19.7685 65.7615 19.6575 66.1435 19.5764 66.5462C19.5764 66.5462 19.5764 66.5463 19.5764 66.5463L19.5494 66.6801C19.5345 66.7536 19.5535 66.8299 19.601 66.8879C19.6484 66.9459 19.7195 66.9796 19.7944 66.9796H20.11C20.2068 66.9796 20.2949 66.9237 20.3362 66.8361L20.3664 66.772C20.3664 66.772 20.3665 66.7719 20.3665 66.7719C20.5073 66.4741 20.6567 66.2681 20.8401 66.1179C21.0231 65.9679 21.2567 65.8598 21.5872 65.7841C22.2312 65.6368 23.1781 65.6246 24.6969 65.6238V77.8277C24.6969 78.2385 24.6803 78.5383 24.6471 78.7595C24.6137 78.9823 24.566 79.1057 24.5177 79.1783C24.4342 79.3038 24.3163 79.3371 23.9341 79.3986C23.9341 79.3986 23.934 79.3986 23.934 79.3986L23.8392 79.4138C23.718 79.4333 23.6289 79.5379 23.6289 79.6606V79.9792C23.6289 80.0474 23.6568 80.1127 23.7062 80.1599C23.7555 80.207 23.822 80.232 23.8901 80.2289L24.0087 80.2236L24.0087 80.2236C24.3985 80.206 25.0126 80.1812 25.8499 80.1812C26.7281 80.1812 27.4293 80.2115 27.6906 80.2235C27.6909 80.2235 27.6913 80.2236 27.6916 80.2236L27.8082 80.2299C27.8767 80.2336 27.9438 80.209 27.9936 80.1618C28.0435 80.1146 28.0717 80.0489 28.0717 79.9803V79.6606C28.0717 79.5379 27.9826 79.4333 27.8614 79.4138L27.7666 79.3986C27.7666 79.3986 27.7666 79.3986 27.7666 79.3986C27.3845 79.3371 27.2665 79.3038 27.183 79.1783C27.1346 79.1057 27.087 78.9823 27.0535 78.7595C27.0203 78.5382 27.0038 78.2385 27.0038 77.8277V65.6241C28.6793 65.6287 29.6322 65.6675 30.1679 65.7608C30.4523 65.8103 30.5774 65.8691 30.6311 65.9133C30.6625 65.9391 30.6786 65.9643 30.6786 66.0453C30.6786 66.1156 30.6623 66.2149 30.6469 66.277L30.6468 66.2773L30.6128 66.4155C30.5944 66.4901 30.6113 66.569 30.6587 66.6295C30.7061 66.69 30.7786 66.7254 30.8555 66.7254H31.2213C31.3421 66.7254 31.4456 66.639 31.4672 66.5201L31.4838 66.4291C31.4838 66.429 31.4838 66.4288 31.4839 66.4287C31.5439 66.1038 31.7837 65.0987 31.9628 64.54C31.9629 64.5399 31.9629 64.5397 31.9629 64.5396L32.0109 64.3917Z" fill="white" stroke="black" stroke-width="0.5" stroke-linejoin="round"/>
<path d="M5.5408 64.0682L5.54062 64.0682L5.42227 64.0627C5.35403 64.0595 5.28745 64.0844 5.23803 64.1316C5.18861 64.1788 5.16065 64.2441 5.16065 64.3125V64.6277C5.16065 64.7509 5.25039 64.8557 5.37211 64.8747L5.46697 64.8895C5.46706 64.8895 5.46715 64.8895 5.46724 64.8895C5.86242 64.952 6.06014 64.9937 6.19486 65.1434C6.332 65.2958 6.44787 65.6175 6.44787 66.3947V75.6335C6.44787 76.4589 6.24955 77.3108 5.90077 77.9478C5.5491 78.59 5.07823 78.9615 4.54515 78.9615C4.31406 78.9615 4.09759 78.9442 3.89163 78.911C3.05241 78.7022 2.52316 78.1183 2.18156 77.6679L2.18151 77.6679C2.1345 77.6059 2.09018 77.5434 2.04808 77.4816L2.04772 77.4811C1.67767 76.9405 1.51047 76.4639 1.50552 76.4498L1.50541 76.4495L1.50544 76.4495L1.50411 76.446C1.47177 76.3609 1.4115 76.2896 1.32834 76.2451C1.24873 76.2025 1.16348 76.1925 1.08758 76.198C1.07347 76.199 1.05948 76.2012 1.04574 76.2046C0.855211 76.2518 0.728259 76.4336 0.753064 76.631L0.753178 76.6319L1.06656 79.0554L1.06654 79.0554L1.06692 79.0581L1.07803 79.1373C1.08807 79.2088 1.12858 79.2725 1.18911 79.312L1.24041 79.3454L1.24155 79.3461C1.6847 79.6315 2.18904 79.8256 2.61389 79.9501C2.98827 80.0599 3.31584 80.12 3.50204 80.1385C3.51469 80.1426 3.52773 80.1456 3.54104 80.1477C3.90719 80.2035 4.20536 80.2161 4.39846 80.2161C4.47251 80.2161 4.53141 80.2144 4.57327 80.2124C4.59412 80.2114 4.61123 80.2103 4.62421 80.2093L4.63509 80.2084C5.84226 80.2048 6.8618 79.716 7.57619 78.8624C8.29002 78.0096 8.68609 76.8092 8.68609 75.4006V66.3947C8.68609 65.6321 8.7758 65.3167 8.89441 65.1644C9.00427 65.0233 9.16931 64.9772 9.56403 64.8944L9.56407 64.8944L9.69187 64.8676C9.80763 64.8433 9.89052 64.7412 9.89052 64.6229V64.3125C9.89052 64.2441 9.86256 64.1788 9.81314 64.1316C9.76372 64.0844 9.69714 64.0595 9.62889 64.0627L9.51054 64.0682L9.50984 64.0683C9.10541 64.0882 8.28504 64.1089 7.56651 64.1089C6.81266 64.1089 5.97526 64.0888 5.5408 64.0682Z" fill="white" stroke="black" stroke-width="0.5" stroke-linejoin="round"/>
<path d="M55.9654 25.3111C55.4635 25.6368 54.9158 25.6954 54.9097 25.6954C54.8943 25.6971 54.8817 25.7087 54.8773 25.7239C54.8729 25.7395 54.8779 25.7566 54.8899 25.7665C54.9038 25.7779 56.2718 26.9464 56.4122 28.5476C56.5562 30.1741 56.3042 31.0663 55.4844 31.8419C54.8243 32.4626 53.8738 32.5484 53.5102 32.4556C53.433 32.436 53.4087 32.4134 53.4073 32.4069C53.3534 32.2047 53.6651 31.9921 54.0264 31.7467C54.107 31.692 54.1907 31.6347 54.2744 31.5751C54.7417 31.2434 55.0073 30.698 54.8536 30.3842C54.8067 30.2876 54.718 30.2646 54.6126 30.2745C54.5311 30.2817 54.4387 30.3078 54.3494 30.3341C54.1581 30.3897 53.9605 30.4467 53.8625 30.3363C53.751 30.2134 53.7914 30.1177 53.8916 29.9138C53.9705 29.7532 54.069 29.5531 54.0903 29.2635C54.1366 28.653 54.0629 27.03 53.1774 26.8485C53.1422 26.8414 53.1091 26.8493 53.0839 26.8709C53.0005 26.9415 52.9974 27.1441 52.9935 27.4524C52.9874 27.8627 52.9796 28.4252 52.7405 28.7939C52.3703 29.3669 51.7857 29.8 51.5064 29.8039C51.4446 29.8044 51.4011 29.7864 51.3735 29.7464C51.3366 29.6926 51.3625 29.5625 51.4027 29.365C51.4987 28.8951 51.6772 28.0213 51.4198 26.4016C51.329 25.8299 50.986 25.2178 50.655 24.6254C50.3355 24.0537 50.0331 23.5138 49.9668 23.0412C49.8462 22.1701 49.9525 21.8111 50.4424 21.442C50.7261 21.229 50.7824 21.0256 50.7806 20.8924C50.7786 20.7618 50.7063 20.5158 50.4733 20.4262C50.4639 20.4223 50.4533 20.4207 50.4441 20.4174C50.4413 20.4168 50.4385 20.4163 50.4363 20.4159C50.3207 20.3891 50.1079 20.3687 49.9042 20.3716C48.9763 20.3808 46.8087 20.4038 45.2742 18.3386C44.0294 16.6636 43.9376 15.0902 44.1831 13.2426C44.1837 13.2382 44.1837 13.2332 44.1826 13.2294C44.1778 13.2 44.042 12.5043 43.4542 11.9785C43.1726 11.726 42.8861 11.5858 42.6774 11.4835C42.5544 11.4238 42.4277 11.3615 42.424 11.3233C42.4234 11.3189 42.4294 11.2981 42.4603 11.2665C42.6172 11.108 43.1352 10.8977 43.8564 11.0053C44.4021 11.0883 44.7819 11.302 44.7866 11.3042C44.8032 11.3135 44.824 11.3091 44.836 11.2943C44.8497 11.2763 46.2599 9.62865 48.6214 9.80959C50.0279 9.91779 51.3764 11.284 51.4122 12.7677C51.4485 14.2623 50.7498 15.0346 50.1416 15.2418C49.6497 15.4101 49.1933 15.3968 48.9222 15.2062C48.7966 15.1176 48.7229 14.9984 48.7151 14.8694C48.7073 14.7471 48.8214 14.6843 49.0231 14.5832C49.3641 14.412 49.881 14.1536 49.9458 13.2171C49.9784 12.7398 49.8116 12.255 49.4997 11.9207C49.2787 11.6841 48.8881 11.4091 48.2489 11.4342C47.4253 11.4677 46.7502 11.7921 46.2985 12.372C45.721 13.1131 45.5243 14.2513 45.7462 15.5767C46.0677 17.4943 47.9339 18.8309 49.9982 18.6217C51.211 18.4975 52.3482 17.8239 53.2006 16.7254C54.009 15.6838 54.4806 14.3481 54.4956 13.0611C54.5335 9.85221 52.6579 6.54432 48.3823 6.38579C44.2813 6.23442 41.7434 8.75754 40.5786 10.2632C39.8559 11.1976 39.0926 12.9836 38.541 14.4322C38.7874 14.3876 39.5836 14.2805 40.2883 14.6279C41.0062 14.9787 41.8569 15.8412 41.7102 16.2106C41.6685 16.3155 41.4498 16.2569 41.1455 16.1761C40.7306 16.0662 40.1422 16.0997 39.4715 16.186C38.3471 16.3313 37.882 16.5483 37.758 16.6669L37.8176 16.4663C37.7768 16.5889 37.7542 16.6598 37.7526 16.6636L36.2148 15.7275C36.4263 14.7715 37.4031 10.7867 39.8529 8.16621C42.3688 5.47537 45.3748 4.59434 48.0346 4.57028C49.4748 4.55724 50.8169 4.77529 51.9102 5.02053C52.0397 5.049 52.1649 5.07748 52.2865 5.1043C53.3369 5.33815 54.427 5.55069 55.2083 5.36221C55.6261 5.26099 55.9854 5.08684 56.2477 4.95936C56.4134 4.87853 56.5861 4.79439 56.6235 4.8135C56.6283 4.8157 56.6348 4.82489 56.6394 4.84473C56.6779 5.013 56.5155 5.54701 56.0338 6.20595C55.7241 6.62625 55.3466 6.86176 55.0712 7.03443C54.8254 7.18801 54.6482 7.29896 54.6482 7.4608C54.6482 7.54108 54.7295 7.68804 54.8784 7.95422C55.349 8.79685 56.3273 10.5495 56.2118 13.0126C56.0343 16.802 54.2072 18.4297 52.998 19.5069L52.8524 19.6376L52.8374 19.6431C52.0369 20.5667 52.136 21.4055 52.3703 21.9542C52.7216 22.781 53.4969 23.4565 54.4993 23.8068C55.0729 24.0091 55.6961 24.0789 56.1512 24.1303C56.4946 24.1685 56.8174 24.2053 56.8548 24.28C56.9645 24.5045 56.6481 24.8703 55.9654 25.3111ZM56.1091 38.4154C55.7463 40.5709 54.5065 41.4858 53.4673 41.6234C53.3836 41.6338 53.3019 41.6399 53.2243 41.6399C52.919 41.6399 52.6794 41.5567 52.6188 41.4174C52.5934 41.3607 52.5896 41.3124 52.606 41.2727C52.6403 41.1885 52.7542 41.1463 52.9285 41.0835C53.1356 41.008 53.4182 40.9036 53.7158 40.6692C54.6002 39.9757 54.5539 39.6594 54.5202 39.4292C54.5159 39.4021 54.5071 39.385 54.4915 39.3762C54.437 39.3473 54.3031 39.4156 54.1472 39.497L54.0785 39.5321C53.8773 39.6331 53.684 39.651 53.5462 39.5823C53.4628 39.5396 53.4087 39.4675 53.3889 39.3741C53.3687 39.2707 53.4838 39.1697 53.6293 39.0407C53.7445 38.9389 53.8744 38.8238 53.9616 38.6871C54.4095 37.9784 54.4965 37.1394 54.1444 36.4684C53.8838 35.9716 53.5178 35.5065 52.4297 35.3952C52.4088 35.3924 52.384 35.3939 52.3614 35.3933C52.3627 35.3917 52.3647 35.3884 52.3647 35.3884C52.349 35.3891 52.3351 35.3913 52.3201 35.3924C52.1828 35.3913 52.0321 35.411 51.8732 35.4475C50.6687 35.6731 49.8532 36.4798 49.3133 37.3406C49.3057 37.3525 49.298 37.3657 49.2902 37.3782C48.5492 38.4652 48.3652 40.1282 48.3206 40.4556L48.3217 40.4649C48.0826 41.9906 47.5783 44.2345 44.3672 48.1976C44.0029 48.647 43.7049 49.2989 43.8938 50.03C44.2248 51.3001 45.4581 51.4115 45.4494 51.5432C45.4381 51.7192 45.1805 51.7351 44.7269 51.7017C44.2741 51.6683 44.1089 51.5224 44.1089 51.5224C44.1089 51.5224 43.9915 51.8117 44.7423 52.3548C45.322 52.773 45.9729 52.7499 45.9893 52.933C46.0097 53.1511 42.4305 53.9752 42.209 50.3984C42.2034 50.3148 42.2001 50.2334 42.1968 50.1546C38.3432 53.6554 37.2077 53.8363 36.9326 53.4627C36.8032 53.2837 37.1764 53.3227 37.9108 52.492C38.6638 51.6416 38.6855 51.2634 38.6855 51.2634C38.6855 51.2634 37.1818 52.0711 35.4428 51.9128C33.6644 51.7531 32.1666 50.5088 32.2868 50.0234C32.3894 49.6077 33.446 50.3206 34.7255 50.1191C35.9012 49.9343 36.012 49.4699 36.012 49.4699C36.012 49.4699 35.7834 49.4672 35.3915 49.0689C34.9994 48.6705 34.4314 48.3404 34.7525 48.0009C34.9364 47.8085 35.8258 48.2092 36.708 48.2103C37.8209 48.2109 38.5268 47.9621 38.5268 47.9621C38.5268 47.9621 38.0682 47.7983 37.5935 47.3375C37.114 46.8763 37.0149 46.3997 37.1592 46.2791C37.2384 46.2127 37.4309 46.586 38.0485 46.5724C38.7718 46.5555 38.8602 46.3948 38.8602 46.3948C38.8602 46.3948 38.5494 46.1178 38.4129 45.8444C38.2727 45.5691 37.843 44.7608 38.1169 44.4503C38.2021 44.3498 39.0243 45.3591 40.2342 45.4706C42.316 45.6576 44.6069 44.0115 44.6069 44.0115C44.6069 44.0115 43.4829 45.385 41.0799 47.4325C39.5432 48.7438 37.612 49.8067 37.7218 50.0552C37.8544 50.3574 39.3747 50.0109 41.9919 47.8315C42.8311 47.1314 43.366 46.674 44.5115 45.2799C46.5365 42.8137 46.9915 40.1003 46.5892 37.9286L46.5844 37.9302C46.424 37.0793 46.1975 36.305 45.9254 35.6617C44.8025 33.2501 43.5808 32.0719 41.5622 31.302C39.7616 30.6138 38.3742 31.2412 37.5448 31.6161C37.1177 31.809 36.8363 31.9357 36.72 31.7746C36.347 31.2592 37.093 30.5549 37.7515 29.9334C38.5896 29.142 39.1493 28.8307 39.2935 28.7568C39.1498 28.6848 38.5957 28.4208 38.0754 28.3876C37.8081 28.3699 37.5014 28.4159 37.2308 28.4568C36.805 28.5208 36.4689 28.5715 36.4292 28.3646C36.3433 27.9421 38.0584 27.1966 38.995 26.8917C39.9422 26.5836 40.701 26.548 40.836 26.5447C40.8138 26.3424 40.6623 24.7786 40.8354 22.488C40.9275 21.2842 41.1483 20.448 41.3174 19.9583C41.5296 19.3446 41.7843 18.9178 42.0162 18.7867C42.1088 18.7343 42.1936 18.731 42.2692 18.7747C42.4244 18.8664 42.4216 19.1768 42.4162 19.6475C42.4122 19.9342 42.4079 20.2906 42.442 20.6788C42.5438 21.8252 42.9213 22.4645 43.1347 22.5979C43.1726 22.6209 43.2041 22.6286 43.225 22.6186C43.308 22.5804 43.3308 22.4401 43.3649 22.2281C43.409 21.9526 43.469 21.575 43.6966 21.1092C44.0746 20.3327 44.8003 19.4021 45.0555 19.4765C45.1188 19.4956 45.1463 19.5703 45.1374 19.7C45.1127 20.0654 45.0592 20.3847 45.002 20.7223C44.8857 21.4191 44.7529 22.2077 44.8251 23.6757C44.9309 25.8266 45.9414 26.1163 46.0647 26.1429C46.1282 26.0322 46.6235 25.1835 47.3232 24.4439C47.4727 24.2859 47.6164 24.1259 47.7553 23.9712C48.1991 23.4756 48.553 23.081 48.8014 23.081C48.8086 23.081 48.8159 23.0816 48.8225 23.0821C48.8925 23.0887 48.9507 23.1297 48.9966 23.2023C49.0842 23.3428 48.9403 23.6893 48.7029 24.2624C48.3789 25.0451 47.8879 26.2271 47.6787 27.6936C47.278 30.481 47.6835 33.1818 47.6881 33.2086L47.7172 33.4037L47.6516 33.2189C47.6488 33.2125 47.4075 32.5583 46.4179 31.1139C45.974 30.4647 45.6245 30.0848 45.2868 29.7176C44.8592 29.2535 44.456 28.8149 43.8977 27.8857C43.2504 26.8109 43.0926 26.0074 42.9887 25.4757C42.9004 25.0266 42.8565 24.8016 42.5959 24.7773C42.567 24.7736 42.5433 24.7916 42.5203 24.8282C42.2994 25.1816 42.421 27.1261 43.0196 28.2897C43.3417 28.9142 43.7248 29.4049 44.1678 29.9733C44.6212 30.5554 45.1342 31.2143 45.7534 32.2122C46.8787 34.0261 47.4395 35.3689 47.7133 36.1765C47.78 36.3732 47.8324 36.5472 47.8742 36.7011C48.012 36.4357 48.2363 36.1164 48.2947 36.0536C50.287 33.8753 52.0165 33.7255 53.2122 34.013L53.2293 34.0169C54.0959 34.194 54.8603 34.6938 55.3979 35.4508C56.0112 36.3153 56.2779 37.4236 56.1091 38.4154ZM52.2006 35.8831C52.216 35.882 52.2302 35.8792 52.2458 35.8787C52.2458 35.8787 52.2434 35.8825 52.2425 35.8842C52.2291 35.8836 52.2149 35.8831 52.2006 35.8831ZM55.6817 49.3698C55.6778 49.3814 55.6713 49.4027 55.6635 49.4317C55.2333 50.9618 54.2761 52.0199 52.9676 52.4095C52.5592 52.5313 52.1828 52.586 51.828 52.586C50.9547 52.586 50.2075 52.2526 49.4213 51.7576C49.3674 51.7476 48.9266 51.6754 48.4838 51.9203C48.2554 52.0456 48.0924 52.2056 47.9741 52.3232C47.8672 52.4292 47.8031 52.4936 47.7426 52.4729C47.7172 52.4657 47.6957 52.4407 47.6787 52.3979C47.6151 52.2341 47.6175 51.7827 47.8983 51.2711C48.0743 50.9546 48.2721 50.7553 48.3349 50.6961C48.245 50.4933 47.6824 49.1027 48.408 47.567C48.8981 46.5315 50.1796 45.9736 51.1493 46.3735C52.1312 46.7778 52.4353 47.52 52.3971 48.0327C52.3664 48.4572 52.2188 48.7989 52.0022 48.9453C51.8991 49.0153 51.7883 49.0344 51.6904 48.9989C51.5676 48.9536 51.5609 48.8163 51.5526 48.6409C51.5383 48.3495 51.5183 47.9507 50.9795 47.6599C50.708 47.5133 50.3922 47.4953 50.114 47.609C49.9095 47.6921 49.6351 47.8852 49.4819 48.3299C49.2794 48.9212 49.3033 49.4841 49.553 49.9578C49.8599 50.5389 50.5002 50.9717 51.357 51.1754C52.6194 51.4756 53.9379 50.5433 54.3611 49.0529C54.4867 48.6091 54.5515 48.0819 54.3869 47.5326C54.0563 46.4347 53.2926 45.4241 51.4596 44.5466C50.828 44.2444 49.5399 43.6804 49.0298 43.4519C49.3091 42.6535 49.3437 42.3978 49.4361 42.1223C49.6028 41.853 50.0786 41.4169 50.5291 41.3109C51.0584 41.1861 51.6722 41.4487 51.6524 41.5475C51.6352 41.6414 50.946 41.8087 50.5546 42.7048C50.7095 42.7684 52.0043 43.1213 53.1196 43.8362C54.9929 45.0361 55.5031 46.3167 55.6602 46.8713C55.9308 47.8157 55.8854 48.6774 55.6817 49.3698ZM37.5477 19.9414C36.4229 18.9085 35.5019 18.6331 35.5019 18.6331V16.6877C36.0336 16.9478 37.2808 17.6025 37.9995 18.1933C38.7036 18.772 39.2397 19.3519 39.6755 19.8339L39.3713 21.8054C38.8711 21.2448 38.2021 20.5421 37.5477 19.9414ZM36.1138 23.4903C35.7862 21.2589 35.9244 20.2081 35.9244 20.2081C36.4268 20.383 37.2808 21.2212 37.5785 21.5367C37.5785 21.5367 37.5168 21.83 37.7317 23.2144C37.8909 24.2483 38.2021 25.209 38.3186 25.6036L36.7415 26.3349C36.5917 25.825 36.2903 24.6976 36.1138 23.4903ZM37.3175 36.9089C37.5003 38.3893 38.7444 39.8042 40.5087 39.608C41.2646 39.5248 41.795 39.1835 42.161 38.8017L42.0404 38.7056L42.0691 38.6735C41.8326 38.4582 41.009 37.6898 40.3341 36.8383C39.6779 36.0087 39.3552 35.5552 39.2954 35.4694L39.1037 35.2043C39.1202 35.1907 39.3361 35.0305 39.9929 35.0574C40.7115 35.0851 41.41 35.6404 41.6072 35.8098L41.6117 35.8125C41.6146 35.8164 41.9434 36.182 43.0233 37.2991C44.3011 38.6221 45.2294 39.2538 45.3733 39.3488C45.377 39.7309 45.2668 40.4736 45.1287 40.9929L45.122 40.9894C44.5352 40.678 43.7644 40.0391 43.3941 39.7325C43.3417 39.6888 43.2999 39.6539 43.2641 39.6249C42.8002 40.1852 42.1004 40.7495 41.0645 41.0284C40.821 41.0884 40.5654 41.12 40.3015 41.113C38.0084 41.05 36.482 39.3664 36.1062 37.705C35.964 37.0805 36.0181 36.3021 36.044 35.7652C36.0675 35.2901 36.0875 34.8786 35.9838 34.5737C35.8638 34.2272 35.6958 33.9992 35.585 33.849C35.4776 33.7037 35.4065 33.608 35.4758 33.5249C35.5971 33.3802 35.9949 33.4671 36.3652 33.7174C36.6028 33.8758 36.7022 34.0512 36.7421 34.1502C36.9619 33.8222 38.0297 32.3867 39.854 32.3195C40.4767 32.2969 41.0321 32.4314 41.4624 32.7102C41.8095 32.9343 42.0597 33.2435 42.1493 33.5584C42.2218 33.8141 42.2221 34.0125 42.0477 34.1005C41.9593 34.1436 41.7628 34.0589 41.4981 33.9305C41.1142 33.7424 40.5074 33.5387 39.7923 33.6223C39.2243 33.6895 38.4077 34.0792 37.8628 34.8005C37.4094 35.3989 37.2214 36.1285 37.3175 36.9089ZM23.8363 53.0515C21.5723 53.4373 17.2702 52.8346 17.2702 52.8346L15.0532 45.7177C15.0532 45.7177 17.355 47.8741 18.5666 48.8233C19.7794 49.7727 20.9094 50.2907 22.6246 50.2907C24.3399 50.2907 25.5086 49.859 26.7643 48.5213C28.0188 47.1851 28.4999 45.4587 28.8144 43.4306C29.0393 41.9682 28.9383 37.9095 28.9383 36.9601L29.2547 14.9155C29.2547 14.9155 29.4117 10.1583 29.0652 8.96145C28.7213 7.76299 28 6.89078 27.5605 6.43833C26.5939 5.44194 24.5486 5.11091 24.5486 5.11091C23.9535 5.0141 23.8302 4.72716 23.8744 4.44022C23.9376 4.01899 24.3084 3.95011 24.3084 3.95011L38.8192 3.9795C38.8192 3.9795 39.1802 4.01899 39.243 4.44022C39.2871 4.72716 39.1643 5.0141 38.5681 5.11091C38.5681 5.11091 36.523 5.44194 35.5569 6.43833C35.1178 6.89078 34.3965 7.76299 34.0506 8.96145C33.7066 10.1583 33.8631 14.9155 33.8631 14.9155V37.0132C33.8631 37.0132 33.9159 41.2736 33.3618 43.5175C32.9743 45.0848 32.0753 48.1545 29.6933 50.2907C27.5344 52.2221 25.8646 52.7056 23.8363 53.0515ZM13.4353 49.1584C12.643 50.8203 11.3239 52.2756 11.0826 52.0428C10.8788 51.8454 11.1406 51.6751 11.2689 51.1864C11.4023 50.6814 11.4369 50.581 11.4369 50.581C11.4369 50.581 11.0761 51.0859 9.81758 51.8657C8.56018 52.6461 8.32718 52.7045 8.12159 52.3957C7.98657 52.1948 8.30736 51.9817 8.60815 51.4576C8.898 50.9482 8.8141 50.9772 8.8141 50.9772C8.8141 50.9772 7.74024 50.8782 6.86493 50.4919C5.98499 50.1033 5.05818 49.2054 5.08615 49.0201C5.1219 48.7785 5.48362 48.6497 6.15019 48.3196C6.85326 47.9742 7.34518 47.519 7.34518 47.519C7.34518 47.519 6.87086 47.4042 6.61082 47.2839C6.18705 47.0839 5.76236 46.8779 6.02833 46.6233C6.25984 46.4014 7.39593 47.1605 9.12433 45.5441C10.6518 44.1149 10.6583 42.0071 10.6583 42.0071C10.6583 42.0071 11.4043 44.4575 10.4169 46.4133C9.20379 48.8169 6.93864 48.8318 7.18423 49.3333C7.49021 49.9558 10.2684 49.3933 11.4639 46.5162C12.465 44.1079 11.4137 41.0469 10.6501 39.2375C10.4317 38.7194 10.1415 38.0171 9.95519 37.4745C10.6518 37.7844 11.2106 37.9411 11.7814 38.0067L11.7845 37.9991C11.7862 38.0024 11.7879 38.0052 11.7894 38.008C11.8034 38.0089 11.8847 38.163 11.8847 38.163C12.5587 39.2297 13.6044 39.6069 14.1538 39.8139C14.6818 40.0123 15.248 40.1102 15.8133 40.1086C16.3043 40.1069 16.803 40.0342 17.267 39.86C17.562 39.7483 17.858 39.5933 18.079 39.3582C18.7452 38.6482 18.9209 36.4296 19.2217 36.2672C19.3612 36.1912 19.6999 36.7334 19.8311 37.1444C19.9613 37.5559 19.8968 37.964 20.1483 38.0609C20.3293 38.1281 20.441 37.9269 20.8231 37.4861C21.358 36.8602 21.2804 36.6094 21.551 36.7099C21.8191 36.8121 21.5321 38.1815 21.402 38.9231C21.2698 39.6703 20.9062 40.7545 20.9062 40.7545C20.9062 40.7545 21.8032 40.1753 22.6374 39.8042C24.9698 38.7631 25.8855 39.0866 25.9009 39.3681C25.9168 39.6501 25.3686 39.7009 24.7603 40.4124C24.3195 40.9277 24.4293 41.0599 24.4293 41.0599C24.4293 41.0599 24.779 41.0699 25.7538 40.7906C26.4469 40.5917 27.0436 40.2763 27.2436 40.5632C27.4413 40.8507 26.5358 42.0589 25.142 43.0164C23.7448 43.9766 22.6098 44.334 22.6098 44.334C22.6098 44.334 22.8782 44.6155 23.5668 44.7367C24.2545 44.8576 24.5327 44.7542 24.5955 44.9537C24.6744 45.2226 23.9119 45.4498 22.6043 45.5843C20.7551 45.7744 19.7959 44.9711 19.7959 44.9711C19.7959 44.9711 20.0339 45.6341 19.754 46.3123C19.4731 46.992 19.4086 47.6265 19.136 47.5874C18.8615 47.5462 19.1908 46.9073 18.672 46.2658C18.111 45.5773 17.4783 45.434 16.5252 44.7029C15.5973 43.9942 15.5682 43.4416 15.5682 43.4416C15.5682 43.4416 17.1853 44.0454 19.8368 43.6268C22.3846 43.2278 23.1673 42.4662 22.9795 42.189C22.8084 41.9349 22.3927 42.2639 21.1878 42.5318C19.7816 42.8464 17.883 42.7621 15.7788 42.4114C15.0315 42.2874 14.0308 41.9402 13.119 41.3408C13.4733 42.0371 14.0662 43.3033 14.1969 44.2018C14.4227 45.7564 14.2299 47.4942 13.4353 49.1584ZM11.7929 26.5217C11.8981 25.8327 12.2918 25.1096 12.5345 24.7927C13.4563 24.6226 14.0539 25.1337 14.1356 25.2123C13.6315 26.1795 13.3092 27.2453 13.0288 28.324C12.6924 28.1776 12.2055 27.7049 11.7929 26.5217ZM12.0236 33.761C11.5471 33.718 10.3349 32.907 10.2654 32.702C10.2573 32.2763 10.3745 31.3406 10.5344 30.7931C11.1383 31.8391 12.1394 32.2905 12.1394 32.2905C11.9703 32.9828 12.0236 33.761 12.0236 33.761ZM7.0531 24.4893C7.17553 24.1592 7.27925 23.9226 7.37111 23.7144C7.56688 23.2695 7.68505 23.0013 7.73209 22.3718C7.78877 21.6524 7.55966 21.1017 7.42075 20.9585C7.59911 20.9802 8.17179 21.2218 8.39478 21.6869C8.58444 22.0782 8.85707 23.0816 8.81818 23.2429C8.80873 23.2816 8.82966 23.3002 8.83892 23.3061C8.87707 23.3309 8.90782 23.3084 9.03784 23.2116C9.42641 22.9221 10.6086 22.0405 12.6887 22.0323H12.7147C16.551 22.0323 18.2344 25.556 18.2516 25.5917L18.2597 25.6108L18.2801 25.6163C18.301 25.6221 18.8069 25.761 19.8244 25.3249C20.223 25.1544 20.4647 24.9434 20.6979 24.7391C21.0829 24.4035 21.4159 24.1129 22.3564 24.0844C23.2984 24.0506 24.0028 24.5817 24.1295 24.9566C24.1593 25.044 24.1702 25.1658 24.055 25.2467C23.9145 25.3451 23.8887 25.3332 23.8039 25.292C23.6739 25.2309 23.4568 25.1276 22.7524 25.2391C22.1686 25.3299 21.894 25.8659 21.6043 26.4337C21.2913 27.0464 20.9679 27.6801 20.2272 27.8776C19.5525 28.0589 18.7546 27.5993 18.6124 27.3638C18.5722 27.2988 18.5111 27.2157 18.4338 27.2288C18.3583 27.2437 18.3386 27.3464 18.3346 27.3726C18.3346 27.378 18.3127 27.9601 17.9484 28.9706C17.6108 29.9029 16.0661 32.1446 13.0166 31.3264C11.1543 30.828 10.4269 29.0941 10.5051 28.0218C10.5312 27.6688 10.6468 27.4377 10.8066 27.4191C10.9437 27.4028 11.0572 27.5016 11.0926 27.6037C11.2315 28.0091 11.3745 28.4017 11.5923 28.7416C11.8953 29.217 12.4561 29.7762 13.119 29.9198C14.6294 30.2488 15.5623 29.4815 15.734 29.3241C16.3119 28.795 16.6273 27.9109 16.5765 26.9584C16.5115 25.7458 15.8614 24.9693 15.3269 24.531C14.6498 23.9751 13.772 23.6494 12.9184 23.6367C12.8965 23.6367 12.8743 23.6363 12.8525 23.6363C11.7438 23.6363 10.6108 24.0811 9.73442 24.8622C8.63074 25.8452 7.97713 27.3124 7.84507 29.1055C7.73209 30.6379 8.36404 32.3456 9.4942 33.5617C10.3758 34.5103 11.4654 35.0383 12.5635 35.0474C12.5841 35.048 12.6045 35.048 12.6243 35.048C15.516 35.0474 17.3846 33.278 19.3621 31.4052C21.2124 29.6525 23.126 27.8405 26.1196 27.0196C26.3405 26.9595 27.3709 26.8634 27.5924 26.854L27.5396 28.4732C25.8584 28.7836 23.5222 29.8553 23.6385 31.0093C23.7531 32.1532 24.4918 32.7648 24.8468 33.0583C24.9261 33.1239 25.0078 33.1915 25.0161 33.2058C25.0122 33.2147 24.9779 33.2457 24.8722 33.2841C24.5464 33.4015 23.8131 33.4878 23.2303 33.2178C22.4578 32.8616 21.6945 31.6073 21.6869 31.5948L21.6562 31.5439L21.6147 31.5867C21.5915 31.6106 19.2995 33.9851 18.0543 34.8896C17.2481 35.4749 15.1091 37.0307 12.5802 36.9177C10.8351 36.8405 9.21879 36.0503 8.02732 34.6923C6.77769 33.2676 6.10445 31.3045 6.13204 29.1646C6.15668 27.2279 6.37263 26.3413 7.0531 24.4893ZM12.6352 4.00632C12.6536 4.00467 14.4408 3.85054 16.1396 4.52987C16.8855 4.82875 17.4233 5.20533 17.8973 5.53764L17.9084 5.54518C18.6092 6.03657 19.1628 6.424 19.9529 6.18243C20.8527 5.90817 21.0277 5.21194 21.1452 4.74682C21.1735 4.63751 21.2246 4.43324 21.2643 4.41505C21.305 4.40091 21.4643 4.46098 21.6074 4.67627C21.7734 4.925 22.2214 5.8672 21.0329 7.56349C20.3739 8.50073 19.3129 8.69417 19.2686 8.7017C19.224 8.70886 19.1836 8.73568 19.158 8.7761C19.1336 8.81486 19.1265 8.86299 19.1386 8.90616C19.2008 9.14331 19.213 9.3182 19.2258 9.49363C19.2686 10.0844 19.2153 10.6418 18.8174 11.5928C18.2142 13.0387 16.9981 13.9394 15.3936 14.1278C13.838 14.3093 12.5765 13.4436 12.1305 12.4935C11.7201 11.615 11.6969 10.585 12.0683 9.66741C12.1598 9.43962 12.3168 9.25592 12.4491 9.22157C12.5085 9.20724 12.5582 9.22102 12.6121 9.26584C12.7412 9.37459 12.7504 9.63949 12.7625 9.98172C12.7758 10.3276 12.7919 10.7588 12.9499 11.2217C13.1907 11.9293 13.9704 12.5993 14.9957 12.501C16.5308 12.359 17.4665 11.2796 17.4989 9.6134C17.5319 7.86017 16.4019 5.78564 13.1058 5.70867C13.0627 5.70757 13.0205 5.70702 12.9779 5.70702C11.7299 5.70702 10.5895 6.18464 9.67923 7.08863C8.61315 8.14711 7.93601 9.75595 7.91175 11.2873C7.86359 14.2761 9.42641 16.0148 10.7461 16.9484C12.0764 17.8871 14.1632 17.9484 16.778 17.1247C17.6674 16.8451 18.6294 16.4483 19.5601 16.0646L19.5431 16.0225L19.571 16.0598C20.3573 15.7356 21.1707 15.4001 21.9469 15.1323C22.4048 14.9732 22.8919 14.847 23.394 14.7563L23.4683 14.7432L23.4214 14.6843C23.216 14.4236 22.9597 14.07 22.6352 13.6228C21.964 12.695 21.7695 10.9724 21.9905 10.6118C22.087 10.4538 22.1961 10.432 22.2379 10.4303C22.2781 10.4266 22.3024 10.4408 22.3051 10.4408C22.3068 10.4538 22.3096 10.5457 22.3079 10.5609C22.3013 10.6467 22.3122 11.0402 22.4946 11.2502C22.7326 11.5244 23.0571 11.5742 23.191 11.5042C23.2418 11.4774 23.2758 11.4414 23.2908 11.3938C23.3338 11.2502 23.569 10.502 23.9795 9.90898C24.3223 9.41501 25.383 8.64438 25.9946 8.64438C26.0122 8.64438 26.0287 8.64493 26.0446 8.64604C26.2116 8.65871 26.3252 8.73072 26.3922 8.8674C26.4752 9.03787 26.2111 9.31287 26.1246 9.40343C25.5791 9.97015 24.9472 10.7992 24.8959 12.1955C24.8716 12.848 25.0602 13.3895 25.4541 13.8043C26.2029 14.593 27.4716 14.683 27.723 14.6918V16.1236C27.6833 16.121 27.6441 16.1199 27.605 16.1199C26.3346 16.1199 25.3343 17.6347 24.9878 19.1926C24.707 20.4567 24.9537 22.2514 25.063 22.7805C25.1635 23.2728 25.0739 23.3794 25.0441 23.3996C25.0279 23.4106 25.0055 23.4199 24.9592 23.4111C24.6909 23.3525 24.2045 22.7979 23.6568 21.9268C23.2534 21.2846 23.3696 20.4896 23.432 20.0628C23.4675 19.8213 23.482 19.7211 23.3905 19.6539L23.3729 19.6409C23.3168 19.5971 23.2392 19.5468 23.1416 19.5435C23.1377 19.5431 23.1336 19.5431 23.1293 19.5431C23.0054 19.5431 22.8754 19.6196 22.7311 19.7753C22.6169 19.901 22.5515 19.9998 22.5079 20.0648C22.4661 20.1272 22.388 20.138 22.2737 20.0972C22.2666 20.0944 22.255 20.0896 22.244 20.0573C22.1344 19.7463 22.4831 18.6419 22.9354 17.8691C23.297 17.2489 23.682 16.8034 24.223 16.3789L24.3806 16.2555L24.1845 16.2997C22.3531 16.7127 20.5104 17.4396 19.376 18.1964C17.928 19.1621 16.7556 20.311 15.8927 21.6111C15.7334 21.5148 15.5958 21.4409 15.2165 21.2694C14.9826 21.1628 14.6294 21.0491 14.3614 21.0175C14.7235 20.5397 15.3313 19.8863 15.5836 19.619L15.6056 19.5944C15.6399 19.5365 15.6342 19.461 15.5914 19.4059C15.5468 19.3519 15.4729 19.3321 15.4078 19.3572C15.3401 19.3846 13.7087 20.0064 10.8203 18.9327C8.48146 18.0636 6.03277 15.5488 6.17501 11.096C6.32152 6.58143 9.52495 4.28224 12.6352 4.00632ZM2.56152 56.7623H59.716V0H2.56152V56.7623Z" fill="#990000"/>
<path d="M52.2012 35.8833C52.2156 35.8833 52.23 35.8838 52.2435 35.8844C52.2444 35.8827 52.2469 35.879 52.2469 35.879C52.2311 35.8793 52.2167 35.8823 52.2012 35.8833Z" fill="white"/>
</svg>
