<svg width="360" height="129" viewBox="0 0 360 129" fill="none" xmlns="http://www.w3.org/2000/svg">
<rect x="190.988" y="12.6666" width="16.1141" height="11.7193" fill="#CCCCCA"/>
<rect x="171.945" y="12.6666" width="16.1141" height="11.7193" fill="#CCCCCA"/>
<rect x="152.898" y="12.6666" width="16.1141" height="11.7193" fill="#CCCCCA"/>
<rect x="190.988" y="27.3158" width="16.1141" height="11.7193" fill="#CCCCCA"/>
<rect x="171.945" y="27.3158" width="16.1141" height="11.7193" fill="#CCCCCA"/>
<rect x="152.898" y="27.3158" width="16.1141" height="11.7193" fill="#CCCCCA"/>
<rect x="190.988" y="41.9649" width="16.1141" height="11.7193" fill="#CCCCCA"/>
<rect x="171.945" y="41.9649" width="16.1141" height="11.7193" fill="#CCCCCA"/>
<rect x="152.898" y="41.9649" width="16.1141" height="11.7193" fill="#CCCCCA"/>
<rect x="190.988" y="56.6141" width="16.1141" height="11.7193" fill="#CCCCCA"/>
<rect x="171.945" y="56.6141" width="16.1141" height="11.7193" fill="#CCCCCA"/>
<rect x="152.898" y="56.6141" width="16.1141" height="11.7193" fill="#CCCCCA"/>
<path d="M155.716 87.64L159.988 95.08C160.298 95.6027 160.532 96.088 160.692 96.536H160.724C160.703 95.9813 160.692 95.4907 160.692 95.064V87.64H162.564V99H160.244L155.908 91.528C155.599 90.984 155.37 90.5093 155.22 90.104H155.188C155.21 90.392 155.22 90.8933 155.22 91.608V99H153.348V87.64H155.716ZM168.18 99.192C167.412 99.192 166.729 99.0267 166.132 98.696C165.545 98.3653 165.086 97.8853 164.756 97.256C164.425 96.616 164.26 95.8587 164.26 94.984C164.26 94.1093 164.425 93.3573 164.756 92.728C165.086 92.0987 165.545 91.624 166.132 91.304C166.729 90.9733 167.412 90.808 168.18 90.808C168.948 90.808 169.625 90.9733 170.212 91.304C170.809 91.624 171.273 92.0987 171.604 92.728C171.934 93.3573 172.1 94.1093 172.1 94.984C172.1 95.8587 171.934 96.616 171.604 97.256C171.273 97.8853 170.809 98.3653 170.212 98.696C169.625 99.0267 168.948 99.192 168.18 99.192ZM168.18 97.736C168.798 97.736 169.278 97.5067 169.62 97.048C169.961 96.5787 170.132 95.8907 170.132 94.984C170.132 94.088 169.961 93.4107 169.62 92.952C169.289 92.4933 168.809 92.264 168.18 92.264C167.55 92.264 167.065 92.4933 166.724 92.952C166.382 93.4107 166.212 94.088 166.212 94.984C166.212 95.88 166.382 96.5627 166.724 97.032C167.065 97.5013 167.55 97.736 168.18 97.736ZM179.993 99.192C179.353 99.192 178.787 99.0213 178.297 98.68C177.806 98.328 177.427 97.8373 177.161 97.208C176.894 96.568 176.761 95.8373 176.761 95.016C176.761 94.184 176.899 93.4533 177.177 92.824C177.465 92.184 177.865 91.688 178.377 91.336C178.889 90.984 179.475 90.808 180.137 90.808C181.235 90.808 182.003 91.2507 182.441 92.136V87.4H184.361V99H182.553V97.56C182.329 98.072 181.993 98.472 181.545 98.76C181.107 99.048 180.59 99.192 179.993 99.192ZM180.649 97.72C181.214 97.72 181.662 97.5013 181.993 97.064C182.323 96.616 182.489 96.0187 182.489 95.272V94.76C182.489 93.9813 182.323 93.3733 181.993 92.936C181.662 92.4987 181.209 92.28 180.633 92.28C180.046 92.28 179.587 92.52 179.257 93C178.926 93.4693 178.761 94.1307 178.761 94.984C178.761 95.8373 178.926 96.5093 179.257 97C179.598 97.48 180.062 97.72 180.649 97.72ZM188.707 99.192C187.885 99.192 187.224 98.9787 186.723 98.552C186.221 98.1147 185.971 97.5387 185.971 96.824C185.971 96.44 186.051 96.0933 186.211 95.784C186.381 95.4747 186.627 95.2187 186.947 95.016C187.235 94.8453 187.581 94.7067 187.987 94.6C188.392 94.4827 188.915 94.3813 189.555 94.296L191.251 94.088V93.88C191.251 93.2827 191.128 92.8507 190.883 92.584C190.648 92.3067 190.275 92.168 189.763 92.168C189.293 92.168 188.92 92.2907 188.643 92.536C188.376 92.7707 188.227 93.1173 188.195 93.576H186.227C186.291 92.7227 186.637 92.0507 187.267 91.56C187.896 91.0587 188.728 90.808 189.763 90.808C190.947 90.808 191.811 91.0747 192.355 91.608C192.909 92.1307 193.187 92.9733 193.187 94.136V96.52C193.187 97.608 193.267 98.4347 193.427 99H191.507C191.432 98.5627 191.389 98.104 191.379 97.624C191.187 98.1147 190.851 98.4987 190.371 98.776C189.901 99.0533 189.347 99.192 188.707 99.192ZM189.315 97.832C189.912 97.832 190.392 97.64 190.755 97.256C191.117 96.8613 191.299 96.3493 191.299 95.72V95.208L189.491 95.48C188.957 95.5653 188.568 95.7093 188.323 95.912C188.077 96.1147 187.955 96.3867 187.955 96.728C187.955 97.0693 188.072 97.3413 188.307 97.544C188.552 97.736 188.888 97.832 189.315 97.832ZM195.488 91V88.984L197.408 88.216V91H199.36V92.392H197.408V96.216C197.408 96.6427 197.504 96.9627 197.696 97.176C197.888 97.3787 198.181 97.48 198.576 97.48C198.757 97.48 199.018 97.448 199.36 97.384V99C198.89 99.096 198.453 99.144 198.048 99.144C197.13 99.144 196.474 98.92 196.08 98.472C195.685 98.024 195.488 97.3733 195.488 96.52V92.392H194.048V91H195.488ZM202.817 99.192C201.995 99.192 201.334 98.9787 200.833 98.552C200.331 98.1147 200.081 97.5387 200.081 96.824C200.081 96.44 200.161 96.0933 200.321 95.784C200.491 95.4747 200.737 95.2187 201.057 95.016C201.345 94.8453 201.691 94.7067 202.097 94.6C202.502 94.4827 203.025 94.3813 203.665 94.296L205.361 94.088V93.88C205.361 93.2827 205.238 92.8507 204.993 92.584C204.758 92.3067 204.385 92.168 203.873 92.168C203.403 92.168 203.03 92.2907 202.753 92.536C202.486 92.7707 202.337 93.1173 202.305 93.576H200.337C200.401 92.7227 200.747 92.0507 201.377 91.56C202.006 91.0587 202.838 90.808 203.873 90.808C205.057 90.808 205.921 91.0747 206.465 91.608C207.019 92.1307 207.297 92.9733 207.297 94.136V96.52C207.297 97.608 207.377 98.4347 207.537 99H205.617C205.542 98.5627 205.499 98.104 205.489 97.624C205.297 98.1147 204.961 98.4987 204.481 98.776C204.011 99.0533 203.457 99.192 202.817 99.192ZM203.425 97.832C204.022 97.832 204.502 97.64 204.865 97.256C205.227 96.8613 205.409 96.3493 205.409 95.72V95.208L203.601 95.48C203.067 95.5653 202.678 95.7093 202.433 95.912C202.187 96.1147 202.065 96.3867 202.065 96.728C202.065 97.0693 202.182 97.3413 202.417 97.544C202.662 97.736 202.998 97.832 203.425 97.832Z" fill="black"/>
<path d="M28.5212 123.272C27.1346 123.272 26.0519 122.941 25.2732 122.28C24.4946 121.608 24.0572 120.723 23.9612 119.624L25.4972 119.4C25.6146 120.168 25.9186 120.797 26.4092 121.288C26.9106 121.779 27.6306 122.024 28.5692 122.024C29.2732 122.024 29.8706 121.864 30.3612 121.544C30.8519 121.224 31.0972 120.733 31.0972 120.072C31.0972 119.443 30.9212 118.984 30.5692 118.696C30.2172 118.397 29.6732 118.173 28.9372 118.024L27.2892 117.688C25.3906 117.293 24.4412 116.248 24.4412 114.552C24.4412 113.923 24.6012 113.368 24.9212 112.888C25.2519 112.408 25.7106 112.035 26.2972 111.768C26.8946 111.501 27.5932 111.368 28.3932 111.368C29.5772 111.368 30.5479 111.64 31.3052 112.184C32.0626 112.728 32.4946 113.533 32.6012 114.6L31.0812 114.92C30.8786 113.352 29.9719 112.568 28.3612 112.568C27.6572 112.568 27.0866 112.733 26.6492 113.064C26.2226 113.395 26.0092 113.843 26.0092 114.408C26.0092 114.952 26.1586 115.379 26.4572 115.688C26.7559 115.997 27.2252 116.221 27.8652 116.36L29.5292 116.712C30.5212 116.915 31.2892 117.261 31.8332 117.752C32.3879 118.243 32.6652 118.968 32.6652 119.928C32.6652 120.536 32.5106 121.096 32.2012 121.608C31.9026 122.109 31.4386 122.515 30.8092 122.824C30.1906 123.123 29.4279 123.272 28.5212 123.272ZM40.7494 119.4H35.0694C35.08 120.179 35.2987 120.808 35.7254 121.288C36.1627 121.757 36.7387 121.992 37.4534 121.992C37.9654 121.992 38.4027 121.864 38.7654 121.608C39.128 121.341 39.4 120.963 39.5814 120.472L40.7014 120.968C40.424 121.693 39.9974 122.248 39.4214 122.632C38.856 123.005 38.168 123.192 37.3574 123.192C36.2054 123.192 35.3094 122.84 34.6694 122.136C34.0294 121.421 33.7094 120.408 33.7094 119.096C33.7094 117.752 34.0294 116.701 34.6694 115.944C35.3094 115.187 36.2 114.808 37.3414 114.808C38.4294 114.808 39.2667 115.117 39.8534 115.736C40.4507 116.355 40.7494 117.256 40.7494 118.44V119.4ZM39.3734 118.12C39.3734 117.395 39.192 116.84 38.8294 116.456C38.4774 116.072 37.9707 115.88 37.3094 115.88C36.616 115.88 36.072 116.093 35.6774 116.52C35.2934 116.947 35.0907 117.539 35.0694 118.296H39.3734V118.12ZM44.1119 123H42.7519V111.4H44.1119V123ZM53.0781 119.4H47.3981C47.4088 120.179 47.6275 120.808 48.0541 121.288C48.4915 121.757 49.0675 121.992 49.7821 121.992C50.2941 121.992 50.7315 121.864 51.0941 121.608C51.4568 121.341 51.7288 120.963 51.9101 120.472L53.0301 120.968C52.7528 121.693 52.3261 122.248 51.7501 122.632C51.1848 123.005 50.4968 123.192 49.6861 123.192C48.5341 123.192 47.6381 122.84 46.9981 122.136C46.3581 121.421 46.0381 120.408 46.0381 119.096C46.0381 117.752 46.3581 116.701 46.9981 115.944C47.6381 115.187 48.5288 114.808 49.6701 114.808C50.7581 114.808 51.5955 115.117 52.1821 115.736C52.7795 116.355 53.0781 117.256 53.0781 118.44V119.4ZM51.7021 118.12C51.7021 117.395 51.5208 116.84 51.1581 116.456C50.8061 116.072 50.2995 115.88 49.6381 115.88C48.9448 115.88 48.4008 116.093 48.0061 116.52C47.6221 116.947 47.4195 117.539 47.3981 118.296H51.7021V118.12ZM57.9606 123.192C57.2246 123.192 56.5793 123.021 56.0246 122.68C55.47 122.339 55.038 121.853 54.7286 121.224C54.43 120.584 54.2806 119.843 54.2806 119C54.2806 117.699 54.606 116.675 55.2566 115.928C55.918 115.181 56.8193 114.808 57.9606 114.808C58.8993 114.808 59.6566 115.064 60.2326 115.576C60.8086 116.088 61.15 116.803 61.2566 117.72L59.8646 117.88C59.79 117.272 59.582 116.808 59.2406 116.488C58.91 116.157 58.4726 115.992 57.9286 115.992C57.2353 115.992 56.6913 116.259 56.2966 116.792C55.9126 117.315 55.7206 118.045 55.7206 118.984C55.7206 119.944 55.918 120.691 56.3126 121.224C56.7073 121.747 57.262 122.008 57.9766 122.008C58.5206 122.008 58.958 121.848 59.2886 121.528C59.6193 121.208 59.838 120.733 59.9446 120.104L61.2406 120.312C61.0913 121.229 60.7286 121.939 60.1526 122.44C59.5873 122.941 58.8566 123.192 57.9606 123.192ZM63.3905 115V112.904L64.7505 112.328V115H66.7505V116.12H64.7505V120.552C64.7505 121.011 64.8412 121.347 65.0225 121.56C65.2145 121.763 65.5132 121.864 65.9185 121.864C66.1532 121.864 66.4305 121.827 66.7505 121.752V123C66.3985 123.096 66.0038 123.144 65.5665 123.144C64.7558 123.144 64.1905 122.925 63.8705 122.488C63.5505 122.051 63.3905 121.421 63.3905 120.6V116.12H61.9025V115H63.3905ZM74.2434 123.192C73.422 123.192 72.766 122.979 72.2754 122.552C71.7847 122.125 71.5394 121.555 71.5394 120.84C71.5394 120.435 71.6354 120.072 71.8274 119.752C72.0194 119.421 72.2967 119.155 72.6594 118.952C72.9687 118.803 73.3314 118.675 73.7474 118.568C74.1634 118.461 74.6967 118.371 75.3474 118.296L76.8354 118.12V117.992C76.8354 117.256 76.6967 116.728 76.4194 116.408C76.142 116.088 75.694 115.928 75.0754 115.928C74.5314 115.928 74.0994 116.067 73.7794 116.344C73.4594 116.621 73.2834 117.011 73.2514 117.512H71.7954C71.8487 116.691 72.1687 116.035 72.7554 115.544C73.3527 115.053 74.1207 114.808 75.0594 114.808C76.158 114.808 76.958 115.075 77.4594 115.608C77.9607 116.131 78.2114 116.973 78.2114 118.136V120.296C78.2114 121.512 78.302 122.413 78.4834 123H77.0594C76.9954 122.552 76.9527 122.067 76.9314 121.544C76.75 122.056 76.4194 122.461 75.9394 122.76C75.4594 123.048 74.894 123.192 74.2434 123.192ZM74.5474 122.072C75.2407 122.072 75.7954 121.843 76.2114 121.384C76.638 120.915 76.8514 120.291 76.8514 119.512V119.112L74.6754 119.432C74.0887 119.517 73.6567 119.672 73.3794 119.896C73.1127 120.109 72.9794 120.413 72.9794 120.808C72.9794 121.203 73.118 121.512 73.3954 121.736C73.6727 121.96 74.0567 122.072 74.5474 122.072ZM81.8444 115V116.584C82.367 115.4 83.2577 114.808 84.5164 114.808C85.4017 114.808 86.0684 115.08 86.5164 115.624C86.9644 116.157 87.1884 116.957 87.1884 118.024V123H85.8284V118.104C85.8284 116.685 85.2417 115.976 84.0684 115.976C83.407 115.976 82.8844 116.232 82.5004 116.744C82.1164 117.245 81.9244 117.939 81.9244 118.824V123H80.5644V115H81.8444ZM92.518 123.192C91.7713 123.192 91.1153 123.027 90.55 122.696C89.9847 122.355 89.5473 121.869 89.238 121.24C88.9393 120.611 88.79 119.864 88.79 119C88.79 118.136 88.9393 117.389 89.238 116.76C89.5473 116.131 89.9847 115.651 90.55 115.32C91.1153 114.979 91.7713 114.808 92.518 114.808C93.2647 114.808 93.9207 114.979 94.486 115.32C95.0513 115.651 95.4833 116.131 95.782 116.76C96.0913 117.389 96.246 118.136 96.246 119C96.246 119.864 96.0913 120.611 95.782 121.24C95.4833 121.869 95.0513 122.355 94.486 122.696C93.9207 123.027 93.2647 123.192 92.518 123.192ZM92.518 122.008C93.2433 122.008 93.8033 121.752 94.198 121.24C94.6033 120.728 94.806 119.981 94.806 119C94.806 118.019 94.6033 117.272 94.198 116.76C93.8033 116.248 93.2433 115.992 92.518 115.992C91.7927 115.992 91.2273 116.248 90.822 116.76C90.4273 117.272 90.23 118.019 90.23 119C90.23 119.981 90.4273 120.728 90.822 121.24C91.2273 121.752 91.7927 122.008 92.518 122.008ZM98.3686 115V112.904L99.7286 112.328V115H101.729V116.12H99.7286V120.552C99.7286 121.011 99.8193 121.347 100.001 121.56C100.193 121.763 100.491 121.864 100.897 121.864C101.131 121.864 101.409 121.827 101.729 121.752V123C101.377 123.096 100.982 123.144 100.545 123.144C99.734 123.144 99.1686 122.925 98.8486 122.488C98.5286 122.051 98.3686 121.421 98.3686 120.6V116.12H96.8806V115H98.3686ZM104.841 111.4V116.504C105.321 115.373 106.196 114.808 107.465 114.808C108.329 114.808 108.985 115.08 109.433 115.624C109.881 116.168 110.105 116.968 110.105 118.024V123H108.745V118.12C108.745 117.416 108.596 116.883 108.297 116.52C108.009 116.157 107.577 115.976 107.001 115.976C106.319 115.976 105.785 116.227 105.401 116.728C105.028 117.219 104.841 117.917 104.841 118.824V123H103.481V111.4H104.841ZM118.745 119.4H113.065C113.076 120.179 113.294 120.808 113.721 121.288C114.158 121.757 114.734 121.992 115.449 121.992C115.961 121.992 116.398 121.864 116.761 121.608C117.124 121.341 117.396 120.963 117.577 120.472L118.697 120.968C118.42 121.693 117.993 122.248 117.417 122.632C116.852 123.005 116.164 123.192 115.353 123.192C114.201 123.192 113.305 122.84 112.665 122.136C112.025 121.421 111.705 120.408 111.705 119.096C111.705 117.752 112.025 116.701 112.665 115.944C113.305 115.187 114.196 114.808 115.337 114.808C116.425 114.808 117.262 115.117 117.849 115.736C118.446 116.355 118.745 117.256 118.745 118.44V119.4ZM117.369 118.12C117.369 117.395 117.188 116.84 116.825 116.456C116.473 116.072 115.966 115.88 115.305 115.88C114.612 115.88 114.068 116.093 113.673 116.52C113.289 116.947 113.086 117.539 113.065 118.296H117.369V118.12ZM121.931 116.824C122.134 116.227 122.443 115.741 122.859 115.368C123.286 114.995 123.787 114.808 124.363 114.808C124.491 114.808 124.587 114.813 124.651 114.824V116.152H124.587C123.83 116.152 123.243 116.36 122.827 116.776C122.486 117.117 122.267 117.512 122.171 117.96C122.075 118.408 122.027 118.947 122.027 119.576V123H120.667V115H121.931V116.824ZM132.462 123.192C131.822 123.192 131.256 123.021 130.766 122.68C130.275 122.328 129.891 121.837 129.614 121.208C129.347 120.568 129.214 119.832 129.214 119C129.214 118.189 129.358 117.469 129.646 116.84C129.934 116.2 130.334 115.704 130.846 115.352C131.368 114.989 131.96 114.808 132.622 114.808C133.688 114.808 134.472 115.267 134.974 116.184V111.4H136.334V123H135.054V121.512C134.808 122.056 134.467 122.472 134.03 122.76C133.603 123.048 133.08 123.192 132.462 123.192ZM132.83 121.992C133.491 121.992 134.019 121.741 134.414 121.24C134.808 120.728 135.006 120.045 135.006 119.192V118.824C135.006 117.949 134.808 117.261 134.414 116.76C134.03 116.259 133.502 116.008 132.83 116.008C132.147 116.008 131.614 116.275 131.23 116.808C130.846 117.331 130.654 118.061 130.654 119C130.654 119.939 130.846 120.675 131.23 121.208C131.614 121.731 132.147 121.992 132.83 121.992ZM140.957 123.192C140.136 123.192 139.48 122.979 138.989 122.552C138.498 122.125 138.253 121.555 138.253 120.84C138.253 120.435 138.349 120.072 138.541 119.752C138.733 119.421 139.01 119.155 139.373 118.952C139.682 118.803 140.045 118.675 140.461 118.568C140.877 118.461 141.41 118.371 142.061 118.296L143.549 118.12V117.992C143.549 117.256 143.41 116.728 143.133 116.408C142.856 116.088 142.408 115.928 141.789 115.928C141.245 115.928 140.813 116.067 140.493 116.344C140.173 116.621 139.997 117.011 139.965 117.512H138.509C138.562 116.691 138.882 116.035 139.469 115.544C140.066 115.053 140.834 114.808 141.773 114.808C142.872 114.808 143.672 115.075 144.173 115.608C144.674 116.131 144.925 116.973 144.925 118.136V120.296C144.925 121.512 145.016 122.413 145.197 123H143.773C143.709 122.552 143.666 122.067 143.645 121.544C143.464 122.056 143.133 122.461 142.653 122.76C142.173 123.048 141.608 123.192 140.957 123.192ZM141.261 122.072C141.954 122.072 142.509 121.843 142.925 121.384C143.352 120.915 143.565 120.291 143.565 119.512V119.112L141.389 119.432C140.802 119.517 140.37 119.672 140.093 119.896C139.826 120.109 139.693 120.413 139.693 120.808C139.693 121.203 139.832 121.512 140.109 121.736C140.386 121.96 140.77 122.072 141.261 122.072ZM147.566 115V112.904L148.926 112.328V115H150.926V116.12H148.926V120.552C148.926 121.011 149.017 121.347 149.198 121.56C149.39 121.763 149.689 121.864 150.094 121.864C150.329 121.864 150.606 121.827 150.926 121.752V123C150.574 123.096 150.179 123.144 149.742 123.144C148.931 123.144 148.366 122.925 148.046 122.488C147.726 122.051 147.566 121.421 147.566 120.6V116.12H146.078V115H147.566ZM158.841 119.4H153.161C153.171 120.179 153.39 120.808 153.817 121.288C154.254 121.757 154.83 121.992 155.545 121.992C156.057 121.992 156.494 121.864 156.857 121.608C157.219 121.341 157.491 120.963 157.673 120.472L158.793 120.968C158.515 121.693 158.089 122.248 157.513 122.632C156.947 123.005 156.259 123.192 155.449 123.192C154.297 123.192 153.401 122.84 152.761 122.136C152.121 121.421 151.801 120.408 151.801 119.096C151.801 117.752 152.121 116.701 152.761 115.944C153.401 115.187 154.291 114.808 155.433 114.808C156.521 114.808 157.358 115.117 157.945 115.736C158.542 116.355 158.841 117.256 158.841 118.44V119.4ZM157.465 118.12C157.465 117.395 157.283 116.84 156.921 116.456C156.569 116.072 156.062 115.88 155.401 115.88C154.707 115.88 154.163 116.093 153.769 116.52C153.385 116.947 153.182 117.539 153.161 118.296H157.465V118.12ZM165.863 116.824C166.066 116.227 166.375 115.741 166.791 115.368C167.218 114.995 167.719 114.808 168.295 114.808C168.423 114.808 168.519 114.813 168.583 114.824V116.152H168.519C167.762 116.152 167.175 116.36 166.759 116.776C166.418 117.117 166.199 117.512 166.103 117.96C166.007 118.408 165.959 118.947 165.959 119.576V123H164.599V115H165.863V116.824ZM171.935 123.192C171.114 123.192 170.458 122.979 169.967 122.552C169.477 122.125 169.231 121.555 169.231 120.84C169.231 120.435 169.327 120.072 169.519 119.752C169.711 119.421 169.989 119.155 170.351 118.952C170.661 118.803 171.023 118.675 171.439 118.568C171.855 118.461 172.389 118.371 173.039 118.296L174.527 118.12V117.992C174.527 117.256 174.389 116.728 174.111 116.408C173.834 116.088 173.386 115.928 172.767 115.928C172.223 115.928 171.791 116.067 171.471 116.344C171.151 116.621 170.975 117.011 170.943 117.512H169.487C169.541 116.691 169.861 116.035 170.447 115.544C171.045 115.053 171.813 114.808 172.751 114.808C173.85 114.808 174.65 115.075 175.151 115.608C175.653 116.131 175.903 116.973 175.903 118.136V120.296C175.903 121.512 175.994 122.413 176.175 123H174.751C174.687 122.552 174.645 122.067 174.623 121.544C174.442 122.056 174.111 122.461 173.631 122.76C173.151 123.048 172.586 123.192 171.935 123.192ZM172.239 122.072C172.933 122.072 173.487 121.843 173.903 121.384C174.33 120.915 174.543 120.291 174.543 119.512V119.112L172.367 119.432C171.781 119.517 171.349 119.672 171.071 119.896C170.805 120.109 170.671 120.413 170.671 120.808C170.671 121.203 170.81 121.512 171.087 121.736C171.365 121.96 171.749 122.072 172.239 122.072ZM179.536 115V116.584C180.059 115.4 180.95 114.808 182.208 114.808C183.094 114.808 183.76 115.08 184.208 115.624C184.656 116.157 184.88 116.957 184.88 118.024V123H183.52V118.104C183.52 116.685 182.934 115.976 181.76 115.976C181.099 115.976 180.576 116.232 180.192 116.744C179.808 117.245 179.616 117.939 179.616 118.824V123H178.256V115H179.536ZM193.426 114.872C192.818 114.872 192.418 115.123 192.226 115.624C192.717 116.115 192.962 116.744 192.962 117.512C192.962 118.035 192.839 118.504 192.594 118.92C192.359 119.325 192.018 119.651 191.57 119.896C191.133 120.131 190.61 120.248 190.002 120.248C189.447 120.248 188.935 120.136 188.466 119.912C188.295 119.987 188.157 120.093 188.05 120.232C187.943 120.36 187.89 120.515 187.89 120.696C187.89 120.941 187.991 121.139 188.194 121.288C188.407 121.437 188.749 121.512 189.218 121.512H191.17C192.066 121.512 192.743 121.709 193.202 122.104C193.661 122.488 193.89 123.043 193.89 123.768C193.89 124.557 193.565 125.176 192.914 125.624C192.263 126.083 191.266 126.312 189.922 126.312C188.621 126.312 187.693 126.109 187.138 125.704C186.594 125.299 186.322 124.771 186.322 124.12C186.322 123.736 186.434 123.395 186.658 123.096C186.882 122.808 187.202 122.595 187.618 122.456C186.999 122.179 186.69 121.715 186.69 121.064C186.69 120.68 186.791 120.349 186.994 120.072C187.197 119.795 187.474 119.592 187.826 119.464C187.303 118.963 187.042 118.312 187.042 117.512C187.042 116.723 187.309 116.077 187.842 115.576C188.375 115.064 189.095 114.808 190.002 114.808C190.567 114.808 191.09 114.92 191.57 115.144C191.698 114.707 191.917 114.355 192.226 114.088C192.546 113.821 192.962 113.688 193.474 113.688C193.666 113.688 193.842 113.709 194.002 113.752V114.936C193.789 114.893 193.597 114.872 193.426 114.872ZM190.002 119.208C190.503 119.208 190.909 119.053 191.218 118.744C191.527 118.424 191.682 118.019 191.682 117.528C191.682 117.037 191.527 116.637 191.218 116.328C190.909 116.008 190.503 115.848 190.002 115.848C189.49 115.848 189.079 116.003 188.77 116.312C188.471 116.621 188.322 117.021 188.322 117.512C188.322 118.003 188.477 118.408 188.786 118.728C189.095 119.048 189.501 119.208 190.002 119.208ZM189.17 122.712C188.999 122.712 188.775 122.701 188.498 122.68C188.221 122.808 188.007 122.979 187.858 123.192C187.719 123.405 187.65 123.635 187.65 123.88C187.65 124.349 187.858 124.685 188.274 124.888C188.701 125.091 189.303 125.192 190.082 125.192C190.989 125.192 191.623 125.069 191.986 124.824C192.349 124.589 192.53 124.269 192.53 123.864C192.53 123.491 192.391 123.203 192.114 123C191.837 122.808 191.421 122.712 190.866 122.712H189.17ZM201.53 119.4H195.85C195.861 120.179 196.079 120.808 196.506 121.288C196.943 121.757 197.519 121.992 198.234 121.992C198.746 121.992 199.183 121.864 199.546 121.608C199.909 121.341 200.181 120.963 200.362 120.472L201.482 120.968C201.205 121.693 200.778 122.248 200.202 122.632C199.637 123.005 198.949 123.192 198.138 123.192C196.986 123.192 196.09 122.84 195.45 122.136C194.81 121.421 194.49 120.408 194.49 119.096C194.49 117.752 194.81 116.701 195.45 115.944C196.09 115.187 196.981 114.808 198.122 114.808C199.21 114.808 200.047 115.117 200.634 115.736C201.231 116.355 201.53 117.256 201.53 118.44V119.4ZM200.154 118.12C200.154 117.395 199.973 116.84 199.61 116.456C199.258 116.072 198.751 115.88 198.09 115.88C197.397 115.88 196.853 116.093 196.458 116.52C196.074 116.947 195.871 117.539 195.85 118.296H200.154V118.12ZM207.577 115V112.904L208.937 112.328V115H210.937V116.12H208.937V120.552C208.937 121.011 209.027 121.347 209.209 121.56C209.401 121.763 209.699 121.864 210.105 121.864C210.339 121.864 210.617 121.827 210.937 121.752V123C210.585 123.096 210.19 123.144 209.753 123.144C208.942 123.144 208.377 122.925 208.057 122.488C207.737 122.051 207.577 121.421 207.577 120.6V116.12H206.089V115H207.577ZM215.539 123.192C214.793 123.192 214.137 123.027 213.571 122.696C213.006 122.355 212.569 121.869 212.259 121.24C211.961 120.611 211.811 119.864 211.811 119C211.811 118.136 211.961 117.389 212.259 116.76C212.569 116.131 213.006 115.651 213.571 115.32C214.137 114.979 214.793 114.808 215.539 114.808C216.286 114.808 216.942 114.979 217.507 115.32C218.073 115.651 218.505 116.131 218.803 116.76C219.113 117.389 219.267 118.136 219.267 119C219.267 119.864 219.113 120.611 218.803 121.24C218.505 121.869 218.073 122.355 217.507 122.696C216.942 123.027 216.286 123.192 215.539 123.192ZM215.539 122.008C216.265 122.008 216.825 121.752 217.219 121.24C217.625 120.728 217.827 119.981 217.827 119C217.827 118.019 217.625 117.272 217.219 116.76C216.825 116.248 216.265 115.992 215.539 115.992C214.814 115.992 214.249 116.248 213.843 116.76C213.449 117.272 213.251 118.019 213.251 119C213.251 119.981 213.449 120.728 213.843 121.24C214.249 121.752 214.814 122.008 215.539 122.008ZM227.658 123.192C226.709 123.192 225.93 122.979 225.322 122.552C224.725 122.125 224.357 121.517 224.218 120.728L225.594 120.488C225.69 120.989 225.919 121.379 226.282 121.656C226.645 121.933 227.119 122.072 227.706 122.072C228.229 122.072 228.634 121.96 228.922 121.736C229.221 121.501 229.37 121.208 229.37 120.856C229.37 120.515 229.274 120.259 229.082 120.088C228.89 119.917 228.602 119.8 228.218 119.736L226.65 119.448C225.967 119.32 225.439 119.069 225.066 118.696C224.703 118.312 224.522 117.816 224.522 117.208C224.522 116.504 224.794 115.928 225.338 115.48C225.893 115.032 226.634 114.808 227.562 114.808C228.458 114.808 229.189 115 229.754 115.384C230.33 115.768 230.655 116.296 230.73 116.968L229.386 117.272C229.29 116.856 229.082 116.525 228.762 116.28C228.442 116.035 228.021 115.912 227.498 115.912C226.986 115.912 226.581 116.019 226.282 116.232C225.994 116.445 225.85 116.749 225.85 117.144C225.85 117.464 225.951 117.715 226.154 117.896C226.367 118.077 226.677 118.205 227.082 118.28L228.634 118.568C229.349 118.707 229.871 118.957 230.202 119.32C230.543 119.672 230.714 120.147 230.714 120.744C230.714 121.48 230.442 122.072 229.898 122.52C229.365 122.968 228.618 123.192 227.658 123.192ZM238.969 119.4H233.289C233.3 120.179 233.519 120.808 233.945 121.288C234.383 121.757 234.959 121.992 235.673 121.992C236.185 121.992 236.623 121.864 236.985 121.608C237.348 121.341 237.62 120.963 237.801 120.472L238.921 120.968C238.644 121.693 238.217 122.248 237.641 122.632C237.076 123.005 236.388 123.192 235.577 123.192C234.425 123.192 233.529 122.84 232.889 122.136C232.249 121.421 231.929 120.408 231.929 119.096C231.929 117.752 232.249 116.701 232.889 115.944C233.529 115.187 234.42 114.808 235.561 114.808C236.649 114.808 237.487 115.117 238.073 115.736C238.671 116.355 238.969 117.256 238.969 118.44V119.4ZM237.593 118.12C237.593 117.395 237.412 116.84 237.049 116.456C236.697 116.072 236.191 115.88 235.529 115.88C234.836 115.88 234.292 116.093 233.897 116.52C233.513 116.947 233.311 117.539 233.289 118.296H237.593V118.12ZM247.212 119.4H241.532C241.543 120.179 241.761 120.808 242.188 121.288C242.625 121.757 243.201 121.992 243.916 121.992C244.428 121.992 244.865 121.864 245.228 121.608C245.591 121.341 245.863 120.963 246.044 120.472L247.164 120.968C246.887 121.693 246.46 122.248 245.884 122.632C245.319 123.005 244.631 123.192 243.82 123.192C242.668 123.192 241.772 122.84 241.132 122.136C240.492 121.421 240.172 120.408 240.172 119.096C240.172 117.752 240.492 116.701 241.132 115.944C241.772 115.187 242.663 114.808 243.804 114.808C244.892 114.808 245.729 115.117 246.316 115.736C246.913 116.355 247.212 117.256 247.212 118.44V119.4ZM245.836 118.12C245.836 117.395 245.655 116.84 245.292 116.456C244.94 116.072 244.433 115.88 243.772 115.88C243.079 115.88 242.535 116.093 242.14 116.52C241.756 116.947 241.553 117.539 241.532 118.296H245.836V118.12ZM255.979 123.192C255.232 123.192 254.576 123.027 254.011 122.696C253.445 122.355 253.008 121.869 252.699 121.24C252.4 120.611 252.251 119.864 252.251 119C252.251 118.136 252.4 117.389 252.699 116.76C253.008 116.131 253.445 115.651 254.011 115.32C254.576 114.979 255.232 114.808 255.979 114.808C256.725 114.808 257.381 114.979 257.947 115.32C258.512 115.651 258.944 116.131 259.243 116.76C259.552 117.389 259.707 118.136 259.707 119C259.707 119.864 259.552 120.611 259.243 121.24C258.944 121.869 258.512 122.355 257.947 122.696C257.381 123.027 256.725 123.192 255.979 123.192ZM255.979 122.008C256.704 122.008 257.264 121.752 257.659 121.24C258.064 120.728 258.267 119.981 258.267 119C258.267 118.019 258.064 117.272 257.659 116.76C257.264 116.248 256.704 115.992 255.979 115.992C255.253 115.992 254.688 116.248 254.283 116.76C253.888 117.272 253.691 118.019 253.691 119C253.691 119.981 253.888 120.728 254.283 121.24C254.688 121.752 255.253 122.008 255.979 122.008ZM261.829 115V112.904L263.189 112.328V115H265.189V116.12H263.189V120.552C263.189 121.011 263.28 121.347 263.461 121.56C263.653 121.763 263.952 121.864 264.357 121.864C264.592 121.864 264.869 121.827 265.189 121.752V123C264.837 123.096 264.443 123.144 264.005 123.144C263.195 123.144 262.629 122.925 262.309 122.488C261.989 122.051 261.829 121.421 261.829 120.6V116.12H260.341V115H261.829ZM268.302 111.4V116.504C268.782 115.373 269.657 114.808 270.926 114.808C271.79 114.808 272.446 115.08 272.894 115.624C273.342 116.168 273.566 116.968 273.566 118.024V123H272.206V118.12C272.206 117.416 272.057 116.883 271.758 116.52C271.47 116.157 271.038 115.976 270.462 115.976C269.779 115.976 269.246 116.227 268.862 116.728C268.489 117.219 268.302 117.917 268.302 118.824V123H266.942V111.4H268.302ZM282.206 119.4H276.526C276.536 120.179 276.755 120.808 277.182 121.288C277.619 121.757 278.195 121.992 278.91 121.992C279.422 121.992 279.859 121.864 280.222 121.608C280.584 121.341 280.856 120.963 281.038 120.472L282.158 120.968C281.88 121.693 281.454 122.248 280.878 122.632C280.312 123.005 279.624 123.192 278.814 123.192C277.662 123.192 276.766 122.84 276.126 122.136C275.486 121.421 275.166 120.408 275.166 119.096C275.166 117.752 275.486 116.701 276.126 115.944C276.766 115.187 277.656 114.808 278.798 114.808C279.886 114.808 280.723 115.117 281.31 115.736C281.907 116.355 282.206 117.256 282.206 118.44V119.4ZM280.83 118.12C280.83 117.395 280.648 116.84 280.286 116.456C279.934 116.072 279.427 115.88 278.766 115.88C278.072 115.88 277.528 116.093 277.134 116.52C276.75 116.947 276.547 117.539 276.526 118.296H280.83V118.12ZM285.392 116.824C285.595 116.227 285.904 115.741 286.32 115.368C286.747 114.995 287.248 114.808 287.824 114.808C287.952 114.808 288.048 114.813 288.112 114.824V116.152H288.048C287.291 116.152 286.704 116.36 286.288 116.776C285.947 117.117 285.728 117.512 285.632 117.96C285.536 118.408 285.488 118.947 285.488 119.576V123H284.128V115H285.392V116.824ZM295.89 123.192C294.93 123.192 294.232 122.925 293.794 122.392C293.368 121.859 293.154 121.096 293.154 120.104V115H294.514V119.944C294.514 120.616 294.653 121.133 294.93 121.496C295.218 121.848 295.624 122.024 296.146 122.024C296.786 122.024 297.304 121.773 297.698 121.272C298.093 120.771 298.29 120.115 298.29 119.304V115H299.65V123H298.37V121.496C298.189 121.987 297.869 122.392 297.41 122.712C296.952 123.032 296.445 123.192 295.89 123.192ZM304.935 123.192C303.986 123.192 303.207 122.979 302.599 122.552C302.002 122.125 301.634 121.517 301.495 120.728L302.871 120.488C302.967 120.989 303.196 121.379 303.559 121.656C303.922 121.933 304.396 122.072 304.983 122.072C305.506 122.072 305.911 121.96 306.199 121.736C306.498 121.501 306.647 121.208 306.647 120.856C306.647 120.515 306.551 120.259 306.359 120.088C306.167 119.917 305.879 119.8 305.495 119.736L303.927 119.448C303.244 119.32 302.716 119.069 302.343 118.696C301.98 118.312 301.799 117.816 301.799 117.208C301.799 116.504 302.071 115.928 302.615 115.48C303.17 115.032 303.911 114.808 304.839 114.808C305.735 114.808 306.466 115 307.031 115.384C307.607 115.768 307.932 116.296 308.007 116.968L306.663 117.272C306.567 116.856 306.359 116.525 306.039 116.28C305.719 116.035 305.298 115.912 304.775 115.912C304.263 115.912 303.858 116.019 303.559 116.232C303.271 116.445 303.127 116.749 303.127 117.144C303.127 117.464 303.228 117.715 303.431 117.896C303.644 118.077 303.954 118.205 304.359 118.28L305.911 118.568C306.626 118.707 307.148 118.957 307.479 119.32C307.82 119.672 307.991 120.147 307.991 120.744C307.991 121.48 307.719 122.072 307.175 122.52C306.642 122.968 305.895 123.192 304.935 123.192ZM311.91 123.192C311.089 123.192 310.433 122.979 309.942 122.552C309.452 122.125 309.206 121.555 309.206 120.84C309.206 120.435 309.302 120.072 309.494 119.752C309.686 119.421 309.964 119.155 310.326 118.952C310.636 118.803 310.998 118.675 311.414 118.568C311.83 118.461 312.364 118.371 313.014 118.296L314.502 118.12V117.992C314.502 117.256 314.364 116.728 314.086 116.408C313.809 116.088 313.361 115.928 312.742 115.928C312.198 115.928 311.766 116.067 311.446 116.344C311.126 116.621 310.95 117.011 310.918 117.512H309.462C309.516 116.691 309.836 116.035 310.422 115.544C311.02 115.053 311.788 114.808 312.726 114.808C313.825 114.808 314.625 115.075 315.126 115.608C315.628 116.131 315.878 116.973 315.878 118.136V120.296C315.878 121.512 315.969 122.413 316.15 123H314.726C314.662 122.552 314.62 122.067 314.598 121.544C314.417 122.056 314.086 122.461 313.606 122.76C313.126 123.048 312.561 123.192 311.91 123.192ZM312.214 122.072C312.908 122.072 313.462 121.843 313.878 121.384C314.305 120.915 314.518 120.291 314.518 119.512V119.112L312.342 119.432C311.756 119.517 311.324 119.672 311.046 119.896C310.78 120.109 310.646 120.413 310.646 120.808C310.646 121.203 310.785 121.512 311.062 121.736C311.34 121.96 311.724 122.072 312.214 122.072ZM324.299 114.872C323.691 114.872 323.291 115.123 323.099 115.624C323.59 116.115 323.835 116.744 323.835 117.512C323.835 118.035 323.712 118.504 323.467 118.92C323.232 119.325 322.891 119.651 322.443 119.896C322.006 120.131 321.483 120.248 320.875 120.248C320.32 120.248 319.808 120.136 319.339 119.912C319.168 119.987 319.03 120.093 318.923 120.232C318.816 120.36 318.763 120.515 318.763 120.696C318.763 120.941 318.864 121.139 319.067 121.288C319.28 121.437 319.622 121.512 320.091 121.512H322.043C322.939 121.512 323.616 121.709 324.075 122.104C324.534 122.488 324.763 123.043 324.763 123.768C324.763 124.557 324.438 125.176 323.787 125.624C323.136 126.083 322.139 126.312 320.795 126.312C319.494 126.312 318.566 126.109 318.011 125.704C317.467 125.299 317.195 124.771 317.195 124.12C317.195 123.736 317.307 123.395 317.531 123.096C317.755 122.808 318.075 122.595 318.491 122.456C317.872 122.179 317.563 121.715 317.563 121.064C317.563 120.68 317.664 120.349 317.867 120.072C318.07 119.795 318.347 119.592 318.699 119.464C318.176 118.963 317.915 118.312 317.915 117.512C317.915 116.723 318.182 116.077 318.715 115.576C319.248 115.064 319.968 114.808 320.875 114.808C321.44 114.808 321.963 114.92 322.443 115.144C322.571 114.707 322.79 114.355 323.099 114.088C323.419 113.821 323.835 113.688 324.347 113.688C324.539 113.688 324.715 113.709 324.875 113.752V114.936C324.662 114.893 324.47 114.872 324.299 114.872ZM320.875 119.208C321.376 119.208 321.782 119.053 322.091 118.744C322.4 118.424 322.555 118.019 322.555 117.528C322.555 117.037 322.4 116.637 322.091 116.328C321.782 116.008 321.376 115.848 320.875 115.848C320.363 115.848 319.952 116.003 319.643 116.312C319.344 116.621 319.195 117.021 319.195 117.512C319.195 118.003 319.35 118.408 319.659 118.728C319.968 119.048 320.374 119.208 320.875 119.208ZM320.043 122.712C319.872 122.712 319.648 122.701 319.371 122.68C319.094 122.808 318.88 122.979 318.731 123.192C318.592 123.405 318.523 123.635 318.523 123.88C318.523 124.349 318.731 124.685 319.147 124.888C319.574 125.091 320.176 125.192 320.955 125.192C321.862 125.192 322.496 125.069 322.859 124.824C323.222 124.589 323.403 124.269 323.403 123.864C323.403 123.491 323.264 123.203 322.987 123C322.71 122.808 322.294 122.712 321.739 122.712H320.043ZM332.403 119.4H326.723C326.734 120.179 326.952 120.808 327.379 121.288C327.816 121.757 328.392 121.992 329.107 121.992C329.619 121.992 330.056 121.864 330.419 121.608C330.782 121.341 331.054 120.963 331.235 120.472L332.355 120.968C332.078 121.693 331.651 122.248 331.075 122.632C330.51 123.005 329.822 123.192 329.011 123.192C327.859 123.192 326.963 122.84 326.323 122.136C325.683 121.421 325.363 120.408 325.363 119.096C325.363 117.752 325.683 116.701 326.323 115.944C326.963 115.187 327.854 114.808 328.995 114.808C330.083 114.808 330.92 115.117 331.507 115.736C332.104 116.355 332.403 117.256 332.403 118.44V119.4ZM331.027 118.12C331.027 117.395 330.846 116.84 330.483 116.456C330.131 116.072 329.624 115.88 328.963 115.88C328.27 115.88 327.726 116.093 327.331 116.52C326.947 116.947 326.744 117.539 326.723 118.296H331.027V118.12ZM335.721 123H333.849V121.112H335.721V123Z" fill="black"/>
</svg>
