<svg width="360" height="120" viewBox="0 0 360 120" fill="none" xmlns="http://www.w3.org/2000/svg">
<g clip-path="url(#clip0_3555_5670)">
<path d="M147.001 51.5L157 46L164.999 41.5004L170.001 21.5005L178.999 18.5004L185.999 10.0004L195.499 28.5004L209.499 26.0004" stroke="#CCCCCA" stroke-width="6"/>
</g>
<path d="M155.716 78.64L159.988 86.08C160.298 86.6027 160.532 87.088 160.692 87.536H160.724C160.703 86.9813 160.692 86.4907 160.692 86.064V78.64H162.564V90H160.244L155.908 82.528C155.599 81.984 155.37 81.5093 155.22 81.104H155.188C155.21 81.392 155.22 81.8933 155.22 82.608V90H153.348V78.64H155.716ZM168.18 90.192C167.412 90.192 166.729 90.0267 166.132 89.696C165.545 89.3653 165.086 88.8853 164.756 88.256C164.425 87.616 164.26 86.8587 164.26 85.984C164.26 85.1093 164.425 84.3573 164.756 83.728C165.086 83.0987 165.545 82.624 166.132 82.304C166.729 81.9733 167.412 81.808 168.18 81.808C168.948 81.808 169.625 81.9733 170.212 82.304C170.809 82.624 171.273 83.0987 171.604 83.728C171.934 84.3573 172.1 85.1093 172.1 85.984C172.1 86.8587 171.934 87.616 171.604 88.256C171.273 88.8853 170.809 89.3653 170.212 89.696C169.625 90.0267 168.948 90.192 168.18 90.192ZM168.18 88.736C168.798 88.736 169.278 88.5067 169.62 88.048C169.961 87.5787 170.132 86.8907 170.132 85.984C170.132 85.088 169.961 84.4107 169.62 83.952C169.289 83.4933 168.809 83.264 168.18 83.264C167.55 83.264 167.065 83.4933 166.724 83.952C166.382 84.4107 166.212 85.088 166.212 85.984C166.212 86.88 166.382 87.5627 166.724 88.032C167.065 88.5013 167.55 88.736 168.18 88.736ZM179.993 90.192C179.353 90.192 178.787 90.0213 178.297 89.68C177.806 89.328 177.427 88.8373 177.161 88.208C176.894 87.568 176.761 86.8373 176.761 86.016C176.761 85.184 176.899 84.4533 177.177 83.824C177.465 83.184 177.865 82.688 178.377 82.336C178.889 81.984 179.475 81.808 180.137 81.808C181.235 81.808 182.003 82.2507 182.441 83.136V78.4H184.361V90H182.553V88.56C182.329 89.072 181.993 89.472 181.545 89.76C181.107 90.048 180.59 90.192 179.993 90.192ZM180.649 88.72C181.214 88.72 181.662 88.5013 181.993 88.064C182.323 87.616 182.489 87.0187 182.489 86.272V85.76C182.489 84.9813 182.323 84.3733 181.993 83.936C181.662 83.4987 181.209 83.28 180.633 83.28C180.046 83.28 179.587 83.52 179.257 84C178.926 84.4693 178.761 85.1307 178.761 85.984C178.761 86.8373 178.926 87.5093 179.257 88C179.598 88.48 180.062 88.72 180.649 88.72ZM188.707 90.192C187.885 90.192 187.224 89.9787 186.723 89.552C186.221 89.1147 185.971 88.5387 185.971 87.824C185.971 87.44 186.051 87.0933 186.211 86.784C186.381 86.4747 186.627 86.2187 186.947 86.016C187.235 85.8453 187.581 85.7067 187.987 85.6C188.392 85.4827 188.915 85.3813 189.555 85.296L191.251 85.088V84.88C191.251 84.2827 191.128 83.8507 190.883 83.584C190.648 83.3067 190.275 83.168 189.763 83.168C189.293 83.168 188.92 83.2907 188.643 83.536C188.376 83.7707 188.227 84.1173 188.195 84.576H186.227C186.291 83.7227 186.637 83.0507 187.267 82.56C187.896 82.0587 188.728 81.808 189.763 81.808C190.947 81.808 191.811 82.0747 192.355 82.608C192.909 83.1307 193.187 83.9733 193.187 85.136V87.52C193.187 88.608 193.267 89.4347 193.427 90H191.507C191.432 89.5627 191.389 89.104 191.379 88.624C191.187 89.1147 190.851 89.4987 190.371 89.776C189.901 90.0533 189.347 90.192 188.707 90.192ZM189.315 88.832C189.912 88.832 190.392 88.64 190.755 88.256C191.117 87.8613 191.299 87.3493 191.299 86.72V86.208L189.491 86.48C188.957 86.5653 188.568 86.7093 188.323 86.912C188.077 87.1147 187.955 87.3867 187.955 87.728C187.955 88.0693 188.072 88.3413 188.307 88.544C188.552 88.736 188.888 88.832 189.315 88.832ZM195.488 82V79.984L197.408 79.216V82H199.36V83.392H197.408V87.216C197.408 87.6427 197.504 87.9627 197.696 88.176C197.888 88.3787 198.181 88.48 198.576 88.48C198.757 88.48 199.018 88.448 199.36 88.384V90C198.89 90.096 198.453 90.144 198.048 90.144C197.13 90.144 196.474 89.92 196.08 89.472C195.685 89.024 195.488 88.3733 195.488 87.52V83.392H194.048V82H195.488ZM202.817 90.192C201.995 90.192 201.334 89.9787 200.833 89.552C200.331 89.1147 200.081 88.5387 200.081 87.824C200.081 87.44 200.161 87.0933 200.321 86.784C200.491 86.4747 200.737 86.2187 201.057 86.016C201.345 85.8453 201.691 85.7067 202.097 85.6C202.502 85.4827 203.025 85.3813 203.665 85.296L205.361 85.088V84.88C205.361 84.2827 205.238 83.8507 204.993 83.584C204.758 83.3067 204.385 83.168 203.873 83.168C203.403 83.168 203.03 83.2907 202.753 83.536C202.486 83.7707 202.337 84.1173 202.305 84.576H200.337C200.401 83.7227 200.747 83.0507 201.377 82.56C202.006 82.0587 202.838 81.808 203.873 81.808C205.057 81.808 205.921 82.0747 206.465 82.608C207.019 83.1307 207.297 83.9733 207.297 85.136V87.52C207.297 88.608 207.377 89.4347 207.537 90H205.617C205.542 89.5627 205.499 89.104 205.489 88.624C205.297 89.1147 204.961 89.4987 204.481 89.776C204.011 90.0533 203.457 90.192 202.817 90.192ZM203.425 88.832C204.022 88.832 204.502 88.64 204.865 88.256C205.227 87.8613 205.409 87.3493 205.409 86.72V86.208L203.601 86.48C203.067 86.5653 202.678 86.7093 202.433 86.912C202.187 87.1147 202.065 87.3867 202.065 87.728C202.065 88.0693 202.182 88.3413 202.417 88.544C202.662 88.736 202.998 88.832 203.425 88.832Z" fill="black"/>
<path d="M28.5212 114.272C27.1346 114.272 26.0519 113.941 25.2732 113.28C24.4946 112.608 24.0572 111.723 23.9612 110.624L25.4972 110.4C25.6146 111.168 25.9186 111.797 26.4092 112.288C26.9106 112.779 27.6306 113.024 28.5692 113.024C29.2732 113.024 29.8706 112.864 30.3612 112.544C30.8519 112.224 31.0972 111.733 31.0972 111.072C31.0972 110.443 30.9212 109.984 30.5692 109.696C30.2172 109.397 29.6732 109.173 28.9372 109.024L27.2892 108.688C25.3906 108.293 24.4412 107.248 24.4412 105.552C24.4412 104.923 24.6012 104.368 24.9212 103.888C25.2519 103.408 25.7106 103.035 26.2972 102.768C26.8946 102.501 27.5932 102.368 28.3932 102.368C29.5772 102.368 30.5479 102.64 31.3052 103.184C32.0626 103.728 32.4946 104.533 32.6012 105.6L31.0812 105.92C30.8786 104.352 29.9719 103.568 28.3612 103.568C27.6572 103.568 27.0866 103.733 26.6492 104.064C26.2226 104.395 26.0092 104.843 26.0092 105.408C26.0092 105.952 26.1586 106.379 26.4572 106.688C26.7559 106.997 27.2252 107.221 27.8652 107.36L29.5292 107.712C30.5212 107.915 31.2892 108.261 31.8332 108.752C32.3879 109.243 32.6652 109.968 32.6652 110.928C32.6652 111.536 32.5106 112.096 32.2012 112.608C31.9026 113.109 31.4386 113.515 30.8092 113.824C30.1906 114.123 29.4279 114.272 28.5212 114.272ZM40.7494 110.4H35.0694C35.08 111.179 35.2987 111.808 35.7254 112.288C36.1627 112.757 36.7387 112.992 37.4534 112.992C37.9654 112.992 38.4027 112.864 38.7654 112.608C39.128 112.341 39.4 111.963 39.5814 111.472L40.7014 111.968C40.424 112.693 39.9974 113.248 39.4214 113.632C38.856 114.005 38.168 114.192 37.3574 114.192C36.2054 114.192 35.3094 113.84 34.6694 113.136C34.0294 112.421 33.7094 111.408 33.7094 110.096C33.7094 108.752 34.0294 107.701 34.6694 106.944C35.3094 106.187 36.2 105.808 37.3414 105.808C38.4294 105.808 39.2667 106.117 39.8534 106.736C40.4507 107.355 40.7494 108.256 40.7494 109.44V110.4ZM39.3734 109.12C39.3734 108.395 39.192 107.84 38.8294 107.456C38.4774 107.072 37.9707 106.88 37.3094 106.88C36.616 106.88 36.072 107.093 35.6774 107.52C35.2934 107.947 35.0907 108.539 35.0694 109.296H39.3734V109.12ZM44.1119 114H42.7519V102.4H44.1119V114ZM53.0781 110.4H47.3981C47.4088 111.179 47.6275 111.808 48.0541 112.288C48.4915 112.757 49.0675 112.992 49.7821 112.992C50.2941 112.992 50.7315 112.864 51.0941 112.608C51.4568 112.341 51.7288 111.963 51.9101 111.472L53.0301 111.968C52.7528 112.693 52.3261 113.248 51.7501 113.632C51.1848 114.005 50.4968 114.192 49.6861 114.192C48.5341 114.192 47.6381 113.84 46.9981 113.136C46.3581 112.421 46.0381 111.408 46.0381 110.096C46.0381 108.752 46.3581 107.701 46.9981 106.944C47.6381 106.187 48.5288 105.808 49.6701 105.808C50.7581 105.808 51.5955 106.117 52.1821 106.736C52.7795 107.355 53.0781 108.256 53.0781 109.44V110.4ZM51.7021 109.12C51.7021 108.395 51.5208 107.84 51.1581 107.456C50.8061 107.072 50.2995 106.88 49.6381 106.88C48.9448 106.88 48.4008 107.093 48.0061 107.52C47.6221 107.947 47.4195 108.539 47.3981 109.296H51.7021V109.12ZM57.9606 114.192C57.2246 114.192 56.5793 114.021 56.0246 113.68C55.47 113.339 55.038 112.853 54.7286 112.224C54.43 111.584 54.2806 110.843 54.2806 110C54.2806 108.699 54.606 107.675 55.2566 106.928C55.918 106.181 56.8193 105.808 57.9606 105.808C58.8993 105.808 59.6566 106.064 60.2326 106.576C60.8086 107.088 61.15 107.803 61.2566 108.72L59.8646 108.88C59.79 108.272 59.582 107.808 59.2406 107.488C58.91 107.157 58.4726 106.992 57.9286 106.992C57.2353 106.992 56.6913 107.259 56.2966 107.792C55.9126 108.315 55.7206 109.045 55.7206 109.984C55.7206 110.944 55.918 111.691 56.3126 112.224C56.7073 112.747 57.262 113.008 57.9766 113.008C58.5206 113.008 58.958 112.848 59.2886 112.528C59.6193 112.208 59.838 111.733 59.9446 111.104L61.2406 111.312C61.0913 112.229 60.7286 112.939 60.1526 113.44C59.5873 113.941 58.8566 114.192 57.9606 114.192ZM63.3905 106V103.904L64.7505 103.328V106H66.7505V107.12H64.7505V111.552C64.7505 112.011 64.8412 112.347 65.0225 112.56C65.2145 112.763 65.5132 112.864 65.9185 112.864C66.1532 112.864 66.4305 112.827 66.7505 112.752V114C66.3985 114.096 66.0038 114.144 65.5665 114.144C64.7558 114.144 64.1905 113.925 63.8705 113.488C63.5505 113.051 63.3905 112.421 63.3905 111.6V107.12H61.9025V106H63.3905ZM74.2434 114.192C73.422 114.192 72.766 113.979 72.2754 113.552C71.7847 113.125 71.5394 112.555 71.5394 111.84C71.5394 111.435 71.6354 111.072 71.8274 110.752C72.0194 110.421 72.2967 110.155 72.6594 109.952C72.9687 109.803 73.3314 109.675 73.7474 109.568C74.1634 109.461 74.6967 109.371 75.3474 109.296L76.8354 109.12V108.992C76.8354 108.256 76.6967 107.728 76.4194 107.408C76.142 107.088 75.694 106.928 75.0754 106.928C74.5314 106.928 74.0994 107.067 73.7794 107.344C73.4594 107.621 73.2834 108.011 73.2514 108.512H71.7954C71.8487 107.691 72.1687 107.035 72.7554 106.544C73.3527 106.053 74.1207 105.808 75.0594 105.808C76.158 105.808 76.958 106.075 77.4594 106.608C77.9607 107.131 78.2114 107.973 78.2114 109.136V111.296C78.2114 112.512 78.302 113.413 78.4834 114H77.0594C76.9954 113.552 76.9527 113.067 76.9314 112.544C76.75 113.056 76.4194 113.461 75.9394 113.76C75.4594 114.048 74.894 114.192 74.2434 114.192ZM74.5474 113.072C75.2407 113.072 75.7954 112.843 76.2114 112.384C76.638 111.915 76.8514 111.291 76.8514 110.512V110.112L74.6754 110.432C74.0887 110.517 73.6567 110.672 73.3794 110.896C73.1127 111.109 72.9794 111.413 72.9794 111.808C72.9794 112.203 73.118 112.512 73.3954 112.736C73.6727 112.96 74.0567 113.072 74.5474 113.072ZM81.8444 106V107.584C82.367 106.4 83.2577 105.808 84.5164 105.808C85.4017 105.808 86.0684 106.08 86.5164 106.624C86.9644 107.157 87.1884 107.957 87.1884 109.024V114H85.8284V109.104C85.8284 107.685 85.2417 106.976 84.0684 106.976C83.407 106.976 82.8844 107.232 82.5004 107.744C82.1164 108.245 81.9244 108.939 81.9244 109.824V114H80.5644V106H81.8444ZM92.518 114.192C91.7713 114.192 91.1153 114.027 90.55 113.696C89.9847 113.355 89.5473 112.869 89.238 112.24C88.9393 111.611 88.79 110.864 88.79 110C88.79 109.136 88.9393 108.389 89.238 107.76C89.5473 107.131 89.9847 106.651 90.55 106.32C91.1153 105.979 91.7713 105.808 92.518 105.808C93.2647 105.808 93.9207 105.979 94.486 106.32C95.0513 106.651 95.4833 107.131 95.782 107.76C96.0913 108.389 96.246 109.136 96.246 110C96.246 110.864 96.0913 111.611 95.782 112.24C95.4833 112.869 95.0513 113.355 94.486 113.696C93.9207 114.027 93.2647 114.192 92.518 114.192ZM92.518 113.008C93.2433 113.008 93.8033 112.752 94.198 112.24C94.6033 111.728 94.806 110.981 94.806 110C94.806 109.019 94.6033 108.272 94.198 107.76C93.8033 107.248 93.2433 106.992 92.518 106.992C91.7927 106.992 91.2273 107.248 90.822 107.76C90.4273 108.272 90.23 109.019 90.23 110C90.23 110.981 90.4273 111.728 90.822 112.24C91.2273 112.752 91.7927 113.008 92.518 113.008ZM98.3686 106V103.904L99.7286 103.328V106H101.729V107.12H99.7286V111.552C99.7286 112.011 99.8193 112.347 100.001 112.56C100.193 112.763 100.491 112.864 100.897 112.864C101.131 112.864 101.409 112.827 101.729 112.752V114C101.377 114.096 100.982 114.144 100.545 114.144C99.734 114.144 99.1686 113.925 98.8486 113.488C98.5286 113.051 98.3686 112.421 98.3686 111.6V107.12H96.8806V106H98.3686ZM104.841 102.4V107.504C105.321 106.373 106.196 105.808 107.465 105.808C108.329 105.808 108.985 106.08 109.433 106.624C109.881 107.168 110.105 107.968 110.105 109.024V114H108.745V109.12C108.745 108.416 108.596 107.883 108.297 107.52C108.009 107.157 107.577 106.976 107.001 106.976C106.319 106.976 105.785 107.227 105.401 107.728C105.028 108.219 104.841 108.917 104.841 109.824V114H103.481V102.4H104.841ZM118.745 110.4H113.065C113.076 111.179 113.294 111.808 113.721 112.288C114.158 112.757 114.734 112.992 115.449 112.992C115.961 112.992 116.398 112.864 116.761 112.608C117.124 112.341 117.396 111.963 117.577 111.472L118.697 111.968C118.42 112.693 117.993 113.248 117.417 113.632C116.852 114.005 116.164 114.192 115.353 114.192C114.201 114.192 113.305 113.84 112.665 113.136C112.025 112.421 111.705 111.408 111.705 110.096C111.705 108.752 112.025 107.701 112.665 106.944C113.305 106.187 114.196 105.808 115.337 105.808C116.425 105.808 117.262 106.117 117.849 106.736C118.446 107.355 118.745 108.256 118.745 109.44V110.4ZM117.369 109.12C117.369 108.395 117.188 107.84 116.825 107.456C116.473 107.072 115.966 106.88 115.305 106.88C114.612 106.88 114.068 107.093 113.673 107.52C113.289 107.947 113.086 108.539 113.065 109.296H117.369V109.12ZM121.931 107.824C122.134 107.227 122.443 106.741 122.859 106.368C123.286 105.995 123.787 105.808 124.363 105.808C124.491 105.808 124.587 105.813 124.651 105.824V107.152H124.587C123.83 107.152 123.243 107.36 122.827 107.776C122.486 108.117 122.267 108.512 122.171 108.96C122.075 109.408 122.027 109.947 122.027 110.576V114H120.667V106H121.931V107.824ZM132.462 114.192C131.822 114.192 131.256 114.021 130.766 113.68C130.275 113.328 129.891 112.837 129.614 112.208C129.347 111.568 129.214 110.832 129.214 110C129.214 109.189 129.358 108.469 129.646 107.84C129.934 107.2 130.334 106.704 130.846 106.352C131.368 105.989 131.96 105.808 132.622 105.808C133.688 105.808 134.472 106.267 134.974 107.184V102.4H136.334V114H135.054V112.512C134.808 113.056 134.467 113.472 134.03 113.76C133.603 114.048 133.08 114.192 132.462 114.192ZM132.83 112.992C133.491 112.992 134.019 112.741 134.414 112.24C134.808 111.728 135.006 111.045 135.006 110.192V109.824C135.006 108.949 134.808 108.261 134.414 107.76C134.03 107.259 133.502 107.008 132.83 107.008C132.147 107.008 131.614 107.275 131.23 107.808C130.846 108.331 130.654 109.061 130.654 110C130.654 110.939 130.846 111.675 131.23 112.208C131.614 112.731 132.147 112.992 132.83 112.992ZM140.957 114.192C140.136 114.192 139.48 113.979 138.989 113.552C138.498 113.125 138.253 112.555 138.253 111.84C138.253 111.435 138.349 111.072 138.541 110.752C138.733 110.421 139.01 110.155 139.373 109.952C139.682 109.803 140.045 109.675 140.461 109.568C140.877 109.461 141.41 109.371 142.061 109.296L143.549 109.12V108.992C143.549 108.256 143.41 107.728 143.133 107.408C142.856 107.088 142.408 106.928 141.789 106.928C141.245 106.928 140.813 107.067 140.493 107.344C140.173 107.621 139.997 108.011 139.965 108.512H138.509C138.562 107.691 138.882 107.035 139.469 106.544C140.066 106.053 140.834 105.808 141.773 105.808C142.872 105.808 143.672 106.075 144.173 106.608C144.674 107.131 144.925 107.973 144.925 109.136V111.296C144.925 112.512 145.016 113.413 145.197 114H143.773C143.709 113.552 143.666 113.067 143.645 112.544C143.464 113.056 143.133 113.461 142.653 113.76C142.173 114.048 141.608 114.192 140.957 114.192ZM141.261 113.072C141.954 113.072 142.509 112.843 142.925 112.384C143.352 111.915 143.565 111.291 143.565 110.512V110.112L141.389 110.432C140.802 110.517 140.37 110.672 140.093 110.896C139.826 111.109 139.693 111.413 139.693 111.808C139.693 112.203 139.832 112.512 140.109 112.736C140.386 112.96 140.77 113.072 141.261 113.072ZM147.566 106V103.904L148.926 103.328V106H150.926V107.12H148.926V111.552C148.926 112.011 149.017 112.347 149.198 112.56C149.39 112.763 149.689 112.864 150.094 112.864C150.329 112.864 150.606 112.827 150.926 112.752V114C150.574 114.096 150.179 114.144 149.742 114.144C148.931 114.144 148.366 113.925 148.046 113.488C147.726 113.051 147.566 112.421 147.566 111.6V107.12H146.078V106H147.566ZM158.841 110.4H153.161C153.171 111.179 153.39 111.808 153.817 112.288C154.254 112.757 154.83 112.992 155.545 112.992C156.057 112.992 156.494 112.864 156.857 112.608C157.219 112.341 157.491 111.963 157.673 111.472L158.793 111.968C158.515 112.693 158.089 113.248 157.513 113.632C156.947 114.005 156.259 114.192 155.449 114.192C154.297 114.192 153.401 113.84 152.761 113.136C152.121 112.421 151.801 111.408 151.801 110.096C151.801 108.752 152.121 107.701 152.761 106.944C153.401 106.187 154.291 105.808 155.433 105.808C156.521 105.808 157.358 106.117 157.945 106.736C158.542 107.355 158.841 108.256 158.841 109.44V110.4ZM157.465 109.12C157.465 108.395 157.283 107.84 156.921 107.456C156.569 107.072 156.062 106.88 155.401 106.88C154.707 106.88 154.163 107.093 153.769 107.52C153.385 107.947 153.182 108.539 153.161 109.296H157.465V109.12ZM165.863 107.824C166.066 107.227 166.375 106.741 166.791 106.368C167.218 105.995 167.719 105.808 168.295 105.808C168.423 105.808 168.519 105.813 168.583 105.824V107.152H168.519C167.762 107.152 167.175 107.36 166.759 107.776C166.418 108.117 166.199 108.512 166.103 108.96C166.007 109.408 165.959 109.947 165.959 110.576V114H164.599V106H165.863V107.824ZM171.935 114.192C171.114 114.192 170.458 113.979 169.967 113.552C169.477 113.125 169.231 112.555 169.231 111.84C169.231 111.435 169.327 111.072 169.519 110.752C169.711 110.421 169.989 110.155 170.351 109.952C170.661 109.803 171.023 109.675 171.439 109.568C171.855 109.461 172.389 109.371 173.039 109.296L174.527 109.12V108.992C174.527 108.256 174.389 107.728 174.111 107.408C173.834 107.088 173.386 106.928 172.767 106.928C172.223 106.928 171.791 107.067 171.471 107.344C171.151 107.621 170.975 108.011 170.943 108.512H169.487C169.541 107.691 169.861 107.035 170.447 106.544C171.045 106.053 171.813 105.808 172.751 105.808C173.85 105.808 174.65 106.075 175.151 106.608C175.653 107.131 175.903 107.973 175.903 109.136V111.296C175.903 112.512 175.994 113.413 176.175 114H174.751C174.687 113.552 174.645 113.067 174.623 112.544C174.442 113.056 174.111 113.461 173.631 113.76C173.151 114.048 172.586 114.192 171.935 114.192ZM172.239 113.072C172.933 113.072 173.487 112.843 173.903 112.384C174.33 111.915 174.543 111.291 174.543 110.512V110.112L172.367 110.432C171.781 110.517 171.349 110.672 171.071 110.896C170.805 111.109 170.671 111.413 170.671 111.808C170.671 112.203 170.81 112.512 171.087 112.736C171.365 112.96 171.749 113.072 172.239 113.072ZM179.536 106V107.584C180.059 106.4 180.95 105.808 182.208 105.808C183.094 105.808 183.76 106.08 184.208 106.624C184.656 107.157 184.88 107.957 184.88 109.024V114H183.52V109.104C183.52 107.685 182.934 106.976 181.76 106.976C181.099 106.976 180.576 107.232 180.192 107.744C179.808 108.245 179.616 108.939 179.616 109.824V114H178.256V106H179.536ZM193.426 105.872C192.818 105.872 192.418 106.123 192.226 106.624C192.717 107.115 192.962 107.744 192.962 108.512C192.962 109.035 192.839 109.504 192.594 109.92C192.359 110.325 192.018 110.651 191.57 110.896C191.133 111.131 190.61 111.248 190.002 111.248C189.447 111.248 188.935 111.136 188.466 110.912C188.295 110.987 188.157 111.093 188.05 111.232C187.943 111.36 187.89 111.515 187.89 111.696C187.89 111.941 187.991 112.139 188.194 112.288C188.407 112.437 188.749 112.512 189.218 112.512H191.17C192.066 112.512 192.743 112.709 193.202 113.104C193.661 113.488 193.89 114.043 193.89 114.768C193.89 115.557 193.565 116.176 192.914 116.624C192.263 117.083 191.266 117.312 189.922 117.312C188.621 117.312 187.693 117.109 187.138 116.704C186.594 116.299 186.322 115.771 186.322 115.12C186.322 114.736 186.434 114.395 186.658 114.096C186.882 113.808 187.202 113.595 187.618 113.456C186.999 113.179 186.69 112.715 186.69 112.064C186.69 111.68 186.791 111.349 186.994 111.072C187.197 110.795 187.474 110.592 187.826 110.464C187.303 109.963 187.042 109.312 187.042 108.512C187.042 107.723 187.309 107.077 187.842 106.576C188.375 106.064 189.095 105.808 190.002 105.808C190.567 105.808 191.09 105.92 191.57 106.144C191.698 105.707 191.917 105.355 192.226 105.088C192.546 104.821 192.962 104.688 193.474 104.688C193.666 104.688 193.842 104.709 194.002 104.752V105.936C193.789 105.893 193.597 105.872 193.426 105.872ZM190.002 110.208C190.503 110.208 190.909 110.053 191.218 109.744C191.527 109.424 191.682 109.019 191.682 108.528C191.682 108.037 191.527 107.637 191.218 107.328C190.909 107.008 190.503 106.848 190.002 106.848C189.49 106.848 189.079 107.003 188.77 107.312C188.471 107.621 188.322 108.021 188.322 108.512C188.322 109.003 188.477 109.408 188.786 109.728C189.095 110.048 189.501 110.208 190.002 110.208ZM189.17 113.712C188.999 113.712 188.775 113.701 188.498 113.68C188.221 113.808 188.007 113.979 187.858 114.192C187.719 114.405 187.65 114.635 187.65 114.88C187.65 115.349 187.858 115.685 188.274 115.888C188.701 116.091 189.303 116.192 190.082 116.192C190.989 116.192 191.623 116.069 191.986 115.824C192.349 115.589 192.53 115.269 192.53 114.864C192.53 114.491 192.391 114.203 192.114 114C191.837 113.808 191.421 113.712 190.866 113.712H189.17ZM201.53 110.4H195.85C195.861 111.179 196.079 111.808 196.506 112.288C196.943 112.757 197.519 112.992 198.234 112.992C198.746 112.992 199.183 112.864 199.546 112.608C199.909 112.341 200.181 111.963 200.362 111.472L201.482 111.968C201.205 112.693 200.778 113.248 200.202 113.632C199.637 114.005 198.949 114.192 198.138 114.192C196.986 114.192 196.09 113.84 195.45 113.136C194.81 112.421 194.49 111.408 194.49 110.096C194.49 108.752 194.81 107.701 195.45 106.944C196.09 106.187 196.981 105.808 198.122 105.808C199.21 105.808 200.047 106.117 200.634 106.736C201.231 107.355 201.53 108.256 201.53 109.44V110.4ZM200.154 109.12C200.154 108.395 199.973 107.84 199.61 107.456C199.258 107.072 198.751 106.88 198.09 106.88C197.397 106.88 196.853 107.093 196.458 107.52C196.074 107.947 195.871 108.539 195.85 109.296H200.154V109.12ZM207.577 106V103.904L208.937 103.328V106H210.937V107.12H208.937V111.552C208.937 112.011 209.027 112.347 209.209 112.56C209.401 112.763 209.699 112.864 210.105 112.864C210.339 112.864 210.617 112.827 210.937 112.752V114C210.585 114.096 210.19 114.144 209.753 114.144C208.942 114.144 208.377 113.925 208.057 113.488C207.737 113.051 207.577 112.421 207.577 111.6V107.12H206.089V106H207.577ZM215.539 114.192C214.793 114.192 214.137 114.027 213.571 113.696C213.006 113.355 212.569 112.869 212.259 112.24C211.961 111.611 211.811 110.864 211.811 110C211.811 109.136 211.961 108.389 212.259 107.76C212.569 107.131 213.006 106.651 213.571 106.32C214.137 105.979 214.793 105.808 215.539 105.808C216.286 105.808 216.942 105.979 217.507 106.32C218.073 106.651 218.505 107.131 218.803 107.76C219.113 108.389 219.267 109.136 219.267 110C219.267 110.864 219.113 111.611 218.803 112.24C218.505 112.869 218.073 113.355 217.507 113.696C216.942 114.027 216.286 114.192 215.539 114.192ZM215.539 113.008C216.265 113.008 216.825 112.752 217.219 112.24C217.625 111.728 217.827 110.981 217.827 110C217.827 109.019 217.625 108.272 217.219 107.76C216.825 107.248 216.265 106.992 215.539 106.992C214.814 106.992 214.249 107.248 213.843 107.76C213.449 108.272 213.251 109.019 213.251 110C213.251 110.981 213.449 111.728 213.843 112.24C214.249 112.752 214.814 113.008 215.539 113.008ZM227.658 114.192C226.709 114.192 225.93 113.979 225.322 113.552C224.725 113.125 224.357 112.517 224.218 111.728L225.594 111.488C225.69 111.989 225.919 112.379 226.282 112.656C226.645 112.933 227.119 113.072 227.706 113.072C228.229 113.072 228.634 112.96 228.922 112.736C229.221 112.501 229.37 112.208 229.37 111.856C229.37 111.515 229.274 111.259 229.082 111.088C228.89 110.917 228.602 110.8 228.218 110.736L226.65 110.448C225.967 110.32 225.439 110.069 225.066 109.696C224.703 109.312 224.522 108.816 224.522 108.208C224.522 107.504 224.794 106.928 225.338 106.48C225.893 106.032 226.634 105.808 227.562 105.808C228.458 105.808 229.189 106 229.754 106.384C230.33 106.768 230.655 107.296 230.73 107.968L229.386 108.272C229.29 107.856 229.082 107.525 228.762 107.28C228.442 107.035 228.021 106.912 227.498 106.912C226.986 106.912 226.581 107.019 226.282 107.232C225.994 107.445 225.85 107.749 225.85 108.144C225.85 108.464 225.951 108.715 226.154 108.896C226.367 109.077 226.677 109.205 227.082 109.28L228.634 109.568C229.349 109.707 229.871 109.957 230.202 110.32C230.543 110.672 230.714 111.147 230.714 111.744C230.714 112.48 230.442 113.072 229.898 113.52C229.365 113.968 228.618 114.192 227.658 114.192ZM238.969 110.4H233.289C233.3 111.179 233.519 111.808 233.945 112.288C234.383 112.757 234.959 112.992 235.673 112.992C236.185 112.992 236.623 112.864 236.985 112.608C237.348 112.341 237.62 111.963 237.801 111.472L238.921 111.968C238.644 112.693 238.217 113.248 237.641 113.632C237.076 114.005 236.388 114.192 235.577 114.192C234.425 114.192 233.529 113.84 232.889 113.136C232.249 112.421 231.929 111.408 231.929 110.096C231.929 108.752 232.249 107.701 232.889 106.944C233.529 106.187 234.42 105.808 235.561 105.808C236.649 105.808 237.487 106.117 238.073 106.736C238.671 107.355 238.969 108.256 238.969 109.44V110.4ZM237.593 109.12C237.593 108.395 237.412 107.84 237.049 107.456C236.697 107.072 236.191 106.88 235.529 106.88C234.836 106.88 234.292 107.093 233.897 107.52C233.513 107.947 233.311 108.539 233.289 109.296H237.593V109.12ZM247.212 110.4H241.532C241.543 111.179 241.761 111.808 242.188 112.288C242.625 112.757 243.201 112.992 243.916 112.992C244.428 112.992 244.865 112.864 245.228 112.608C245.591 112.341 245.863 111.963 246.044 111.472L247.164 111.968C246.887 112.693 246.46 113.248 245.884 113.632C245.319 114.005 244.631 114.192 243.82 114.192C242.668 114.192 241.772 113.84 241.132 113.136C240.492 112.421 240.172 111.408 240.172 110.096C240.172 108.752 240.492 107.701 241.132 106.944C241.772 106.187 242.663 105.808 243.804 105.808C244.892 105.808 245.729 106.117 246.316 106.736C246.913 107.355 247.212 108.256 247.212 109.44V110.4ZM245.836 109.12C245.836 108.395 245.655 107.84 245.292 107.456C244.94 107.072 244.433 106.88 243.772 106.88C243.079 106.88 242.535 107.093 242.14 107.52C241.756 107.947 241.553 108.539 241.532 109.296H245.836V109.12ZM255.979 114.192C255.232 114.192 254.576 114.027 254.011 113.696C253.445 113.355 253.008 112.869 252.699 112.24C252.4 111.611 252.251 110.864 252.251 110C252.251 109.136 252.4 108.389 252.699 107.76C253.008 107.131 253.445 106.651 254.011 106.32C254.576 105.979 255.232 105.808 255.979 105.808C256.725 105.808 257.381 105.979 257.947 106.32C258.512 106.651 258.944 107.131 259.243 107.76C259.552 108.389 259.707 109.136 259.707 110C259.707 110.864 259.552 111.611 259.243 112.24C258.944 112.869 258.512 113.355 257.947 113.696C257.381 114.027 256.725 114.192 255.979 114.192ZM255.979 113.008C256.704 113.008 257.264 112.752 257.659 112.24C258.064 111.728 258.267 110.981 258.267 110C258.267 109.019 258.064 108.272 257.659 107.76C257.264 107.248 256.704 106.992 255.979 106.992C255.253 106.992 254.688 107.248 254.283 107.76C253.888 108.272 253.691 109.019 253.691 110C253.691 110.981 253.888 111.728 254.283 112.24C254.688 112.752 255.253 113.008 255.979 113.008ZM261.829 106V103.904L263.189 103.328V106H265.189V107.12H263.189V111.552C263.189 112.011 263.28 112.347 263.461 112.56C263.653 112.763 263.952 112.864 264.357 112.864C264.592 112.864 264.869 112.827 265.189 112.752V114C264.837 114.096 264.443 114.144 264.005 114.144C263.195 114.144 262.629 113.925 262.309 113.488C261.989 113.051 261.829 112.421 261.829 111.6V107.12H260.341V106H261.829ZM268.302 102.4V107.504C268.782 106.373 269.657 105.808 270.926 105.808C271.79 105.808 272.446 106.08 272.894 106.624C273.342 107.168 273.566 107.968 273.566 109.024V114H272.206V109.12C272.206 108.416 272.057 107.883 271.758 107.52C271.47 107.157 271.038 106.976 270.462 106.976C269.779 106.976 269.246 107.227 268.862 107.728C268.489 108.219 268.302 108.917 268.302 109.824V114H266.942V102.4H268.302ZM282.206 110.4H276.526C276.536 111.179 276.755 111.808 277.182 112.288C277.619 112.757 278.195 112.992 278.91 112.992C279.422 112.992 279.859 112.864 280.222 112.608C280.584 112.341 280.856 111.963 281.038 111.472L282.158 111.968C281.88 112.693 281.454 113.248 280.878 113.632C280.312 114.005 279.624 114.192 278.814 114.192C277.662 114.192 276.766 113.84 276.126 113.136C275.486 112.421 275.166 111.408 275.166 110.096C275.166 108.752 275.486 107.701 276.126 106.944C276.766 106.187 277.656 105.808 278.798 105.808C279.886 105.808 280.723 106.117 281.31 106.736C281.907 107.355 282.206 108.256 282.206 109.44V110.4ZM280.83 109.12C280.83 108.395 280.648 107.84 280.286 107.456C279.934 107.072 279.427 106.88 278.766 106.88C278.072 106.88 277.528 107.093 277.134 107.52C276.75 107.947 276.547 108.539 276.526 109.296H280.83V109.12ZM285.392 107.824C285.595 107.227 285.904 106.741 286.32 106.368C286.747 105.995 287.248 105.808 287.824 105.808C287.952 105.808 288.048 105.813 288.112 105.824V107.152H288.048C287.291 107.152 286.704 107.36 286.288 107.776C285.947 108.117 285.728 108.512 285.632 108.96C285.536 109.408 285.488 109.947 285.488 110.576V114H284.128V106H285.392V107.824ZM295.89 114.192C294.93 114.192 294.232 113.925 293.794 113.392C293.368 112.859 293.154 112.096 293.154 111.104V106H294.514V110.944C294.514 111.616 294.653 112.133 294.93 112.496C295.218 112.848 295.624 113.024 296.146 113.024C296.786 113.024 297.304 112.773 297.698 112.272C298.093 111.771 298.29 111.115 298.29 110.304V106H299.65V114H298.37V112.496C298.189 112.987 297.869 113.392 297.41 113.712C296.952 114.032 296.445 114.192 295.89 114.192ZM304.935 114.192C303.986 114.192 303.207 113.979 302.599 113.552C302.002 113.125 301.634 112.517 301.495 111.728L302.871 111.488C302.967 111.989 303.196 112.379 303.559 112.656C303.922 112.933 304.396 113.072 304.983 113.072C305.506 113.072 305.911 112.96 306.199 112.736C306.498 112.501 306.647 112.208 306.647 111.856C306.647 111.515 306.551 111.259 306.359 111.088C306.167 110.917 305.879 110.8 305.495 110.736L303.927 110.448C303.244 110.32 302.716 110.069 302.343 109.696C301.98 109.312 301.799 108.816 301.799 108.208C301.799 107.504 302.071 106.928 302.615 106.48C303.17 106.032 303.911 105.808 304.839 105.808C305.735 105.808 306.466 106 307.031 106.384C307.607 106.768 307.932 107.296 308.007 107.968L306.663 108.272C306.567 107.856 306.359 107.525 306.039 107.28C305.719 107.035 305.298 106.912 304.775 106.912C304.263 106.912 303.858 107.019 303.559 107.232C303.271 107.445 303.127 107.749 303.127 108.144C303.127 108.464 303.228 108.715 303.431 108.896C303.644 109.077 303.954 109.205 304.359 109.28L305.911 109.568C306.626 109.707 307.148 109.957 307.479 110.32C307.82 110.672 307.991 111.147 307.991 111.744C307.991 112.48 307.719 113.072 307.175 113.52C306.642 113.968 305.895 114.192 304.935 114.192ZM311.91 114.192C311.089 114.192 310.433 113.979 309.942 113.552C309.452 113.125 309.206 112.555 309.206 111.84C309.206 111.435 309.302 111.072 309.494 110.752C309.686 110.421 309.964 110.155 310.326 109.952C310.636 109.803 310.998 109.675 311.414 109.568C311.83 109.461 312.364 109.371 313.014 109.296L314.502 109.12V108.992C314.502 108.256 314.364 107.728 314.086 107.408C313.809 107.088 313.361 106.928 312.742 106.928C312.198 106.928 311.766 107.067 311.446 107.344C311.126 107.621 310.95 108.011 310.918 108.512H309.462C309.516 107.691 309.836 107.035 310.422 106.544C311.02 106.053 311.788 105.808 312.726 105.808C313.825 105.808 314.625 106.075 315.126 106.608C315.628 107.131 315.878 107.973 315.878 109.136V111.296C315.878 112.512 315.969 113.413 316.15 114H314.726C314.662 113.552 314.62 113.067 314.598 112.544C314.417 113.056 314.086 113.461 313.606 113.76C313.126 114.048 312.561 114.192 311.91 114.192ZM312.214 113.072C312.908 113.072 313.462 112.843 313.878 112.384C314.305 111.915 314.518 111.291 314.518 110.512V110.112L312.342 110.432C311.756 110.517 311.324 110.672 311.046 110.896C310.78 111.109 310.646 111.413 310.646 111.808C310.646 112.203 310.785 112.512 311.062 112.736C311.34 112.96 311.724 113.072 312.214 113.072ZM324.299 105.872C323.691 105.872 323.291 106.123 323.099 106.624C323.59 107.115 323.835 107.744 323.835 108.512C323.835 109.035 323.712 109.504 323.467 109.92C323.232 110.325 322.891 110.651 322.443 110.896C322.006 111.131 321.483 111.248 320.875 111.248C320.32 111.248 319.808 111.136 319.339 110.912C319.168 110.987 319.03 111.093 318.923 111.232C318.816 111.36 318.763 111.515 318.763 111.696C318.763 111.941 318.864 112.139 319.067 112.288C319.28 112.437 319.622 112.512 320.091 112.512H322.043C322.939 112.512 323.616 112.709 324.075 113.104C324.534 113.488 324.763 114.043 324.763 114.768C324.763 115.557 324.438 116.176 323.787 116.624C323.136 117.083 322.139 117.312 320.795 117.312C319.494 117.312 318.566 117.109 318.011 116.704C317.467 116.299 317.195 115.771 317.195 115.12C317.195 114.736 317.307 114.395 317.531 114.096C317.755 113.808 318.075 113.595 318.491 113.456C317.872 113.179 317.563 112.715 317.563 112.064C317.563 111.68 317.664 111.349 317.867 111.072C318.07 110.795 318.347 110.592 318.699 110.464C318.176 109.963 317.915 109.312 317.915 108.512C317.915 107.723 318.182 107.077 318.715 106.576C319.248 106.064 319.968 105.808 320.875 105.808C321.44 105.808 321.963 105.92 322.443 106.144C322.571 105.707 322.79 105.355 323.099 105.088C323.419 104.821 323.835 104.688 324.347 104.688C324.539 104.688 324.715 104.709 324.875 104.752V105.936C324.662 105.893 324.47 105.872 324.299 105.872ZM320.875 110.208C321.376 110.208 321.782 110.053 322.091 109.744C322.4 109.424 322.555 109.019 322.555 108.528C322.555 108.037 322.4 107.637 322.091 107.328C321.782 107.008 321.376 106.848 320.875 106.848C320.363 106.848 319.952 107.003 319.643 107.312C319.344 107.621 319.195 108.021 319.195 108.512C319.195 109.003 319.35 109.408 319.659 109.728C319.968 110.048 320.374 110.208 320.875 110.208ZM320.043 113.712C319.872 113.712 319.648 113.701 319.371 113.68C319.094 113.808 318.88 113.979 318.731 114.192C318.592 114.405 318.523 114.635 318.523 114.88C318.523 115.349 318.731 115.685 319.147 115.888C319.574 116.091 320.176 116.192 320.955 116.192C321.862 116.192 322.496 116.069 322.859 115.824C323.222 115.589 323.403 115.269 323.403 114.864C323.403 114.491 323.264 114.203 322.987 114C322.71 113.808 322.294 113.712 321.739 113.712H320.043ZM332.403 110.4H326.723C326.734 111.179 326.952 111.808 327.379 112.288C327.816 112.757 328.392 112.992 329.107 112.992C329.619 112.992 330.056 112.864 330.419 112.608C330.782 112.341 331.054 111.963 331.235 111.472L332.355 111.968C332.078 112.693 331.651 113.248 331.075 113.632C330.51 114.005 329.822 114.192 329.011 114.192C327.859 114.192 326.963 113.84 326.323 113.136C325.683 112.421 325.363 111.408 325.363 110.096C325.363 108.752 325.683 107.701 326.323 106.944C326.963 106.187 327.854 105.808 328.995 105.808C330.083 105.808 330.92 106.117 331.507 106.736C332.104 107.355 332.403 108.256 332.403 109.44V110.4ZM331.027 109.12C331.027 108.395 330.846 107.84 330.483 107.456C330.131 107.072 329.624 106.88 328.963 106.88C328.27 106.88 327.726 107.093 327.331 107.52C326.947 107.947 326.744 108.539 326.723 109.296H331.027V109.12ZM335.721 114H333.849V112.112H335.721V114Z" fill="black"/>
<defs>
<clipPath id="clip0_3555_5670">
<rect width="57" height="56" fill="white" transform="translate(151.5)"/>
</clipPath>
</defs>
</svg>
