<svg width="360" height="120" viewBox="0 0 360 120" fill="none" xmlns="http://www.w3.org/2000/svg">
<rect x="151.465" width="57.0718" height="7.39819" fill="#CCCCCA"/>
<rect x="151.465" y="9.66809" width="46.5029" height="7.39819" fill="#CCCCCA"/>
<rect x="151.465" y="19.3362" width="35.9341" height="7.39819" fill="#CCCCCA"/>
<rect x="151.465" y="29.0043" width="22.1946" height="7.39819" fill="#CCCCCA"/>
<rect x="151.465" y="38.6724" width="11.6257" height="7.39819" fill="#CCCCCA"/>
<rect x="151.465" y="48.3405" width="6.34131" height="7.39819" fill="#CCCCCA"/>
<path d="M155.716 78.3786L159.988 85.8186C160.298 86.3413 160.532 86.8266 160.692 87.2746H160.724C160.703 86.72 160.692 86.2293 160.692 85.8026V78.3786H162.564V89.7386H160.244L155.908 82.2666C155.599 81.7226 155.37 81.248 155.22 80.8426H155.188C155.21 81.1306 155.22 81.632 155.22 82.3466V89.7386H153.348V78.3786H155.716ZM168.18 89.9306C167.412 89.9306 166.729 89.7653 166.132 89.4346C165.545 89.104 165.086 88.624 164.756 87.9946C164.425 87.3546 164.26 86.5973 164.26 85.7226C164.26 84.848 164.425 84.096 164.756 83.4666C165.086 82.8373 165.545 82.3626 166.132 82.0426C166.729 81.712 167.412 81.5466 168.18 81.5466C168.948 81.5466 169.625 81.712 170.212 82.0426C170.809 82.3626 171.273 82.8373 171.604 83.4666C171.934 84.096 172.1 84.848 172.1 85.7226C172.1 86.5973 171.934 87.3546 171.604 87.9946C171.273 88.624 170.809 89.104 170.212 89.4346C169.625 89.7653 168.948 89.9306 168.18 89.9306ZM168.18 88.4746C168.798 88.4746 169.278 88.2453 169.62 87.7866C169.961 87.3173 170.132 86.6293 170.132 85.7226C170.132 84.8266 169.961 84.1493 169.62 83.6906C169.289 83.232 168.809 83.0026 168.18 83.0026C167.55 83.0026 167.065 83.232 166.724 83.6906C166.382 84.1493 166.212 84.8266 166.212 85.7226C166.212 86.6186 166.382 87.3013 166.724 87.7706C167.065 88.24 167.55 88.4746 168.18 88.4746ZM179.993 89.9306C179.353 89.9306 178.787 89.76 178.297 89.4186C177.806 89.0666 177.427 88.576 177.161 87.9466C176.894 87.3066 176.761 86.576 176.761 85.7546C176.761 84.9226 176.899 84.192 177.177 83.5626C177.465 82.9226 177.865 82.4266 178.377 82.0746C178.889 81.7226 179.475 81.5466 180.137 81.5466C181.235 81.5466 182.003 81.9893 182.441 82.8746V78.1386H184.361V89.7386H182.553V88.2986C182.329 88.8106 181.993 89.2106 181.545 89.4986C181.107 89.7866 180.59 89.9306 179.993 89.9306ZM180.649 88.4586C181.214 88.4586 181.662 88.24 181.993 87.8026C182.323 87.3546 182.489 86.7573 182.489 86.0106V85.4986C182.489 84.72 182.323 84.112 181.993 83.6746C181.662 83.2373 181.209 83.0186 180.633 83.0186C180.046 83.0186 179.587 83.2586 179.257 83.7386C178.926 84.208 178.761 84.8693 178.761 85.7226C178.761 86.576 178.926 87.248 179.257 87.7386C179.598 88.2186 180.062 88.4586 180.649 88.4586ZM188.707 89.9306C187.885 89.9306 187.224 89.7173 186.723 89.2906C186.221 88.8533 185.971 88.2773 185.971 87.5626C185.971 87.1786 186.051 86.832 186.211 86.5226C186.381 86.2133 186.627 85.9573 186.947 85.7546C187.235 85.584 187.581 85.4453 187.987 85.3386C188.392 85.2213 188.915 85.12 189.555 85.0346L191.251 84.8266V84.6186C191.251 84.0213 191.128 83.5893 190.883 83.3226C190.648 83.0453 190.275 82.9066 189.763 82.9066C189.293 82.9066 188.92 83.0293 188.643 83.2746C188.376 83.5093 188.227 83.856 188.195 84.3146H186.227C186.291 83.4613 186.637 82.7893 187.267 82.2986C187.896 81.7973 188.728 81.5466 189.763 81.5466C190.947 81.5466 191.811 81.8133 192.355 82.3466C192.909 82.8693 193.187 83.712 193.187 84.8746V87.2586C193.187 88.3466 193.267 89.1733 193.427 89.7386H191.507C191.432 89.3013 191.389 88.8426 191.379 88.3626C191.187 88.8533 190.851 89.2373 190.371 89.5146C189.901 89.792 189.347 89.9306 188.707 89.9306ZM189.315 88.5706C189.912 88.5706 190.392 88.3786 190.755 87.9946C191.117 87.6 191.299 87.088 191.299 86.4586V85.9466L189.491 86.2186C188.957 86.304 188.568 86.448 188.323 86.6506C188.077 86.8533 187.955 87.1253 187.955 87.4666C187.955 87.808 188.072 88.08 188.307 88.2826C188.552 88.4746 188.888 88.5706 189.315 88.5706ZM195.488 81.7386V79.7226L197.408 78.9546V81.7386H199.36V83.1306H197.408V86.9546C197.408 87.3813 197.504 87.7013 197.696 87.9146C197.888 88.1173 198.181 88.2186 198.576 88.2186C198.757 88.2186 199.018 88.1866 199.36 88.1226V89.7386C198.89 89.8346 198.453 89.8826 198.048 89.8826C197.13 89.8826 196.474 89.6586 196.08 89.2106C195.685 88.7626 195.488 88.112 195.488 87.2586V83.1306H194.048V81.7386H195.488ZM202.817 89.9306C201.995 89.9306 201.334 89.7173 200.833 89.2906C200.331 88.8533 200.081 88.2773 200.081 87.5626C200.081 87.1786 200.161 86.832 200.321 86.5226C200.491 86.2133 200.737 85.9573 201.057 85.7546C201.345 85.584 201.691 85.4453 202.097 85.3386C202.502 85.2213 203.025 85.12 203.665 85.0346L205.361 84.8266V84.6186C205.361 84.0213 205.238 83.5893 204.993 83.3226C204.758 83.0453 204.385 82.9066 203.873 82.9066C203.403 82.9066 203.03 83.0293 202.753 83.2746C202.486 83.5093 202.337 83.856 202.305 84.3146H200.337C200.401 83.4613 200.747 82.7893 201.377 82.2986C202.006 81.7973 202.838 81.5466 203.873 81.5466C205.057 81.5466 205.921 81.8133 206.465 82.3466C207.019 82.8693 207.297 83.712 207.297 84.8746V87.2586C207.297 88.3466 207.377 89.1733 207.537 89.7386H205.617C205.542 89.3013 205.499 88.8426 205.489 88.3626C205.297 88.8533 204.961 89.2373 204.481 89.5146C204.011 89.792 203.457 89.9306 202.817 89.9306ZM203.425 88.5706C204.022 88.5706 204.502 88.3786 204.865 87.9946C205.227 87.6 205.409 87.088 205.409 86.4586V85.9466L203.601 86.2186C203.067 86.304 202.678 86.448 202.433 86.6506C202.187 86.8533 202.065 87.1253 202.065 87.4666C202.065 87.808 202.182 88.08 202.417 88.2826C202.662 88.4746 202.998 88.5706 203.425 88.5706Z" fill="black"/>
<path d="M28.5212 114.011C27.1346 114.011 26.0519 113.68 25.2732 113.019C24.4946 112.347 24.0572 111.461 23.9612 110.363L25.4972 110.139C25.6146 110.907 25.9186 111.536 26.4092 112.027C26.9106 112.517 27.6306 112.763 28.5692 112.763C29.2732 112.763 29.8706 112.603 30.3612 112.283C30.8519 111.963 31.0972 111.472 31.0972 110.811C31.0972 110.181 30.9212 109.723 30.5692 109.435C30.2172 109.136 29.6732 108.912 28.9372 108.763L27.2892 108.427C25.3906 108.032 24.4412 106.987 24.4412 105.291C24.4412 104.661 24.6012 104.107 24.9212 103.627C25.2519 103.147 25.7106 102.773 26.2972 102.507C26.8946 102.24 27.5932 102.107 28.3932 102.107C29.5772 102.107 30.5479 102.379 31.3052 102.923C32.0626 103.467 32.4946 104.272 32.6012 105.339L31.0812 105.659C30.8786 104.091 29.9719 103.307 28.3612 103.307C27.6572 103.307 27.0866 103.472 26.6492 103.803C26.2226 104.133 26.0092 104.581 26.0092 105.147C26.0092 105.691 26.1586 106.117 26.4572 106.427C26.7559 106.736 27.2252 106.96 27.8652 107.099L29.5292 107.451C30.5212 107.653 31.2892 108 31.8332 108.491C32.3879 108.981 32.6652 109.707 32.6652 110.667C32.6652 111.275 32.5106 111.835 32.2012 112.347C31.9026 112.848 31.4386 113.253 30.8092 113.563C30.1906 113.861 29.4279 114.011 28.5212 114.011ZM40.7494 110.139H35.0694C35.08 110.917 35.2987 111.547 35.7254 112.027C36.1627 112.496 36.7387 112.731 37.4534 112.731C37.9654 112.731 38.4027 112.603 38.7654 112.347C39.128 112.08 39.4 111.701 39.5814 111.211L40.7014 111.707C40.424 112.432 39.9974 112.987 39.4214 113.371C38.856 113.744 38.168 113.931 37.3574 113.931C36.2054 113.931 35.3094 113.579 34.6694 112.875C34.0294 112.16 33.7094 111.147 33.7094 109.835C33.7094 108.491 34.0294 107.44 34.6694 106.683C35.3094 105.925 36.2 105.547 37.3414 105.547C38.4294 105.547 39.2667 105.856 39.8534 106.475C40.4507 107.093 40.7494 107.995 40.7494 109.179V110.139ZM39.3734 108.859C39.3734 108.133 39.192 107.579 38.8294 107.195C38.4774 106.811 37.9707 106.619 37.3094 106.619C36.616 106.619 36.072 106.832 35.6774 107.259C35.2934 107.685 35.0907 108.277 35.0694 109.035H39.3734V108.859ZM44.1119 113.739H42.7519V102.139H44.1119V113.739ZM53.0781 110.139H47.3981C47.4088 110.917 47.6275 111.547 48.0541 112.027C48.4915 112.496 49.0675 112.731 49.7821 112.731C50.2941 112.731 50.7315 112.603 51.0941 112.347C51.4568 112.08 51.7288 111.701 51.9101 111.211L53.0301 111.707C52.7528 112.432 52.3261 112.987 51.7501 113.371C51.1848 113.744 50.4968 113.931 49.6861 113.931C48.5341 113.931 47.6381 113.579 46.9981 112.875C46.3581 112.16 46.0381 111.147 46.0381 109.835C46.0381 108.491 46.3581 107.44 46.9981 106.683C47.6381 105.925 48.5288 105.547 49.6701 105.547C50.7581 105.547 51.5955 105.856 52.1821 106.475C52.7795 107.093 53.0781 107.995 53.0781 109.179V110.139ZM51.7021 108.859C51.7021 108.133 51.5208 107.579 51.1581 107.195C50.8061 106.811 50.2995 106.619 49.6381 106.619C48.9448 106.619 48.4008 106.832 48.0061 107.259C47.6221 107.685 47.4195 108.277 47.3981 109.035H51.7021V108.859ZM57.9606 113.931C57.2246 113.931 56.5793 113.76 56.0246 113.419C55.47 113.077 55.038 112.592 54.7286 111.963C54.43 111.323 54.2806 110.581 54.2806 109.739C54.2806 108.437 54.606 107.413 55.2566 106.667C55.918 105.92 56.8193 105.547 57.9606 105.547C58.8993 105.547 59.6566 105.803 60.2326 106.315C60.8086 106.827 61.15 107.541 61.2566 108.459L59.8646 108.619C59.79 108.011 59.582 107.547 59.2406 107.227C58.91 106.896 58.4726 106.731 57.9286 106.731C57.2353 106.731 56.6913 106.997 56.2966 107.531C55.9126 108.053 55.7206 108.784 55.7206 109.723C55.7206 110.683 55.918 111.429 56.3126 111.963C56.7073 112.485 57.262 112.747 57.9766 112.747C58.5206 112.747 58.958 112.587 59.2886 112.267C59.6193 111.947 59.838 111.472 59.9446 110.843L61.2406 111.051C61.0913 111.968 60.7286 112.677 60.1526 113.179C59.5873 113.68 58.8566 113.931 57.9606 113.931ZM63.3905 105.739V103.643L64.7505 103.067V105.739H66.7505V106.859H64.7505V111.291C64.7505 111.749 64.8412 112.085 65.0225 112.299C65.2145 112.501 65.5132 112.603 65.9185 112.603C66.1532 112.603 66.4305 112.565 66.7505 112.491V113.739C66.3985 113.835 66.0038 113.883 65.5665 113.883C64.7558 113.883 64.1905 113.664 63.8705 113.227C63.5505 112.789 63.3905 112.16 63.3905 111.339V106.859H61.9025V105.739H63.3905ZM74.2434 113.931C73.422 113.931 72.766 113.717 72.2754 113.291C71.7847 112.864 71.5394 112.293 71.5394 111.579C71.5394 111.173 71.6354 110.811 71.8274 110.491C72.0194 110.16 72.2967 109.893 72.6594 109.691C72.9687 109.541 73.3314 109.413 73.7474 109.307C74.1634 109.2 74.6967 109.109 75.3474 109.035L76.8354 108.859V108.731C76.8354 107.995 76.6967 107.467 76.4194 107.147C76.142 106.827 75.694 106.667 75.0754 106.667C74.5314 106.667 74.0994 106.805 73.7794 107.083C73.4594 107.36 73.2834 107.749 73.2514 108.251H71.7954C71.8487 107.429 72.1687 106.773 72.7554 106.283C73.3527 105.792 74.1207 105.547 75.0594 105.547C76.158 105.547 76.958 105.813 77.4594 106.347C77.9607 106.869 78.2114 107.712 78.2114 108.875V111.035C78.2114 112.251 78.302 113.152 78.4834 113.739H77.0594C76.9954 113.291 76.9527 112.805 76.9314 112.283C76.75 112.795 76.4194 113.2 75.9394 113.499C75.4594 113.787 74.894 113.931 74.2434 113.931ZM74.5474 112.811C75.2407 112.811 75.7954 112.581 76.2114 112.123C76.638 111.653 76.8514 111.029 76.8514 110.251V109.851L74.6754 110.171C74.0887 110.256 73.6567 110.411 73.3794 110.635C73.1127 110.848 72.9794 111.152 72.9794 111.547C72.9794 111.941 73.118 112.251 73.3954 112.475C73.6727 112.699 74.0567 112.811 74.5474 112.811ZM81.8444 105.739V107.323C82.367 106.139 83.2577 105.547 84.5164 105.547C85.4017 105.547 86.0684 105.819 86.5164 106.363C86.9644 106.896 87.1884 107.696 87.1884 108.763V113.739H85.8284V108.843C85.8284 107.424 85.2417 106.715 84.0684 106.715C83.407 106.715 82.8844 106.971 82.5004 107.483C82.1164 107.984 81.9244 108.677 81.9244 109.563V113.739H80.5644V105.739H81.8444ZM92.518 113.931C91.7713 113.931 91.1153 113.765 90.55 113.435C89.9847 113.093 89.5473 112.608 89.238 111.979C88.9393 111.349 88.79 110.603 88.79 109.739C88.79 108.875 88.9393 108.128 89.238 107.499C89.5473 106.869 89.9847 106.389 90.55 106.059C91.1153 105.717 91.7713 105.547 92.518 105.547C93.2647 105.547 93.9207 105.717 94.486 106.059C95.0513 106.389 95.4833 106.869 95.782 107.499C96.0913 108.128 96.246 108.875 96.246 109.739C96.246 110.603 96.0913 111.349 95.782 111.979C95.4833 112.608 95.0513 113.093 94.486 113.435C93.9207 113.765 93.2647 113.931 92.518 113.931ZM92.518 112.747C93.2433 112.747 93.8033 112.491 94.198 111.979C94.6033 111.467 94.806 110.72 94.806 109.739C94.806 108.757 94.6033 108.011 94.198 107.499C93.8033 106.987 93.2433 106.731 92.518 106.731C91.7927 106.731 91.2273 106.987 90.822 107.499C90.4273 108.011 90.23 108.757 90.23 109.739C90.23 110.72 90.4273 111.467 90.822 111.979C91.2273 112.491 91.7927 112.747 92.518 112.747ZM98.3686 105.739V103.643L99.7286 103.067V105.739H101.729V106.859H99.7286V111.291C99.7286 111.749 99.8193 112.085 100.001 112.299C100.193 112.501 100.491 112.603 100.897 112.603C101.131 112.603 101.409 112.565 101.729 112.491V113.739C101.377 113.835 100.982 113.883 100.545 113.883C99.734 113.883 99.1686 113.664 98.8486 113.227C98.5286 112.789 98.3686 112.16 98.3686 111.339V106.859H96.8806V105.739H98.3686ZM104.841 102.139V107.243C105.321 106.112 106.196 105.547 107.465 105.547C108.329 105.547 108.985 105.819 109.433 106.363C109.881 106.907 110.105 107.707 110.105 108.763V113.739H108.745V108.859C108.745 108.155 108.596 107.621 108.297 107.259C108.009 106.896 107.577 106.715 107.001 106.715C106.319 106.715 105.785 106.965 105.401 107.467C105.028 107.957 104.841 108.656 104.841 109.563V113.739H103.481V102.139H104.841ZM118.745 110.139H113.065C113.076 110.917 113.294 111.547 113.721 112.027C114.158 112.496 114.734 112.731 115.449 112.731C115.961 112.731 116.398 112.603 116.761 112.347C117.124 112.08 117.396 111.701 117.577 111.211L118.697 111.707C118.42 112.432 117.993 112.987 117.417 113.371C116.852 113.744 116.164 113.931 115.353 113.931C114.201 113.931 113.305 113.579 112.665 112.875C112.025 112.16 111.705 111.147 111.705 109.835C111.705 108.491 112.025 107.44 112.665 106.683C113.305 105.925 114.196 105.547 115.337 105.547C116.425 105.547 117.262 105.856 117.849 106.475C118.446 107.093 118.745 107.995 118.745 109.179V110.139ZM117.369 108.859C117.369 108.133 117.188 107.579 116.825 107.195C116.473 106.811 115.966 106.619 115.305 106.619C114.612 106.619 114.068 106.832 113.673 107.259C113.289 107.685 113.086 108.277 113.065 109.035H117.369V108.859ZM121.931 107.563C122.134 106.965 122.443 106.48 122.859 106.107C123.286 105.733 123.787 105.547 124.363 105.547C124.491 105.547 124.587 105.552 124.651 105.563V106.891H124.587C123.83 106.891 123.243 107.099 122.827 107.515C122.486 107.856 122.267 108.251 122.171 108.699C122.075 109.147 122.027 109.685 122.027 110.315V113.739H120.667V105.739H121.931V107.563ZM132.462 113.931C131.822 113.931 131.256 113.76 130.766 113.419C130.275 113.067 129.891 112.576 129.614 111.947C129.347 111.307 129.214 110.571 129.214 109.739C129.214 108.928 129.358 108.208 129.646 107.579C129.934 106.939 130.334 106.443 130.846 106.091C131.368 105.728 131.96 105.547 132.622 105.547C133.688 105.547 134.472 106.005 134.974 106.923V102.139H136.334V113.739H135.054V112.251C134.808 112.795 134.467 113.211 134.03 113.499C133.603 113.787 133.08 113.931 132.462 113.931ZM132.83 112.731C133.491 112.731 134.019 112.48 134.414 111.979C134.808 111.467 135.006 110.784 135.006 109.931V109.563C135.006 108.688 134.808 108 134.414 107.499C134.03 106.997 133.502 106.747 132.83 106.747C132.147 106.747 131.614 107.013 131.23 107.547C130.846 108.069 130.654 108.8 130.654 109.739C130.654 110.677 130.846 111.413 131.23 111.947C131.614 112.469 132.147 112.731 132.83 112.731ZM140.957 113.931C140.136 113.931 139.48 113.717 138.989 113.291C138.498 112.864 138.253 112.293 138.253 111.579C138.253 111.173 138.349 110.811 138.541 110.491C138.733 110.16 139.01 109.893 139.373 109.691C139.682 109.541 140.045 109.413 140.461 109.307C140.877 109.2 141.41 109.109 142.061 109.035L143.549 108.859V108.731C143.549 107.995 143.41 107.467 143.133 107.147C142.856 106.827 142.408 106.667 141.789 106.667C141.245 106.667 140.813 106.805 140.493 107.083C140.173 107.36 139.997 107.749 139.965 108.251H138.509C138.562 107.429 138.882 106.773 139.469 106.283C140.066 105.792 140.834 105.547 141.773 105.547C142.872 105.547 143.672 105.813 144.173 106.347C144.674 106.869 144.925 107.712 144.925 108.875V111.035C144.925 112.251 145.016 113.152 145.197 113.739H143.773C143.709 113.291 143.666 112.805 143.645 112.283C143.464 112.795 143.133 113.2 142.653 113.499C142.173 113.787 141.608 113.931 140.957 113.931ZM141.261 112.811C141.954 112.811 142.509 112.581 142.925 112.123C143.352 111.653 143.565 111.029 143.565 110.251V109.851L141.389 110.171C140.802 110.256 140.37 110.411 140.093 110.635C139.826 110.848 139.693 111.152 139.693 111.547C139.693 111.941 139.832 112.251 140.109 112.475C140.386 112.699 140.77 112.811 141.261 112.811ZM147.566 105.739V103.643L148.926 103.067V105.739H150.926V106.859H148.926V111.291C148.926 111.749 149.017 112.085 149.198 112.299C149.39 112.501 149.689 112.603 150.094 112.603C150.329 112.603 150.606 112.565 150.926 112.491V113.739C150.574 113.835 150.179 113.883 149.742 113.883C148.931 113.883 148.366 113.664 148.046 113.227C147.726 112.789 147.566 112.16 147.566 111.339V106.859H146.078V105.739H147.566ZM158.841 110.139H153.161C153.171 110.917 153.39 111.547 153.817 112.027C154.254 112.496 154.83 112.731 155.545 112.731C156.057 112.731 156.494 112.603 156.857 112.347C157.219 112.08 157.491 111.701 157.673 111.211L158.793 111.707C158.515 112.432 158.089 112.987 157.513 113.371C156.947 113.744 156.259 113.931 155.449 113.931C154.297 113.931 153.401 113.579 152.761 112.875C152.121 112.16 151.801 111.147 151.801 109.835C151.801 108.491 152.121 107.44 152.761 106.683C153.401 105.925 154.291 105.547 155.433 105.547C156.521 105.547 157.358 105.856 157.945 106.475C158.542 107.093 158.841 107.995 158.841 109.179V110.139ZM157.465 108.859C157.465 108.133 157.283 107.579 156.921 107.195C156.569 106.811 156.062 106.619 155.401 106.619C154.707 106.619 154.163 106.832 153.769 107.259C153.385 107.685 153.182 108.277 153.161 109.035H157.465V108.859ZM165.863 107.563C166.066 106.965 166.375 106.48 166.791 106.107C167.218 105.733 167.719 105.547 168.295 105.547C168.423 105.547 168.519 105.552 168.583 105.563V106.891H168.519C167.762 106.891 167.175 107.099 166.759 107.515C166.418 107.856 166.199 108.251 166.103 108.699C166.007 109.147 165.959 109.685 165.959 110.315V113.739H164.599V105.739H165.863V107.563ZM171.935 113.931C171.114 113.931 170.458 113.717 169.967 113.291C169.477 112.864 169.231 112.293 169.231 111.579C169.231 111.173 169.327 110.811 169.519 110.491C169.711 110.16 169.989 109.893 170.351 109.691C170.661 109.541 171.023 109.413 171.439 109.307C171.855 109.2 172.389 109.109 173.039 109.035L174.527 108.859V108.731C174.527 107.995 174.389 107.467 174.111 107.147C173.834 106.827 173.386 106.667 172.767 106.667C172.223 106.667 171.791 106.805 171.471 107.083C171.151 107.36 170.975 107.749 170.943 108.251H169.487C169.541 107.429 169.861 106.773 170.447 106.283C171.045 105.792 171.813 105.547 172.751 105.547C173.85 105.547 174.65 105.813 175.151 106.347C175.653 106.869 175.903 107.712 175.903 108.875V111.035C175.903 112.251 175.994 113.152 176.175 113.739H174.751C174.687 113.291 174.645 112.805 174.623 112.283C174.442 112.795 174.111 113.2 173.631 113.499C173.151 113.787 172.586 113.931 171.935 113.931ZM172.239 112.811C172.933 112.811 173.487 112.581 173.903 112.123C174.33 111.653 174.543 111.029 174.543 110.251V109.851L172.367 110.171C171.781 110.256 171.349 110.411 171.071 110.635C170.805 110.848 170.671 111.152 170.671 111.547C170.671 111.941 170.81 112.251 171.087 112.475C171.365 112.699 171.749 112.811 172.239 112.811ZM179.536 105.739V107.323C180.059 106.139 180.95 105.547 182.208 105.547C183.094 105.547 183.76 105.819 184.208 106.363C184.656 106.896 184.88 107.696 184.88 108.763V113.739H183.52V108.843C183.52 107.424 182.934 106.715 181.76 106.715C181.099 106.715 180.576 106.971 180.192 107.483C179.808 107.984 179.616 108.677 179.616 109.563V113.739H178.256V105.739H179.536ZM193.426 105.611C192.818 105.611 192.418 105.861 192.226 106.363C192.717 106.853 192.962 107.483 192.962 108.251C192.962 108.773 192.839 109.243 192.594 109.659C192.359 110.064 192.018 110.389 191.57 110.635C191.133 110.869 190.61 110.987 190.002 110.987C189.447 110.987 188.935 110.875 188.466 110.651C188.295 110.725 188.157 110.832 188.05 110.971C187.943 111.099 187.89 111.253 187.89 111.435C187.89 111.68 187.991 111.877 188.194 112.027C188.407 112.176 188.749 112.251 189.218 112.251H191.17C192.066 112.251 192.743 112.448 193.202 112.843C193.661 113.227 193.89 113.781 193.89 114.507C193.89 115.296 193.565 115.915 192.914 116.363C192.263 116.821 191.266 117.051 189.922 117.051C188.621 117.051 187.693 116.848 187.138 116.443C186.594 116.037 186.322 115.509 186.322 114.859C186.322 114.475 186.434 114.133 186.658 113.835C186.882 113.547 187.202 113.333 187.618 113.195C186.999 112.917 186.69 112.453 186.69 111.803C186.69 111.419 186.791 111.088 186.994 110.811C187.197 110.533 187.474 110.331 187.826 110.203C187.303 109.701 187.042 109.051 187.042 108.251C187.042 107.461 187.309 106.816 187.842 106.315C188.375 105.803 189.095 105.547 190.002 105.547C190.567 105.547 191.09 105.659 191.57 105.883C191.698 105.445 191.917 105.093 192.226 104.827C192.546 104.56 192.962 104.427 193.474 104.427C193.666 104.427 193.842 104.448 194.002 104.491V105.675C193.789 105.632 193.597 105.611 193.426 105.611ZM190.002 109.947C190.503 109.947 190.909 109.792 191.218 109.483C191.527 109.163 191.682 108.757 191.682 108.267C191.682 107.776 191.527 107.376 191.218 107.067C190.909 106.747 190.503 106.587 190.002 106.587C189.49 106.587 189.079 106.741 188.77 107.051C188.471 107.36 188.322 107.76 188.322 108.251C188.322 108.741 188.477 109.147 188.786 109.467C189.095 109.787 189.501 109.947 190.002 109.947ZM189.17 113.451C188.999 113.451 188.775 113.44 188.498 113.419C188.221 113.547 188.007 113.717 187.858 113.931C187.719 114.144 187.65 114.373 187.65 114.619C187.65 115.088 187.858 115.424 188.274 115.627C188.701 115.829 189.303 115.931 190.082 115.931C190.989 115.931 191.623 115.808 191.986 115.563C192.349 115.328 192.53 115.008 192.53 114.603C192.53 114.229 192.391 113.941 192.114 113.739C191.837 113.547 191.421 113.451 190.866 113.451H189.17ZM201.53 110.139H195.85C195.861 110.917 196.079 111.547 196.506 112.027C196.943 112.496 197.519 112.731 198.234 112.731C198.746 112.731 199.183 112.603 199.546 112.347C199.909 112.08 200.181 111.701 200.362 111.211L201.482 111.707C201.205 112.432 200.778 112.987 200.202 113.371C199.637 113.744 198.949 113.931 198.138 113.931C196.986 113.931 196.09 113.579 195.45 112.875C194.81 112.16 194.49 111.147 194.49 109.835C194.49 108.491 194.81 107.44 195.45 106.683C196.09 105.925 196.981 105.547 198.122 105.547C199.21 105.547 200.047 105.856 200.634 106.475C201.231 107.093 201.53 107.995 201.53 109.179V110.139ZM200.154 108.859C200.154 108.133 199.973 107.579 199.61 107.195C199.258 106.811 198.751 106.619 198.09 106.619C197.397 106.619 196.853 106.832 196.458 107.259C196.074 107.685 195.871 108.277 195.85 109.035H200.154V108.859ZM207.577 105.739V103.643L208.937 103.067V105.739H210.937V106.859H208.937V111.291C208.937 111.749 209.027 112.085 209.209 112.299C209.401 112.501 209.699 112.603 210.105 112.603C210.339 112.603 210.617 112.565 210.937 112.491V113.739C210.585 113.835 210.19 113.883 209.753 113.883C208.942 113.883 208.377 113.664 208.057 113.227C207.737 112.789 207.577 112.16 207.577 111.339V106.859H206.089V105.739H207.577ZM215.539 113.931C214.793 113.931 214.137 113.765 213.571 113.435C213.006 113.093 212.569 112.608 212.259 111.979C211.961 111.349 211.811 110.603 211.811 109.739C211.811 108.875 211.961 108.128 212.259 107.499C212.569 106.869 213.006 106.389 213.571 106.059C214.137 105.717 214.793 105.547 215.539 105.547C216.286 105.547 216.942 105.717 217.507 106.059C218.073 106.389 218.505 106.869 218.803 107.499C219.113 108.128 219.267 108.875 219.267 109.739C219.267 110.603 219.113 111.349 218.803 111.979C218.505 112.608 218.073 113.093 217.507 113.435C216.942 113.765 216.286 113.931 215.539 113.931ZM215.539 112.747C216.265 112.747 216.825 112.491 217.219 111.979C217.625 111.467 217.827 110.72 217.827 109.739C217.827 108.757 217.625 108.011 217.219 107.499C216.825 106.987 216.265 106.731 215.539 106.731C214.814 106.731 214.249 106.987 213.843 107.499C213.449 108.011 213.251 108.757 213.251 109.739C213.251 110.72 213.449 111.467 213.843 111.979C214.249 112.491 214.814 112.747 215.539 112.747ZM227.658 113.931C226.709 113.931 225.93 113.717 225.322 113.291C224.725 112.864 224.357 112.256 224.218 111.467L225.594 111.227C225.69 111.728 225.919 112.117 226.282 112.395C226.645 112.672 227.119 112.811 227.706 112.811C228.229 112.811 228.634 112.699 228.922 112.475C229.221 112.24 229.37 111.947 229.37 111.595C229.37 111.253 229.274 110.997 229.082 110.827C228.89 110.656 228.602 110.539 228.218 110.475L226.65 110.187C225.967 110.059 225.439 109.808 225.066 109.435C224.703 109.051 224.522 108.555 224.522 107.947C224.522 107.243 224.794 106.667 225.338 106.219C225.893 105.771 226.634 105.547 227.562 105.547C228.458 105.547 229.189 105.739 229.754 106.123C230.33 106.507 230.655 107.035 230.73 107.707L229.386 108.011C229.29 107.595 229.082 107.264 228.762 107.019C228.442 106.773 228.021 106.651 227.498 106.651C226.986 106.651 226.581 106.757 226.282 106.971C225.994 107.184 225.85 107.488 225.85 107.883C225.85 108.203 225.951 108.453 226.154 108.635C226.367 108.816 226.677 108.944 227.082 109.019L228.634 109.307C229.349 109.445 229.871 109.696 230.202 110.059C230.543 110.411 230.714 110.885 230.714 111.483C230.714 112.219 230.442 112.811 229.898 113.259C229.365 113.707 228.618 113.931 227.658 113.931ZM238.969 110.139H233.289C233.3 110.917 233.519 111.547 233.945 112.027C234.383 112.496 234.959 112.731 235.673 112.731C236.185 112.731 236.623 112.603 236.985 112.347C237.348 112.08 237.62 111.701 237.801 111.211L238.921 111.707C238.644 112.432 238.217 112.987 237.641 113.371C237.076 113.744 236.388 113.931 235.577 113.931C234.425 113.931 233.529 113.579 232.889 112.875C232.249 112.16 231.929 111.147 231.929 109.835C231.929 108.491 232.249 107.44 232.889 106.683C233.529 105.925 234.42 105.547 235.561 105.547C236.649 105.547 237.487 105.856 238.073 106.475C238.671 107.093 238.969 107.995 238.969 109.179V110.139ZM237.593 108.859C237.593 108.133 237.412 107.579 237.049 107.195C236.697 106.811 236.191 106.619 235.529 106.619C234.836 106.619 234.292 106.832 233.897 107.259C233.513 107.685 233.311 108.277 233.289 109.035H237.593V108.859ZM247.212 110.139H241.532C241.543 110.917 241.761 111.547 242.188 112.027C242.625 112.496 243.201 112.731 243.916 112.731C244.428 112.731 244.865 112.603 245.228 112.347C245.591 112.08 245.863 111.701 246.044 111.211L247.164 111.707C246.887 112.432 246.46 112.987 245.884 113.371C245.319 113.744 244.631 113.931 243.82 113.931C242.668 113.931 241.772 113.579 241.132 112.875C240.492 112.16 240.172 111.147 240.172 109.835C240.172 108.491 240.492 107.44 241.132 106.683C241.772 105.925 242.663 105.547 243.804 105.547C244.892 105.547 245.729 105.856 246.316 106.475C246.913 107.093 247.212 107.995 247.212 109.179V110.139ZM245.836 108.859C245.836 108.133 245.655 107.579 245.292 107.195C244.94 106.811 244.433 106.619 243.772 106.619C243.079 106.619 242.535 106.832 242.14 107.259C241.756 107.685 241.553 108.277 241.532 109.035H245.836V108.859ZM255.979 113.931C255.232 113.931 254.576 113.765 254.011 113.435C253.445 113.093 253.008 112.608 252.699 111.979C252.4 111.349 252.251 110.603 252.251 109.739C252.251 108.875 252.4 108.128 252.699 107.499C253.008 106.869 253.445 106.389 254.011 106.059C254.576 105.717 255.232 105.547 255.979 105.547C256.725 105.547 257.381 105.717 257.947 106.059C258.512 106.389 258.944 106.869 259.243 107.499C259.552 108.128 259.707 108.875 259.707 109.739C259.707 110.603 259.552 111.349 259.243 111.979C258.944 112.608 258.512 113.093 257.947 113.435C257.381 113.765 256.725 113.931 255.979 113.931ZM255.979 112.747C256.704 112.747 257.264 112.491 257.659 111.979C258.064 111.467 258.267 110.72 258.267 109.739C258.267 108.757 258.064 108.011 257.659 107.499C257.264 106.987 256.704 106.731 255.979 106.731C255.253 106.731 254.688 106.987 254.283 107.499C253.888 108.011 253.691 108.757 253.691 109.739C253.691 110.72 253.888 111.467 254.283 111.979C254.688 112.491 255.253 112.747 255.979 112.747ZM261.829 105.739V103.643L263.189 103.067V105.739H265.189V106.859H263.189V111.291C263.189 111.749 263.28 112.085 263.461 112.299C263.653 112.501 263.952 112.603 264.357 112.603C264.592 112.603 264.869 112.565 265.189 112.491V113.739C264.837 113.835 264.443 113.883 264.005 113.883C263.195 113.883 262.629 113.664 262.309 113.227C261.989 112.789 261.829 112.16 261.829 111.339V106.859H260.341V105.739H261.829ZM268.302 102.139V107.243C268.782 106.112 269.657 105.547 270.926 105.547C271.79 105.547 272.446 105.819 272.894 106.363C273.342 106.907 273.566 107.707 273.566 108.763V113.739H272.206V108.859C272.206 108.155 272.057 107.621 271.758 107.259C271.47 106.896 271.038 106.715 270.462 106.715C269.779 106.715 269.246 106.965 268.862 107.467C268.489 107.957 268.302 108.656 268.302 109.563V113.739H266.942V102.139H268.302ZM282.206 110.139H276.526C276.536 110.917 276.755 111.547 277.182 112.027C277.619 112.496 278.195 112.731 278.91 112.731C279.422 112.731 279.859 112.603 280.222 112.347C280.584 112.08 280.856 111.701 281.038 111.211L282.158 111.707C281.88 112.432 281.454 112.987 280.878 113.371C280.312 113.744 279.624 113.931 278.814 113.931C277.662 113.931 276.766 113.579 276.126 112.875C275.486 112.16 275.166 111.147 275.166 109.835C275.166 108.491 275.486 107.44 276.126 106.683C276.766 105.925 277.656 105.547 278.798 105.547C279.886 105.547 280.723 105.856 281.31 106.475C281.907 107.093 282.206 107.995 282.206 109.179V110.139ZM280.83 108.859C280.83 108.133 280.648 107.579 280.286 107.195C279.934 106.811 279.427 106.619 278.766 106.619C278.072 106.619 277.528 106.832 277.134 107.259C276.75 107.685 276.547 108.277 276.526 109.035H280.83V108.859ZM285.392 107.563C285.595 106.965 285.904 106.48 286.32 106.107C286.747 105.733 287.248 105.547 287.824 105.547C287.952 105.547 288.048 105.552 288.112 105.563V106.891H288.048C287.291 106.891 286.704 107.099 286.288 107.515C285.947 107.856 285.728 108.251 285.632 108.699C285.536 109.147 285.488 109.685 285.488 110.315V113.739H284.128V105.739H285.392V107.563ZM295.89 113.931C294.93 113.931 294.232 113.664 293.794 113.131C293.368 112.597 293.154 111.835 293.154 110.843V105.739H294.514V110.683C294.514 111.355 294.653 111.872 294.93 112.235C295.218 112.587 295.624 112.763 296.146 112.763C296.786 112.763 297.304 112.512 297.698 112.011C298.093 111.509 298.29 110.853 298.29 110.043V105.739H299.65V113.739H298.37V112.235C298.189 112.725 297.869 113.131 297.41 113.451C296.952 113.771 296.445 113.931 295.89 113.931ZM304.935 113.931C303.986 113.931 303.207 113.717 302.599 113.291C302.002 112.864 301.634 112.256 301.495 111.467L302.871 111.227C302.967 111.728 303.196 112.117 303.559 112.395C303.922 112.672 304.396 112.811 304.983 112.811C305.506 112.811 305.911 112.699 306.199 112.475C306.498 112.24 306.647 111.947 306.647 111.595C306.647 111.253 306.551 110.997 306.359 110.827C306.167 110.656 305.879 110.539 305.495 110.475L303.927 110.187C303.244 110.059 302.716 109.808 302.343 109.435C301.98 109.051 301.799 108.555 301.799 107.947C301.799 107.243 302.071 106.667 302.615 106.219C303.17 105.771 303.911 105.547 304.839 105.547C305.735 105.547 306.466 105.739 307.031 106.123C307.607 106.507 307.932 107.035 308.007 107.707L306.663 108.011C306.567 107.595 306.359 107.264 306.039 107.019C305.719 106.773 305.298 106.651 304.775 106.651C304.263 106.651 303.858 106.757 303.559 106.971C303.271 107.184 303.127 107.488 303.127 107.883C303.127 108.203 303.228 108.453 303.431 108.635C303.644 108.816 303.954 108.944 304.359 109.019L305.911 109.307C306.626 109.445 307.148 109.696 307.479 110.059C307.82 110.411 307.991 110.885 307.991 111.483C307.991 112.219 307.719 112.811 307.175 113.259C306.642 113.707 305.895 113.931 304.935 113.931ZM311.91 113.931C311.089 113.931 310.433 113.717 309.942 113.291C309.452 112.864 309.206 112.293 309.206 111.579C309.206 111.173 309.302 110.811 309.494 110.491C309.686 110.16 309.964 109.893 310.326 109.691C310.636 109.541 310.998 109.413 311.414 109.307C311.83 109.2 312.364 109.109 313.014 109.035L314.502 108.859V108.731C314.502 107.995 314.364 107.467 314.086 107.147C313.809 106.827 313.361 106.667 312.742 106.667C312.198 106.667 311.766 106.805 311.446 107.083C311.126 107.36 310.95 107.749 310.918 108.251H309.462C309.516 107.429 309.836 106.773 310.422 106.283C311.02 105.792 311.788 105.547 312.726 105.547C313.825 105.547 314.625 105.813 315.126 106.347C315.628 106.869 315.878 107.712 315.878 108.875V111.035C315.878 112.251 315.969 113.152 316.15 113.739H314.726C314.662 113.291 314.62 112.805 314.598 112.283C314.417 112.795 314.086 113.2 313.606 113.499C313.126 113.787 312.561 113.931 311.91 113.931ZM312.214 112.811C312.908 112.811 313.462 112.581 313.878 112.123C314.305 111.653 314.518 111.029 314.518 110.251V109.851L312.342 110.171C311.756 110.256 311.324 110.411 311.046 110.635C310.78 110.848 310.646 111.152 310.646 111.547C310.646 111.941 310.785 112.251 311.062 112.475C311.34 112.699 311.724 112.811 312.214 112.811ZM324.299 105.611C323.691 105.611 323.291 105.861 323.099 106.363C323.59 106.853 323.835 107.483 323.835 108.251C323.835 108.773 323.712 109.243 323.467 109.659C323.232 110.064 322.891 110.389 322.443 110.635C322.006 110.869 321.483 110.987 320.875 110.987C320.32 110.987 319.808 110.875 319.339 110.651C319.168 110.725 319.03 110.832 318.923 110.971C318.816 111.099 318.763 111.253 318.763 111.435C318.763 111.68 318.864 111.877 319.067 112.027C319.28 112.176 319.622 112.251 320.091 112.251H322.043C322.939 112.251 323.616 112.448 324.075 112.843C324.534 113.227 324.763 113.781 324.763 114.507C324.763 115.296 324.438 115.915 323.787 116.363C323.136 116.821 322.139 117.051 320.795 117.051C319.494 117.051 318.566 116.848 318.011 116.443C317.467 116.037 317.195 115.509 317.195 114.859C317.195 114.475 317.307 114.133 317.531 113.835C317.755 113.547 318.075 113.333 318.491 113.195C317.872 112.917 317.563 112.453 317.563 111.803C317.563 111.419 317.664 111.088 317.867 110.811C318.07 110.533 318.347 110.331 318.699 110.203C318.176 109.701 317.915 109.051 317.915 108.251C317.915 107.461 318.182 106.816 318.715 106.315C319.248 105.803 319.968 105.547 320.875 105.547C321.44 105.547 321.963 105.659 322.443 105.883C322.571 105.445 322.79 105.093 323.099 104.827C323.419 104.56 323.835 104.427 324.347 104.427C324.539 104.427 324.715 104.448 324.875 104.491V105.675C324.662 105.632 324.47 105.611 324.299 105.611ZM320.875 109.947C321.376 109.947 321.782 109.792 322.091 109.483C322.4 109.163 322.555 108.757 322.555 108.267C322.555 107.776 322.4 107.376 322.091 107.067C321.782 106.747 321.376 106.587 320.875 106.587C320.363 106.587 319.952 106.741 319.643 107.051C319.344 107.36 319.195 107.76 319.195 108.251C319.195 108.741 319.35 109.147 319.659 109.467C319.968 109.787 320.374 109.947 320.875 109.947ZM320.043 113.451C319.872 113.451 319.648 113.44 319.371 113.419C319.094 113.547 318.88 113.717 318.731 113.931C318.592 114.144 318.523 114.373 318.523 114.619C318.523 115.088 318.731 115.424 319.147 115.627C319.574 115.829 320.176 115.931 320.955 115.931C321.862 115.931 322.496 115.808 322.859 115.563C323.222 115.328 323.403 115.008 323.403 114.603C323.403 114.229 323.264 113.941 322.987 113.739C322.71 113.547 322.294 113.451 321.739 113.451H320.043ZM332.403 110.139H326.723C326.734 110.917 326.952 111.547 327.379 112.027C327.816 112.496 328.392 112.731 329.107 112.731C329.619 112.731 330.056 112.603 330.419 112.347C330.782 112.08 331.054 111.701 331.235 111.211L332.355 111.707C332.078 112.432 331.651 112.987 331.075 113.371C330.51 113.744 329.822 113.931 329.011 113.931C327.859 113.931 326.963 113.579 326.323 112.875C325.683 112.16 325.363 111.147 325.363 109.835C325.363 108.491 325.683 107.44 326.323 106.683C326.963 105.925 327.854 105.547 328.995 105.547C330.083 105.547 330.92 105.856 331.507 106.475C332.104 107.093 332.403 107.995 332.403 109.179V110.139ZM331.027 108.859C331.027 108.133 330.846 107.579 330.483 107.195C330.131 106.811 329.624 106.619 328.963 106.619C328.27 106.619 327.726 106.832 327.331 107.259C326.947 107.685 326.744 108.277 326.723 109.035H331.027V108.859ZM335.721 113.739H333.849V111.851H335.721V113.739Z" fill="black"/>
</svg>
