<svg width="319" height="193" viewBox="0 0 319 193" fill="none" xmlns="http://www.w3.org/2000/svg">
<path d="M103.949 3.96L110.357 15.12C110.821 15.904 111.173 16.632 111.413 17.304H111.461C111.429 16.472 111.413 15.736 111.413 15.096V3.96H114.221V21H110.741L104.237 9.792C103.773 8.976 103.429 8.264 103.205 7.656H103.157C103.189 8.088 103.205 8.84 103.205 9.912V21H100.397V3.96H103.949ZM122.643 21.288C121.491 21.288 120.467 21.04 119.571 20.544C118.691 20.048 118.003 19.328 117.507 18.384C117.011 17.424 116.763 16.288 116.763 14.976C116.763 13.664 117.011 12.536 117.507 11.592C118.003 10.648 118.691 9.936 119.571 9.456C120.467 8.96 121.491 8.712 122.643 8.712C123.795 8.712 124.811 8.96 125.691 9.456C126.587 9.936 127.283 10.648 127.779 11.592C128.275 12.536 128.523 13.664 128.523 14.976C128.523 16.288 128.275 17.424 127.779 18.384C127.283 19.328 126.587 20.048 125.691 20.544C124.811 21.04 123.795 21.288 122.643 21.288ZM122.643 19.104C123.571 19.104 124.291 18.76 124.803 18.072C125.315 17.368 125.571 16.336 125.571 14.976C125.571 13.632 125.315 12.616 124.803 11.928C124.307 11.24 123.587 10.896 122.643 10.896C121.699 10.896 120.971 11.24 120.459 11.928C119.947 12.616 119.691 13.632 119.691 14.976C119.691 16.32 119.947 17.344 120.459 18.048C120.971 18.752 121.699 19.104 122.643 19.104ZM140.363 21.288C139.403 21.288 138.555 21.032 137.819 20.52C137.083 19.992 136.515 19.256 136.115 18.312C135.715 17.352 135.515 16.256 135.515 15.024C135.515 13.776 135.723 12.68 136.139 11.736C136.571 10.776 137.171 10.032 137.939 9.504C138.707 8.976 139.587 8.712 140.579 8.712C142.227 8.712 143.379 9.376 144.035 10.704V3.6H146.915V21H144.203V18.84C143.867 19.608 143.363 20.208 142.691 20.64C142.035 21.072 141.259 21.288 140.363 21.288ZM141.347 19.08C142.195 19.08 142.867 18.752 143.363 18.096C143.859 17.424 144.107 16.528 144.107 15.408V14.64C144.107 13.472 143.859 12.56 143.363 11.904C142.867 11.248 142.187 10.92 141.323 10.92C140.443 10.92 139.755 11.28 139.259 12C138.763 12.704 138.515 13.696 138.515 14.976C138.515 16.256 138.763 17.264 139.259 18C139.771 18.72 140.467 19.08 141.347 19.08ZM153.434 21.288C152.202 21.288 151.21 20.968 150.458 20.328C149.706 19.672 149.33 18.808 149.33 17.736C149.33 17.16 149.45 16.64 149.69 16.176C149.946 15.712 150.314 15.328 150.794 15.024C151.226 14.768 151.746 14.56 152.354 14.4C152.962 14.224 153.746 14.072 154.706 13.944L157.25 13.632V13.32C157.25 12.424 157.066 11.776 156.698 11.376C156.346 10.96 155.786 10.752 155.018 10.752C154.314 10.752 153.754 10.936 153.338 11.304C152.938 11.656 152.714 12.176 152.666 12.864H149.714C149.81 11.584 150.33 10.576 151.274 9.84C152.218 9.088 153.466 8.712 155.018 8.712C156.794 8.712 158.09 9.112 158.906 9.912C159.738 10.696 160.154 11.96 160.154 13.704V17.28C160.154 18.912 160.274 20.152 160.514 21H157.634C157.522 20.344 157.458 19.656 157.442 18.936C157.154 19.672 156.65 20.248 155.93 20.664C155.226 21.08 154.394 21.288 153.434 21.288ZM154.346 19.248C155.242 19.248 155.962 18.96 156.506 18.384C157.05 17.792 157.322 17.024 157.322 16.08V15.312L154.61 15.72C153.81 15.848 153.226 16.064 152.858 16.368C152.49 16.672 152.306 17.08 152.306 17.592C152.306 18.104 152.482 18.512 152.834 18.816C153.202 19.104 153.706 19.248 154.346 19.248ZM163.605 9V5.976L166.485 4.824V9H169.413V11.088H166.485V16.824C166.485 17.464 166.629 17.944 166.917 18.264C167.205 18.568 167.645 18.72 168.237 18.72C168.509 18.72 168.901 18.672 169.413 18.576V21C168.709 21.144 168.053 21.216 167.445 21.216C166.069 21.216 165.085 20.88 164.493 20.208C163.901 19.536 163.605 18.56 163.605 17.28V11.088H161.445V9H163.605ZM174.599 21.288C173.367 21.288 172.375 20.968 171.623 20.328C170.871 19.672 170.495 18.808 170.495 17.736C170.495 17.16 170.615 16.64 170.855 16.176C171.111 15.712 171.479 15.328 171.959 15.024C172.391 14.768 172.911 14.56 173.519 14.4C174.127 14.224 174.911 14.072 175.871 13.944L178.415 13.632V13.32C178.415 12.424 178.231 11.776 177.863 11.376C177.511 10.96 176.951 10.752 176.183 10.752C175.479 10.752 174.919 10.936 174.503 11.304C174.103 11.656 173.879 12.176 173.831 12.864H170.879C170.975 11.584 171.495 10.576 172.439 9.84C173.383 9.088 174.631 8.712 176.183 8.712C177.959 8.712 179.255 9.112 180.071 9.912C180.903 10.696 181.319 11.96 181.319 13.704V17.28C181.319 18.912 181.439 20.152 181.679 21H178.799C178.687 20.344 178.623 19.656 178.607 18.936C178.319 19.672 177.815 20.248 177.095 20.664C176.391 21.08 175.559 21.288 174.599 21.288ZM175.511 19.248C176.407 19.248 177.127 18.96 177.671 18.384C178.215 17.792 178.487 17.024 178.487 16.08V15.312L175.775 15.72C174.975 15.848 174.391 16.064 174.023 16.368C173.655 16.672 173.471 17.08 173.471 17.592C173.471 18.104 173.647 18.512 173.999 18.816C174.367 19.104 174.871 19.248 175.511 19.248ZM190.405 25.8C190.053 25.8 189.613 25.76 189.085 25.68V23.4C189.373 23.464 189.709 23.496 190.093 23.496C190.781 23.496 191.325 23.344 191.725 23.04C192.141 22.752 192.461 22.272 192.685 21.6L192.925 20.88L188.245 9H191.413L194.029 16.848C194.173 17.28 194.293 17.752 194.389 18.264H194.437C194.469 17.976 194.589 17.504 194.797 16.848L197.173 9H200.173L195.661 21.672C195.133 23.16 194.453 24.216 193.621 24.84C192.789 25.48 191.717 25.8 190.405 25.8ZM211.741 15.72H203.317C203.333 16.728 203.629 17.536 204.205 18.144C204.797 18.736 205.565 19.032 206.509 19.032C207.197 19.032 207.789 18.864 208.285 18.528C208.781 18.192 209.165 17.696 209.437 17.04L211.645 18.048C211.197 19.088 210.517 19.888 209.605 20.448C208.709 21.008 207.645 21.288 206.413 21.288C204.573 21.288 203.133 20.752 202.093 19.68C201.053 18.592 200.533 17.072 200.533 15.12C200.533 13.136 201.037 11.576 202.045 10.44C203.069 9.288 204.477 8.712 206.269 8.712C208.013 8.712 209.357 9.208 210.301 10.2C211.261 11.176 211.741 12.576 211.741 14.4V15.72ZM208.909 13.632C208.909 12.656 208.677 11.912 208.213 11.4C207.749 10.888 207.085 10.632 206.221 10.632C205.309 10.632 204.605 10.912 204.109 11.472C203.613 12.032 203.349 12.816 203.317 13.824H208.909V13.632ZM214.666 9V5.976L217.546 4.824V9H220.474V11.088H217.546V16.824C217.546 17.464 217.69 17.944 217.978 18.264C218.266 18.568 218.706 18.72 219.298 18.72C219.57 18.72 219.962 18.672 220.474 18.576V21C219.77 21.144 219.114 21.216 218.506 21.216C217.13 21.216 216.146 20.88 215.554 20.208C214.962 19.536 214.666 18.56 214.666 17.28V11.088H212.506V9H214.666Z" fill="black"/>
<rect x="114.574" y="48.1206" width="11.6667" height="8.48489" fill="#CCCCCA"/>
<rect x="100.789" y="48.1206" width="11.6667" height="8.48489" fill="#CCCCCA"/>
<rect x="87" y="48.1206" width="11.6667" height="8.48489" fill="#CCCCCA"/>
<rect x="114.574" y="58.7267" width="11.6667" height="8.48489" fill="#CCCCCA"/>
<rect x="100.789" y="58.7267" width="11.6667" height="8.48489" fill="#CCCCCA"/>
<rect x="87" y="58.7267" width="11.6667" height="8.48489" fill="#CCCCCA"/>
<rect x="114.574" y="69.3329" width="11.6667" height="8.48489" fill="#CCCCCA"/>
<rect x="100.789" y="69.3329" width="11.6667" height="8.48489" fill="#CCCCCA"/>
<rect x="87" y="69.3329" width="11.6667" height="8.48489" fill="#CCCCCA"/>
<rect x="114.574" y="79.939" width="11.6667" height="8.48489" fill="#CCCCCA"/>
<rect x="100.789" y="79.939" width="11.6667" height="8.48489" fill="#CCCCCA"/>
<rect x="87" y="79.939" width="11.6667" height="8.48489" fill="#CCCCCA"/>
<g clip-path="url(#clip0_3520_50505)">
<path d="M134.572 85.2865L141.811 81.3044L147.603 78.0467L151.224 63.5665L157.739 61.3945L162.807 55.2404L169.685 68.6346L179.821 66.8245" stroke="#CCCCCA" stroke-width="4.34405"/>
</g>
<rect x="190.68" y="48.0946" width="41.3204" height="5.35635" fill="#CCCCCA"/>
<rect x="190.68" y="55.0944" width="33.6685" height="5.35635" fill="#CCCCCA"/>
<rect x="190.68" y="62.0942" width="26.0166" height="5.35635" fill="#CCCCCA"/>
<rect x="190.68" y="69.0939" width="16.0691" height="5.35635" fill="#CCCCCA"/>
<rect x="190.68" y="76.0937" width="8.41713" height="5.35635" fill="#CCCCCA"/>
<rect x="190.68" y="83.0935" width="4.59116" height="5.35635" fill="#CCCCCA"/>
<path d="M15.4347 119.184H17.1307L19.7387 124C19.8987 124.299 20 124.518 20.0427 124.656H20.0747C20.1174 124.518 20.2187 124.299 20.3787 124L22.9867 119.184H24.6827L20.8267 126.016V130.544H19.2907V126.016L15.4347 119.184ZM27.8596 130.736C27.1129 130.736 26.4569 130.571 25.8916 130.24C25.3262 129.899 24.8889 129.414 24.5796 128.784C24.2809 128.155 24.1316 127.408 24.1316 126.544C24.1316 125.68 24.2809 124.934 24.5796 124.304C24.8889 123.675 25.3262 123.195 25.8916 122.864C26.4569 122.523 27.1129 122.352 27.8596 122.352C28.6062 122.352 29.2622 122.523 29.8276 122.864C30.3929 123.195 30.8249 123.675 31.1236 124.304C31.4329 124.934 31.5876 125.68 31.5876 126.544C31.5876 127.408 31.4329 128.155 31.1236 128.784C30.8249 129.414 30.3929 129.899 29.8276 130.24C29.2622 130.571 28.6062 130.736 27.8596 130.736ZM27.8596 129.552C28.5849 129.552 29.1449 129.296 29.5396 128.784C29.9449 128.272 30.1476 127.526 30.1476 126.544C30.1476 125.563 29.9449 124.816 29.5396 124.304C29.1449 123.792 28.5849 123.536 27.8596 123.536C27.1342 123.536 26.5689 123.792 26.1636 124.304C25.7689 124.816 25.5716 125.563 25.5716 126.544C25.5716 127.526 25.7689 128.272 26.1636 128.784C26.5689 129.296 27.1342 129.552 27.8596 129.552ZM35.9182 130.736C34.9582 130.736 34.2595 130.47 33.8222 129.936C33.3955 129.403 33.1822 128.64 33.1822 127.648V122.544H34.5422V127.488C34.5422 128.16 34.6809 128.678 34.9582 129.04C35.2462 129.392 35.6515 129.568 36.1742 129.568C36.8142 129.568 37.3315 129.318 37.7262 128.816C38.1209 128.315 38.3182 127.659 38.3182 126.848V122.544H39.6782V130.544H38.3982V129.04C38.2169 129.531 37.8969 129.936 37.4382 130.256C36.9795 130.576 36.4729 130.736 35.9182 130.736ZM41.9868 122.608C42.3708 122.438 42.6268 122.251 42.7548 122.048C42.8828 121.835 42.9468 121.526 42.9468 121.12V121.072H41.9228V119.184H43.7948V120.96C43.7948 121.611 43.6882 122.112 43.4748 122.464C43.2722 122.806 42.8988 123.088 42.3548 123.312L41.9868 122.608ZM47.4722 130.544H46.1122V118.944H47.4722V130.544ZM51.5584 130.544H50.1984V118.944H51.5584V130.544ZM60.7609 130.736C59.8116 130.736 59.0329 130.523 58.4249 130.096C57.8276 129.67 57.4596 129.062 57.3209 128.272L58.6969 128.032C58.7929 128.534 59.0223 128.923 59.3849 129.2C59.7476 129.478 60.2223 129.616 60.8089 129.616C61.3316 129.616 61.7369 129.504 62.0249 129.28C62.3236 129.046 62.4729 128.752 62.4729 128.4C62.4729 128.059 62.3769 127.803 62.1849 127.632C61.9929 127.462 61.7049 127.344 61.3209 127.28L59.7529 126.992C59.0703 126.864 58.5423 126.614 58.1689 126.24C57.8063 125.856 57.6249 125.36 57.6249 124.752C57.6249 124.048 57.8969 123.472 58.4409 123.024C58.9956 122.576 59.7369 122.352 60.6649 122.352C61.5609 122.352 62.2916 122.544 62.8569 122.928C63.4329 123.312 63.7583 123.84 63.8329 124.512L62.4889 124.816C62.3929 124.4 62.1849 124.07 61.8649 123.824C61.5449 123.579 61.1236 123.456 60.6009 123.456C60.0889 123.456 59.6836 123.563 59.3849 123.776C59.0969 123.99 58.9529 124.294 58.9529 124.688C58.9529 125.008 59.0543 125.259 59.2569 125.44C59.4703 125.622 59.7796 125.75 60.1849 125.824L61.7369 126.112C62.4516 126.251 62.9743 126.502 63.3049 126.864C63.6463 127.216 63.8169 127.691 63.8169 128.288C63.8169 129.024 63.5449 129.616 63.0009 130.064C62.4676 130.512 61.7209 130.736 60.7609 130.736ZM66.0402 122.544V120.448L67.4002 119.872V122.544H69.4002V123.664H67.4002V128.096C67.4002 128.555 67.4909 128.891 67.6722 129.104C67.8642 129.307 68.1629 129.408 68.5682 129.408C68.8029 129.408 69.0802 129.371 69.4002 129.296V130.544C69.0482 130.64 68.6535 130.688 68.2162 130.688C67.4055 130.688 66.8402 130.47 66.5202 130.032C66.2002 129.595 66.0402 128.966 66.0402 128.144V123.664H64.5522V122.544H66.0402ZM72.9787 130.736C72.1574 130.736 71.5014 130.523 71.0107 130.096C70.52 129.67 70.2747 129.099 70.2747 128.384C70.2747 127.979 70.3707 127.616 70.5627 127.296C70.7547 126.966 71.032 126.699 71.3947 126.496C71.704 126.347 72.0667 126.219 72.4827 126.112C72.8987 126.006 73.432 125.915 74.0827 125.84L75.5707 125.664V125.536C75.5707 124.8 75.432 124.272 75.1547 123.952C74.8774 123.632 74.4294 123.472 73.8107 123.472C73.2667 123.472 72.8347 123.611 72.5147 123.888C72.1947 124.166 72.0187 124.555 71.9867 125.056H70.5307C70.584 124.235 70.904 123.579 71.4907 123.088C72.088 122.598 72.856 122.352 73.7947 122.352C74.8934 122.352 75.6934 122.619 76.1947 123.152C76.696 123.675 76.9467 124.518 76.9467 125.68V127.84C76.9467 129.056 77.0374 129.958 77.2187 130.544H75.7947C75.7307 130.096 75.688 129.611 75.6667 129.088C75.4854 129.6 75.1547 130.006 74.6747 130.304C74.1947 130.592 73.6294 130.736 72.9787 130.736ZM73.2827 129.616C73.976 129.616 74.5307 129.387 74.9467 128.928C75.3734 128.459 75.5867 127.835 75.5867 127.056V126.656L73.4107 126.976C72.824 127.062 72.392 127.216 72.1147 127.44C71.848 127.654 71.7147 127.958 71.7147 128.352C71.7147 128.747 71.8534 129.056 72.1307 129.28C72.408 129.504 72.792 129.616 73.2827 129.616ZM80.5637 124.368C80.7664 123.771 81.0757 123.286 81.4917 122.912C81.9184 122.539 82.4197 122.352 82.9957 122.352C83.1237 122.352 83.2197 122.358 83.2837 122.368V123.696H83.2197C82.4624 123.696 81.8757 123.904 81.4597 124.32C81.1184 124.662 80.8997 125.056 80.8037 125.504C80.7077 125.952 80.6597 126.491 80.6597 127.12V130.544H79.2997V122.544H80.5637V124.368ZM85.3302 122.544V120.448L86.6902 119.872V122.544H88.6902V123.664H86.6902V128.096C86.6902 128.555 86.7809 128.891 86.9622 129.104C87.1542 129.307 87.4529 129.408 87.8582 129.408C88.0929 129.408 88.3702 129.371 88.6902 129.296V130.544C88.3382 130.64 87.9435 130.688 87.5062 130.688C86.6955 130.688 86.1302 130.47 85.8102 130.032C85.4902 129.595 85.3302 128.966 85.3302 128.144V123.664H83.8422V122.544H85.3302ZM94.4871 122.544V120.448L95.8471 119.872V122.544H97.8471V123.664H95.8471V128.096C95.8471 128.555 95.9377 128.891 96.1191 129.104C96.3111 129.307 96.6097 129.408 97.0151 129.408C97.2497 129.408 97.5271 129.371 97.8471 129.296V130.544C97.4951 130.64 97.1004 130.688 96.6631 130.688C95.8524 130.688 95.2871 130.47 94.9671 130.032C94.6471 129.595 94.4871 128.966 94.4871 128.144V123.664H92.9991V122.544H94.4871ZM102.45 130.736C101.703 130.736 101.047 130.571 100.482 130.24C99.9162 129.899 99.4789 129.414 99.1696 128.784C98.8709 128.155 98.7216 127.408 98.7216 126.544C98.7216 125.68 98.8709 124.934 99.1696 124.304C99.4789 123.675 99.9162 123.195 100.482 122.864C101.047 122.523 101.703 122.352 102.45 122.352C103.196 122.352 103.852 122.523 104.418 122.864C104.983 123.195 105.415 123.675 105.714 124.304C106.023 124.934 106.178 125.68 106.178 126.544C106.178 127.408 106.023 128.155 105.714 128.784C105.415 129.414 104.983 129.899 104.418 130.24C103.852 130.571 103.196 130.736 102.45 130.736ZM102.45 129.552C103.175 129.552 103.735 129.296 104.13 128.784C104.535 128.272 104.738 127.526 104.738 126.544C104.738 125.563 104.535 124.816 104.13 124.304C103.735 123.792 103.175 123.536 102.45 123.536C101.724 123.536 101.159 123.792 100.754 124.304C100.359 124.816 100.162 125.563 100.162 126.544C100.162 127.526 100.359 128.272 100.754 128.784C101.159 129.296 101.724 129.552 102.45 129.552ZM114.568 130.736C113.619 130.736 112.84 130.523 112.232 130.096C111.635 129.67 111.267 129.062 111.128 128.272L112.504 128.032C112.6 128.534 112.83 128.923 113.192 129.2C113.555 129.478 114.03 129.616 114.616 129.616C115.139 129.616 115.544 129.504 115.832 129.28C116.131 129.046 116.28 128.752 116.28 128.4C116.28 128.059 116.184 127.803 115.992 127.632C115.8 127.462 115.512 127.344 115.128 127.28L113.56 126.992C112.878 126.864 112.35 126.614 111.976 126.24C111.614 125.856 111.432 125.36 111.432 124.752C111.432 124.048 111.704 123.472 112.248 123.024C112.803 122.576 113.544 122.352 114.472 122.352C115.368 122.352 116.099 122.544 116.664 122.928C117.24 123.312 117.566 123.84 117.64 124.512L116.296 124.816C116.2 124.4 115.992 124.07 115.672 123.824C115.352 123.579 114.931 123.456 114.408 123.456C113.896 123.456 113.491 123.563 113.192 123.776C112.904 123.99 112.76 124.294 112.76 124.688C112.76 125.008 112.862 125.259 113.064 125.44C113.278 125.622 113.587 125.75 113.992 125.824L115.544 126.112C116.259 126.251 116.782 126.502 117.112 126.864C117.454 127.216 117.624 127.691 117.624 128.288C117.624 129.024 117.352 129.616 116.808 130.064C116.275 130.512 115.528 130.736 114.568 130.736ZM125.88 126.944H120.2C120.21 127.723 120.429 128.352 120.856 128.832C121.293 129.302 121.869 129.536 122.584 129.536C123.096 129.536 123.533 129.408 123.896 129.152C124.258 128.886 124.53 128.507 124.712 128.016L125.832 128.512C125.554 129.238 125.128 129.792 124.552 130.176C123.986 130.55 123.298 130.736 122.488 130.736C121.336 130.736 120.44 130.384 119.8 129.68C119.16 128.966 118.84 127.952 118.84 126.64C118.84 125.296 119.16 124.246 119.8 123.488C120.44 122.731 121.33 122.352 122.472 122.352C123.56 122.352 124.397 122.662 124.984 123.28C125.581 123.899 125.88 124.8 125.88 125.984V126.944ZM124.504 125.664C124.504 124.939 124.322 124.384 123.96 124C123.608 123.616 123.101 123.424 122.44 123.424C121.746 123.424 121.202 123.638 120.808 124.064C120.424 124.491 120.221 125.083 120.2 125.84H124.504V125.664ZM134.122 126.944H128.442C128.453 127.723 128.672 128.352 129.098 128.832C129.536 129.302 130.112 129.536 130.826 129.536C131.338 129.536 131.776 129.408 132.138 129.152C132.501 128.886 132.773 128.507 132.954 128.016L134.074 128.512C133.797 129.238 133.37 129.792 132.794 130.176C132.229 130.55 131.541 130.736 130.73 130.736C129.578 130.736 128.682 130.384 128.042 129.68C127.402 128.966 127.082 127.952 127.082 126.64C127.082 125.296 127.402 124.246 128.042 123.488C128.682 122.731 129.573 122.352 130.714 122.352C131.802 122.352 132.64 122.662 133.226 123.28C133.824 123.899 134.122 124.8 134.122 125.984V126.944ZM132.746 125.664C132.746 124.939 132.565 124.384 132.202 124C131.85 123.616 131.344 123.424 130.682 123.424C129.989 123.424 129.445 123.638 129.05 124.064C128.666 124.491 128.464 125.083 128.442 125.84H132.746V125.664ZM142.409 130.736C141.769 130.736 141.204 130.566 140.713 130.224C140.222 129.872 139.838 129.382 139.561 128.752C139.294 128.112 139.161 127.376 139.161 126.544C139.161 125.734 139.305 125.014 139.593 124.384C139.881 123.744 140.281 123.248 140.793 122.896C141.316 122.534 141.908 122.352 142.569 122.352C143.636 122.352 144.42 122.811 144.921 123.728V118.944H146.281V130.544H145.001V129.056C144.756 129.6 144.414 130.016 143.977 130.304C143.55 130.592 143.028 130.736 142.409 130.736ZM142.777 129.536C143.438 129.536 143.966 129.286 144.361 128.784C144.756 128.272 144.953 127.59 144.953 126.736V126.368C144.953 125.494 144.756 124.806 144.361 124.304C143.977 123.803 143.449 123.552 142.777 123.552C142.094 123.552 141.561 123.819 141.177 124.352C140.793 124.875 140.601 125.606 140.601 126.544C140.601 127.483 140.793 128.219 141.177 128.752C141.561 129.275 142.094 129.536 142.777 129.536ZM150.904 130.736C150.083 130.736 149.427 130.523 148.936 130.096C148.446 129.67 148.2 129.099 148.2 128.384C148.2 127.979 148.296 127.616 148.488 127.296C148.68 126.966 148.958 126.699 149.32 126.496C149.63 126.347 149.992 126.219 150.408 126.112C150.824 126.006 151.358 125.915 152.008 125.84L153.496 125.664V125.536C153.496 124.8 153.358 124.272 153.08 123.952C152.803 123.632 152.355 123.472 151.736 123.472C151.192 123.472 150.76 123.611 150.44 123.888C150.12 124.166 149.944 124.555 149.912 125.056H148.456C148.51 124.235 148.83 123.579 149.416 123.088C150.014 122.598 150.782 122.352 151.72 122.352C152.819 122.352 153.619 122.619 154.12 123.152C154.622 123.675 154.872 124.518 154.872 125.68V127.84C154.872 129.056 154.963 129.958 155.144 130.544H153.72C153.656 130.096 153.614 129.611 153.592 129.088C153.411 129.6 153.08 130.006 152.6 130.304C152.12 130.592 151.555 130.736 150.904 130.736ZM151.208 129.616C151.902 129.616 152.456 129.387 152.872 128.928C153.299 128.459 153.512 127.835 153.512 127.056V126.656L151.336 126.976C150.75 127.062 150.318 127.216 150.04 127.44C149.774 127.654 149.64 127.958 149.64 128.352C149.64 128.747 149.779 129.056 150.056 129.28C150.334 129.504 150.718 129.616 151.208 129.616ZM157.513 122.544V120.448L158.873 119.872V122.544H160.873V123.664H158.873V128.096C158.873 128.555 158.964 128.891 159.145 129.104C159.337 129.307 159.636 129.408 160.041 129.408C160.276 129.408 160.553 129.371 160.873 129.296V130.544C160.521 130.64 160.127 130.688 159.689 130.688C158.879 130.688 158.313 130.47 157.993 130.032C157.673 129.595 157.513 128.966 157.513 128.144V123.664H156.025V122.544H157.513ZM164.452 130.736C163.63 130.736 162.974 130.523 162.484 130.096C161.993 129.67 161.748 129.099 161.748 128.384C161.748 127.979 161.844 127.616 162.036 127.296C162.228 126.966 162.505 126.699 162.868 126.496C163.177 126.347 163.54 126.219 163.956 126.112C164.372 126.006 164.905 125.915 165.556 125.84L167.044 125.664V125.536C167.044 124.8 166.905 124.272 166.628 123.952C166.35 123.632 165.902 123.472 165.284 123.472C164.74 123.472 164.308 123.611 163.988 123.888C163.668 124.166 163.492 124.555 163.46 125.056H162.004C162.057 124.235 162.377 123.579 162.964 123.088C163.561 122.598 164.329 122.352 165.268 122.352C166.366 122.352 167.166 122.619 167.668 123.152C168.169 123.675 168.42 124.518 168.42 125.68V127.84C168.42 129.056 168.51 129.958 168.692 130.544H167.268C167.204 130.096 167.161 129.611 167.14 129.088C166.958 129.6 166.628 130.006 166.148 130.304C165.668 130.592 165.102 130.736 164.452 130.736ZM164.756 129.616C165.449 129.616 166.004 129.387 166.42 128.928C166.846 128.459 167.06 127.835 167.06 127.056V126.656L164.884 126.976C164.297 127.062 163.865 127.216 163.588 127.44C163.321 127.654 163.188 127.958 163.188 128.352C163.188 128.747 163.326 129.056 163.604 129.28C163.881 129.504 164.265 129.616 164.756 129.616ZM176.593 130.736C175.772 130.736 175.116 130.523 174.625 130.096C174.134 129.67 173.889 129.099 173.889 128.384C173.889 127.979 173.985 127.616 174.177 127.296C174.369 126.966 174.646 126.699 175.009 126.496C175.318 126.347 175.681 126.219 176.097 126.112C176.513 126.006 177.046 125.915 177.697 125.84L179.185 125.664V125.536C179.185 124.8 179.046 124.272 178.769 123.952C178.492 123.632 178.044 123.472 177.425 123.472C176.881 123.472 176.449 123.611 176.129 123.888C175.809 124.166 175.633 124.555 175.601 125.056H174.145C174.198 124.235 174.518 123.579 175.105 123.088C175.702 122.598 176.47 122.352 177.409 122.352C178.508 122.352 179.308 122.619 179.809 123.152C180.31 123.675 180.561 124.518 180.561 125.68V127.84C180.561 129.056 180.652 129.958 180.833 130.544H179.409C179.345 130.096 179.302 129.611 179.281 129.088C179.1 129.6 178.769 130.006 178.289 130.304C177.809 130.592 177.244 130.736 176.593 130.736ZM176.897 129.616C177.59 129.616 178.145 129.387 178.561 128.928C178.988 128.459 179.201 127.835 179.201 127.056V126.656L177.025 126.976C176.438 127.062 176.006 127.216 175.729 127.44C175.462 127.654 175.329 127.958 175.329 128.352C175.329 128.747 175.468 129.056 175.745 129.28C176.022 129.504 176.406 129.616 176.897 129.616ZM185.634 130.736C184.685 130.736 183.906 130.523 183.298 130.096C182.701 129.67 182.333 129.062 182.194 128.272L183.57 128.032C183.666 128.534 183.895 128.923 184.258 129.2C184.621 129.478 185.095 129.616 185.682 129.616C186.205 129.616 186.61 129.504 186.898 129.28C187.197 129.046 187.346 128.752 187.346 128.4C187.346 128.059 187.25 127.803 187.058 127.632C186.866 127.462 186.578 127.344 186.194 127.28L184.626 126.992C183.943 126.864 183.415 126.614 183.042 126.24C182.679 125.856 182.498 125.36 182.498 124.752C182.498 124.048 182.77 123.472 183.314 123.024C183.869 122.576 184.61 122.352 185.538 122.352C186.434 122.352 187.165 122.544 187.73 122.928C188.306 123.312 188.631 123.84 188.706 124.512L187.362 124.816C187.266 124.4 187.058 124.07 186.738 123.824C186.418 123.579 185.997 123.456 185.474 123.456C184.962 123.456 184.557 123.563 184.258 123.776C183.97 123.99 183.826 124.294 183.826 124.688C183.826 125.008 183.927 125.259 184.13 125.44C184.343 125.622 184.653 125.75 185.058 125.824L186.61 126.112C187.325 126.251 187.847 126.502 188.178 126.864C188.519 127.216 188.69 127.691 188.69 128.288C188.69 129.024 188.418 129.616 187.874 130.064C187.341 130.512 186.594 130.736 185.634 130.736ZM197.182 130.736C196.232 130.736 195.454 130.523 194.846 130.096C194.248 129.67 193.88 129.062 193.742 128.272L195.118 128.032C195.214 128.534 195.443 128.923 195.806 129.2C196.168 129.478 196.643 129.616 197.23 129.616C197.752 129.616 198.158 129.504 198.446 129.28C198.744 129.046 198.894 128.752 198.894 128.4C198.894 128.059 198.798 127.803 198.606 127.632C198.414 127.462 198.126 127.344 197.742 127.28L196.174 126.992C195.491 126.864 194.963 126.614 194.59 126.24C194.227 125.856 194.046 125.36 194.046 124.752C194.046 124.048 194.318 123.472 194.862 123.024C195.416 122.576 196.158 122.352 197.086 122.352C197.982 122.352 198.712 122.544 199.278 122.928C199.854 123.312 200.179 123.84 200.254 124.512L198.91 124.816C198.814 124.4 198.606 124.07 198.286 123.824C197.966 123.579 197.544 123.456 197.022 123.456C196.51 123.456 196.104 123.563 195.806 123.776C195.518 123.99 195.374 124.294 195.374 124.688C195.374 125.008 195.475 125.259 195.678 125.44C195.891 125.622 196.2 125.75 196.606 125.824L198.158 126.112C198.872 126.251 199.395 126.502 199.726 126.864C200.067 127.216 200.238 127.691 200.238 128.288C200.238 129.024 199.966 129.616 199.422 130.064C198.888 130.512 198.142 130.736 197.182 130.736ZM205.181 130.736C204.434 130.736 203.778 130.571 203.213 130.24C202.647 129.899 202.21 129.414 201.901 128.784C201.602 128.155 201.453 127.408 201.453 126.544C201.453 125.68 201.602 124.934 201.901 124.304C202.21 123.675 202.647 123.195 203.213 122.864C203.778 122.523 204.434 122.352 205.181 122.352C205.927 122.352 206.583 122.523 207.149 122.864C207.714 123.195 208.146 123.675 208.445 124.304C208.754 124.934 208.909 125.68 208.909 126.544C208.909 127.408 208.754 128.155 208.445 128.784C208.146 129.414 207.714 129.899 207.149 130.24C206.583 130.571 205.927 130.736 205.181 130.736ZM205.181 129.552C205.906 129.552 206.466 129.296 206.861 128.784C207.266 128.272 207.469 127.526 207.469 126.544C207.469 125.563 207.266 124.816 206.861 124.304C206.466 123.792 205.906 123.536 205.181 123.536C204.455 123.536 203.89 123.792 203.485 124.304C203.09 124.816 202.893 125.563 202.893 126.544C202.893 127.526 203.09 128.272 203.485 128.784C203.89 129.296 204.455 129.552 205.181 129.552ZM213.751 130.736C213.005 130.736 212.349 130.571 211.783 130.24C211.218 129.899 210.781 129.414 210.471 128.784C210.173 128.155 210.023 127.408 210.023 126.544C210.023 125.68 210.173 124.934 210.471 124.304C210.781 123.675 211.218 123.195 211.783 122.864C212.349 122.523 213.005 122.352 213.751 122.352C214.498 122.352 215.154 122.523 215.719 122.864C216.285 123.195 216.717 123.675 217.015 124.304C217.325 124.934 217.479 125.68 217.479 126.544C217.479 127.408 217.325 128.155 217.015 128.784C216.717 129.414 216.285 129.899 215.719 130.24C215.154 130.571 214.498 130.736 213.751 130.736ZM213.751 129.552C214.477 129.552 215.037 129.296 215.431 128.784C215.837 128.272 216.039 127.526 216.039 126.544C216.039 125.563 215.837 124.816 215.431 124.304C215.037 123.792 214.477 123.536 213.751 123.536C213.026 123.536 212.461 123.792 212.055 124.304C211.661 124.816 211.463 125.563 211.463 126.544C211.463 127.526 211.661 128.272 212.055 128.784C212.461 129.296 213.026 129.552 213.751 129.552ZM220.594 122.544V124.128C221.117 122.944 222.007 122.352 223.266 122.352C224.151 122.352 224.818 122.624 225.266 123.168C225.714 123.702 225.938 124.502 225.938 125.568V130.544H224.578V125.648C224.578 124.23 223.991 123.52 222.818 123.52C222.157 123.52 221.634 123.776 221.25 124.288C220.866 124.79 220.674 125.483 220.674 126.368V130.544H219.314V122.544H220.594ZM234.08 130.736C233.259 130.736 232.603 130.523 232.112 130.096C231.621 129.67 231.376 129.099 231.376 128.384C231.376 127.979 231.472 127.616 231.664 127.296C231.856 126.966 232.133 126.699 232.496 126.496C232.805 126.347 233.168 126.219 233.584 126.112C234 126.006 234.533 125.915 235.184 125.84L236.672 125.664V125.536C236.672 124.8 236.533 124.272 236.256 123.952C235.979 123.632 235.531 123.472 234.912 123.472C234.368 123.472 233.936 123.611 233.616 123.888C233.296 124.166 233.12 124.555 233.088 125.056H231.632C231.685 124.235 232.005 123.579 232.592 123.088C233.189 122.598 233.957 122.352 234.896 122.352C235.995 122.352 236.795 122.619 237.296 123.152C237.797 123.675 238.048 124.518 238.048 125.68V127.84C238.048 129.056 238.139 129.958 238.32 130.544H236.896C236.832 130.096 236.789 129.611 236.768 129.088C236.587 129.6 236.256 130.006 235.776 130.304C235.296 130.592 234.731 130.736 234.08 130.736ZM234.384 129.616C235.077 129.616 235.632 129.387 236.048 128.928C236.475 128.459 236.688 127.835 236.688 127.056V126.656L234.512 126.976C233.925 127.062 233.493 127.216 233.216 127.44C232.949 127.654 232.816 127.958 232.816 128.352C232.816 128.747 232.955 129.056 233.232 129.28C233.509 129.504 233.893 129.616 234.384 129.616ZM243.121 130.736C242.172 130.736 241.393 130.523 240.785 130.096C240.188 129.67 239.82 129.062 239.681 128.272L241.057 128.032C241.153 128.534 241.382 128.923 241.745 129.2C242.108 129.478 242.582 129.616 243.169 129.616C243.692 129.616 244.097 129.504 244.385 129.28C244.684 129.046 244.833 128.752 244.833 128.4C244.833 128.059 244.737 127.803 244.545 127.632C244.353 127.462 244.065 127.344 243.681 127.28L242.113 126.992C241.43 126.864 240.902 126.614 240.529 126.24C240.166 125.856 239.985 125.36 239.985 124.752C239.985 124.048 240.257 123.472 240.801 123.024C241.356 122.576 242.097 122.352 243.025 122.352C243.921 122.352 244.652 122.544 245.217 122.928C245.793 123.312 246.118 123.84 246.193 124.512L244.849 124.816C244.753 124.4 244.545 124.07 244.225 123.824C243.905 123.579 243.484 123.456 242.961 123.456C242.449 123.456 242.044 123.563 241.745 123.776C241.457 123.99 241.313 124.294 241.313 124.688C241.313 125.008 241.414 125.259 241.617 125.44C241.83 125.622 242.14 125.75 242.545 125.824L244.097 126.112C244.812 126.251 245.334 126.502 245.665 126.864C246.006 127.216 246.177 127.691 246.177 128.288C246.177 129.024 245.905 129.616 245.361 130.064C244.828 130.512 244.081 130.736 243.121 130.736ZM254.908 130.736C254.172 130.736 253.527 130.566 252.972 130.224C252.418 129.883 251.986 129.398 251.676 128.768C251.378 128.128 251.228 127.387 251.228 126.544C251.228 125.243 251.554 124.219 252.204 123.472C252.866 122.726 253.767 122.352 254.908 122.352C255.847 122.352 256.604 122.608 257.18 123.12C257.756 123.632 258.098 124.347 258.204 125.264L256.812 125.424C256.738 124.816 256.53 124.352 256.188 124.032C255.858 123.702 255.42 123.536 254.876 123.536C254.183 123.536 253.639 123.803 253.244 124.336C252.86 124.859 252.668 125.59 252.668 126.528C252.668 127.488 252.866 128.235 253.26 128.768C253.655 129.291 254.21 129.552 254.924 129.552C255.468 129.552 255.906 129.392 256.236 129.072C256.567 128.752 256.786 128.278 256.892 127.648L258.188 127.856C258.039 128.774 257.676 129.483 257.1 129.984C256.535 130.486 255.804 130.736 254.908 130.736ZM263.058 130.736C262.312 130.736 261.656 130.571 261.09 130.24C260.525 129.899 260.088 129.414 259.778 128.784C259.48 128.155 259.33 127.408 259.33 126.544C259.33 125.68 259.48 124.934 259.778 124.304C260.088 123.675 260.525 123.195 261.09 122.864C261.656 122.523 262.312 122.352 263.058 122.352C263.805 122.352 264.461 122.523 265.026 122.864C265.592 123.195 266.024 123.675 266.322 124.304C266.632 124.934 266.786 125.68 266.786 126.544C266.786 127.408 266.632 128.155 266.322 128.784C266.024 129.414 265.592 129.899 265.026 130.24C264.461 130.571 263.805 130.736 263.058 130.736ZM263.058 129.552C263.784 129.552 264.344 129.296 264.738 128.784C265.144 128.272 265.346 127.526 265.346 126.544C265.346 125.563 265.144 124.816 264.738 124.304C264.344 123.792 263.784 123.536 263.058 123.536C262.333 123.536 261.768 123.792 261.362 124.304C260.968 124.816 260.77 125.563 260.77 126.544C260.77 127.526 260.968 128.272 261.362 128.784C261.768 129.296 262.333 129.552 263.058 129.552ZM269.901 122.544V124.128C270.424 122.944 271.314 122.352 272.573 122.352C273.458 122.352 274.125 122.624 274.573 123.168C275.021 123.702 275.245 124.502 275.245 125.568V130.544H273.885V125.648C273.885 124.23 273.298 123.52 272.125 123.52C271.464 123.52 270.941 123.776 270.557 124.288C270.173 124.79 269.981 125.483 269.981 126.368V130.544H268.621V122.544H269.901ZM277.698 122.544V120.448L279.058 119.872V122.544H281.058V123.664H279.058V128.096C279.058 128.555 279.149 128.891 279.33 129.104C279.522 129.307 279.821 129.408 280.226 129.408C280.461 129.408 280.738 129.371 281.058 129.296V130.544C280.706 130.64 280.312 130.688 279.874 130.688C279.064 130.688 278.498 130.47 278.178 130.032C277.858 129.595 277.698 128.966 277.698 128.144V123.664H276.21V122.544H277.698ZM288.973 126.944H283.293C283.303 127.723 283.522 128.352 283.949 128.832C284.386 129.302 284.962 129.536 285.677 129.536C286.189 129.536 286.626 129.408 286.989 129.152C287.351 128.886 287.623 128.507 287.805 128.016L288.925 128.512C288.647 129.238 288.221 129.792 287.645 130.176C287.079 130.55 286.391 130.736 285.581 130.736C284.429 130.736 283.533 130.384 282.893 129.68C282.253 128.966 281.933 127.952 281.933 126.64C281.933 125.296 282.253 124.246 282.893 123.488C283.533 122.731 284.423 122.352 285.565 122.352C286.653 122.352 287.49 122.662 288.077 123.28C288.674 123.899 288.973 124.8 288.973 125.984V126.944ZM287.597 125.664C287.597 124.939 287.415 124.384 287.053 124C286.701 123.616 286.194 123.424 285.533 123.424C284.839 123.424 284.295 123.638 283.901 124.064C283.517 124.491 283.314 125.083 283.293 125.84H287.597V125.664ZM292.175 122.544V124.128C292.698 122.944 293.589 122.352 294.847 122.352C295.733 122.352 296.399 122.624 296.847 123.168C297.295 123.702 297.519 124.502 297.519 125.568V130.544H296.159V125.648C296.159 124.23 295.573 123.52 294.399 123.52C293.738 123.52 293.215 123.776 292.831 124.288C292.447 124.79 292.255 125.483 292.255 126.368V130.544H290.895V122.544H292.175ZM299.973 122.544V120.448L301.333 119.872V122.544H303.333V123.664H301.333V128.096C301.333 128.555 301.423 128.891 301.605 129.104C301.797 129.307 302.095 129.408 302.501 129.408C302.735 129.408 303.013 129.371 303.333 129.296V130.544C302.981 130.64 302.586 130.688 302.149 130.688C301.338 130.688 300.773 130.47 300.453 130.032C300.133 129.595 299.973 128.966 299.973 128.144V123.664H298.485V122.544H299.973ZM29.5315 154.736C28.7102 154.736 28.0542 154.523 27.5635 154.096C27.0728 153.67 26.8275 153.099 26.8275 152.384C26.8275 151.979 26.9235 151.616 27.1155 151.296C27.3075 150.966 27.5848 150.699 27.9475 150.496C28.2568 150.347 28.6195 150.219 29.0355 150.112C29.4515 150.006 29.9848 149.915 30.6355 149.84L32.1235 149.664V149.536C32.1235 148.8 31.9848 148.272 31.7075 147.952C31.4302 147.632 30.9822 147.472 30.3635 147.472C29.8195 147.472 29.3875 147.611 29.0675 147.888C28.7475 148.166 28.5715 148.555 28.5395 149.056H27.0835C27.1368 148.235 27.4568 147.579 28.0435 147.088C28.6408 146.598 29.4088 146.352 30.3475 146.352C31.4462 146.352 32.2462 146.619 32.7475 147.152C33.2488 147.675 33.4995 148.518 33.4995 149.68V151.84C33.4995 153.056 33.5902 153.958 33.7715 154.544H32.3475C32.2835 154.096 32.2408 153.611 32.2195 153.088C32.0382 153.6 31.7075 154.006 31.2275 154.304C30.7475 154.592 30.1822 154.736 29.5315 154.736ZM29.8355 153.616C30.5288 153.616 31.0835 153.387 31.4995 152.928C31.9262 152.459 32.1395 151.835 32.1395 151.056V150.656L29.9635 150.976C29.3768 151.062 28.9448 151.216 28.6675 151.44C28.4008 151.654 28.2675 151.958 28.2675 152.352C28.2675 152.747 28.4062 153.056 28.6835 153.28C28.9608 153.504 29.3448 153.616 29.8355 153.616ZM38.7344 154.736C37.9984 154.736 37.353 154.566 36.7984 154.224C36.2437 153.883 35.8117 153.398 35.5024 152.768C35.2037 152.128 35.0544 151.387 35.0544 150.544C35.0544 149.243 35.3797 148.219 36.0304 147.472C36.6917 146.726 37.593 146.352 38.7344 146.352C39.673 146.352 40.4304 146.608 41.0064 147.12C41.5824 147.632 41.9237 148.347 42.0304 149.264L40.6384 149.424C40.5637 148.816 40.3557 148.352 40.0144 148.032C39.6837 147.702 39.2464 147.536 38.7024 147.536C38.009 147.536 37.465 147.803 37.0704 148.336C36.6864 148.859 36.4944 149.59 36.4944 150.528C36.4944 151.488 36.6917 152.235 37.0864 152.768C37.481 153.291 38.0357 153.552 38.7504 153.552C39.2944 153.552 39.7317 153.392 40.0624 153.072C40.393 152.752 40.6117 152.278 40.7184 151.648L42.0144 151.856C41.865 152.774 41.5024 153.483 40.9264 153.984C40.361 154.486 39.6304 154.736 38.7344 154.736ZM46.8362 154.736C46.1002 154.736 45.4549 154.566 44.9002 154.224C44.3456 153.883 43.9136 153.398 43.6042 152.768C43.3056 152.128 43.1562 151.387 43.1562 150.544C43.1562 149.243 43.4816 148.219 44.1322 147.472C44.7936 146.726 45.6949 146.352 46.8362 146.352C47.7749 146.352 48.5322 146.608 49.1082 147.12C49.6842 147.632 50.0256 148.347 50.1322 149.264L48.7402 149.424C48.6656 148.816 48.4576 148.352 48.1162 148.032C47.7856 147.702 47.3482 147.536 46.8042 147.536C46.1109 147.536 45.5669 147.803 45.1722 148.336C44.7882 148.859 44.5962 149.59 44.5962 150.528C44.5962 151.488 44.7936 152.235 45.1882 152.768C45.5829 153.291 46.1376 153.552 46.8522 153.552C47.3962 153.552 47.8336 153.392 48.1642 153.072C48.4949 152.752 48.7136 152.278 48.8202 151.648L50.1162 151.856C49.9669 152.774 49.6042 153.483 49.0282 153.984C48.4629 154.486 47.7322 154.736 46.8362 154.736ZM58.2981 150.944H52.6181C52.6288 151.723 52.8475 152.352 53.2741 152.832C53.7115 153.302 54.2875 153.536 55.0021 153.536C55.5141 153.536 55.9515 153.408 56.3141 153.152C56.6768 152.886 56.9488 152.507 57.1301 152.016L58.2501 152.512C57.9728 153.238 57.5461 153.792 56.9701 154.176C56.4048 154.55 55.7168 154.736 54.9061 154.736C53.7541 154.736 52.8581 154.384 52.2181 153.68C51.5781 152.966 51.2581 151.952 51.2581 150.64C51.2581 149.296 51.5781 148.246 52.2181 147.488C52.8581 146.731 53.7488 146.352 54.8901 146.352C55.9781 146.352 56.8155 146.662 57.4021 147.28C57.9995 147.899 58.2981 148.8 58.2981 149.984V150.944ZM56.9221 149.664C56.9221 148.939 56.7408 148.384 56.3781 148C56.0261 147.616 55.5195 147.424 54.8581 147.424C54.1648 147.424 53.6208 147.638 53.2261 148.064C52.8421 148.491 52.6395 149.083 52.6181 149.84H56.9221V149.664ZM62.9406 154.736C61.9913 154.736 61.2126 154.523 60.6046 154.096C60.0073 153.67 59.6393 153.062 59.5006 152.272L60.8766 152.032C60.9726 152.534 61.202 152.923 61.5646 153.2C61.9273 153.478 62.402 153.616 62.9886 153.616C63.5113 153.616 63.9166 153.504 64.2046 153.28C64.5033 153.046 64.6526 152.752 64.6526 152.4C64.6526 152.059 64.5566 151.803 64.3646 151.632C64.1726 151.462 63.8846 151.344 63.5006 151.28L61.9326 150.992C61.25 150.864 60.722 150.614 60.3486 150.24C59.986 149.856 59.8046 149.36 59.8046 148.752C59.8046 148.048 60.0766 147.472 60.6206 147.024C61.1753 146.576 61.9166 146.352 62.8446 146.352C63.7406 146.352 64.4713 146.544 65.0366 146.928C65.6126 147.312 65.938 147.84 66.0126 148.512L64.6686 148.816C64.5726 148.4 64.3646 148.07 64.0446 147.824C63.7246 147.579 63.3033 147.456 62.7806 147.456C62.2686 147.456 61.8633 147.563 61.5646 147.776C61.2766 147.99 61.1326 148.294 61.1326 148.688C61.1326 149.008 61.234 149.259 61.4366 149.44C61.65 149.622 61.9593 149.75 62.3646 149.824L63.9166 150.112C64.6313 150.251 65.154 150.502 65.4846 150.864C65.826 151.216 65.9966 151.691 65.9966 152.288C65.9966 153.024 65.7246 153.616 65.1806 154.064C64.6473 154.512 63.9006 154.736 62.9406 154.736ZM70.4956 154.736C69.5463 154.736 68.7676 154.523 68.1596 154.096C67.5623 153.67 67.1943 153.062 67.0556 152.272L68.4316 152.032C68.5276 152.534 68.757 152.923 69.1196 153.2C69.4823 153.478 69.957 153.616 70.5436 153.616C71.0663 153.616 71.4716 153.504 71.7596 153.28C72.0583 153.046 72.2076 152.752 72.2076 152.4C72.2076 152.059 72.1116 151.803 71.9196 151.632C71.7276 151.462 71.4396 151.344 71.0556 151.28L69.4876 150.992C68.805 150.864 68.277 150.614 67.9036 150.24C67.541 149.856 67.3596 149.36 67.3596 148.752C67.3596 148.048 67.6316 147.472 68.1756 147.024C68.7303 146.576 69.4716 146.352 70.3996 146.352C71.2956 146.352 72.0263 146.544 72.5916 146.928C73.1676 147.312 73.493 147.84 73.5676 148.512L72.2236 148.816C72.1276 148.4 71.9196 148.07 71.5996 147.824C71.2796 147.579 70.8583 147.456 70.3356 147.456C69.8236 147.456 69.4183 147.563 69.1196 147.776C68.8316 147.99 68.6876 148.294 68.6876 148.688C68.6876 149.008 68.789 149.259 68.9916 149.44C69.205 149.622 69.5143 149.75 69.9196 149.824L71.4716 150.112C72.1863 150.251 72.709 150.502 73.0396 150.864C73.381 151.216 73.5516 151.691 73.5516 152.288C73.5516 153.024 73.2796 153.616 72.7356 154.064C72.2023 154.512 71.4556 154.736 70.4956 154.736ZM83.2271 154.736C82.6298 154.736 82.1071 154.598 81.6591 154.32C81.2218 154.032 80.8965 153.648 80.6831 153.168L80.4431 154.544H79.4031V142.944H80.7631V147.936C80.9871 147.467 81.3178 147.088 81.7551 146.8C82.1925 146.502 82.7098 146.352 83.3071 146.352C83.9471 146.352 84.5071 146.534 84.9871 146.896C85.4778 147.248 85.8565 147.744 86.1231 148.384C86.3898 149.014 86.5231 149.734 86.5231 150.544C86.5231 151.366 86.3845 152.096 86.1071 152.736C85.8405 153.366 85.4565 153.856 84.9551 154.208C84.4645 154.56 83.8885 154.736 83.2271 154.736ZM82.8591 153.536C83.5525 153.536 84.0965 153.27 84.4911 152.736C84.8858 152.192 85.0831 151.462 85.0831 150.544C85.0831 149.627 84.8911 148.902 84.5071 148.368C84.1231 147.824 83.5791 147.552 82.8751 147.552C82.2031 147.552 81.6751 147.803 81.2911 148.304C80.9178 148.806 80.7311 149.494 80.7311 150.368V150.784C80.7311 151.627 80.9178 152.299 81.2911 152.8C81.6751 153.291 82.1978 153.536 82.8591 153.536ZM94.6825 150.944H89.0025C89.0132 151.723 89.2318 152.352 89.6585 152.832C90.0958 153.302 90.6718 153.536 91.3865 153.536C91.8985 153.536 92.3358 153.408 92.6985 153.152C93.0612 152.886 93.3332 152.507 93.5145 152.016L94.6345 152.512C94.3572 153.238 93.9305 153.792 93.3545 154.176C92.7892 154.55 92.1012 154.736 91.2905 154.736C90.1385 154.736 89.2425 154.384 88.6025 153.68C87.9625 152.966 87.6425 151.952 87.6425 150.64C87.6425 149.296 87.9625 148.246 88.6025 147.488C89.2425 146.731 90.1332 146.352 91.2745 146.352C92.3625 146.352 93.1998 146.662 93.7865 147.28C94.3838 147.899 94.6825 148.8 94.6825 149.984V150.944ZM93.3065 149.664C93.3065 148.939 93.1252 148.384 92.7625 148C92.4105 147.616 91.9038 147.424 91.2425 147.424C90.5492 147.424 90.0052 147.638 89.6105 148.064C89.2265 148.491 89.0238 149.083 89.0025 149.84H93.3065V149.664ZM102.829 146.416C102.221 146.416 101.821 146.667 101.629 147.168C102.12 147.659 102.365 148.288 102.365 149.056C102.365 149.579 102.242 150.048 101.997 150.464C101.762 150.87 101.421 151.195 100.973 151.44C100.536 151.675 100.013 151.792 99.405 151.792C98.8503 151.792 98.3383 151.68 97.869 151.456C97.6983 151.531 97.5597 151.638 97.453 151.776C97.3463 151.904 97.293 152.059 97.293 152.24C97.293 152.486 97.3943 152.683 97.597 152.832C97.8103 152.982 98.1517 153.056 98.621 153.056H100.573C101.469 153.056 102.146 153.254 102.605 153.648C103.064 154.032 103.293 154.587 103.293 155.312C103.293 156.102 102.968 156.72 102.317 157.168C101.666 157.627 100.669 157.856 99.325 157.856C98.0237 157.856 97.0957 157.654 96.541 157.248C95.997 156.843 95.725 156.315 95.725 155.664C95.725 155.28 95.837 154.939 96.061 154.64C96.285 154.352 96.605 154.139 97.021 154C96.4023 153.723 96.093 153.259 96.093 152.608C96.093 152.224 96.1943 151.894 96.397 151.616C96.5997 151.339 96.877 151.136 97.229 151.008C96.7063 150.507 96.445 149.856 96.445 149.056C96.445 148.267 96.7117 147.622 97.245 147.12C97.7783 146.608 98.4983 146.352 99.405 146.352C99.9703 146.352 100.493 146.464 100.973 146.688C101.101 146.251 101.32 145.899 101.629 145.632C101.949 145.366 102.365 145.232 102.877 145.232C103.069 145.232 103.245 145.254 103.405 145.296V146.48C103.192 146.438 103 146.416 102.829 146.416ZM99.405 150.752C99.9063 150.752 100.312 150.598 100.621 150.288C100.93 149.968 101.085 149.563 101.085 149.072C101.085 148.582 100.93 148.182 100.621 147.872C100.312 147.552 99.9063 147.392 99.405 147.392C98.893 147.392 98.4823 147.547 98.173 147.856C97.8743 148.166 97.725 148.566 97.725 149.056C97.725 149.547 97.8797 149.952 98.189 150.272C98.4983 150.592 98.9037 150.752 99.405 150.752ZM98.573 154.256C98.4023 154.256 98.1783 154.246 97.901 154.224C97.6237 154.352 97.4103 154.523 97.261 154.736C97.1223 154.95 97.053 155.179 97.053 155.424C97.053 155.894 97.261 156.23 97.677 156.432C98.1037 156.635 98.7063 156.736 99.485 156.736C100.392 156.736 101.026 156.614 101.389 156.368C101.752 156.134 101.933 155.814 101.933 155.408C101.933 155.035 101.794 154.747 101.517 154.544C101.24 154.352 100.824 154.256 100.269 154.256H98.573ZM104.848 146.544H106.208V154.544H104.848V146.544ZM104.752 143.344H106.304V145.056H104.752V143.344ZM110.042 146.544V148.128C110.565 146.944 111.455 146.352 112.714 146.352C113.599 146.352 114.266 146.624 114.714 147.168C115.162 147.702 115.386 148.502 115.386 149.568V154.544H114.026V149.648C114.026 148.23 113.439 147.52 112.266 147.52C111.605 147.52 111.082 147.776 110.698 148.288C110.314 148.79 110.122 149.483 110.122 150.368V154.544H108.762V146.544H110.042ZM120.428 154.736C119.478 154.736 118.7 154.523 118.092 154.096C117.494 153.67 117.126 153.062 116.988 152.272L118.364 152.032C118.46 152.534 118.689 152.923 119.052 153.2C119.414 153.478 119.889 153.616 120.476 153.616C120.998 153.616 121.404 153.504 121.692 153.28C121.99 153.046 122.14 152.752 122.14 152.4C122.14 152.059 122.044 151.803 121.852 151.632C121.66 151.462 121.372 151.344 120.988 151.28L119.42 150.992C118.737 150.864 118.209 150.614 117.836 150.24C117.473 149.856 117.292 149.36 117.292 148.752C117.292 148.048 117.564 147.472 118.108 147.024C118.662 146.576 119.404 146.352 120.332 146.352C121.228 146.352 121.958 146.544 122.524 146.928C123.1 147.312 123.425 147.84 123.5 148.512L122.156 148.816C122.06 148.4 121.852 148.07 121.532 147.824C121.212 147.579 120.79 147.456 120.268 147.456C119.756 147.456 119.35 147.563 119.052 147.776C118.764 147.99 118.62 148.294 118.62 148.688C118.62 149.008 118.721 149.259 118.924 149.44C119.137 149.622 119.446 149.75 119.852 149.824L121.404 150.112C122.118 150.251 122.641 150.502 122.972 150.864C123.313 151.216 123.484 151.691 123.484 152.288C123.484 153.024 123.212 153.616 122.668 154.064C122.134 154.512 121.388 154.736 120.428 154.736ZM126.814 154.544H124.942V152.656H126.814V154.544ZM134.328 150.48C134.328 151.408 134.573 152.139 135.064 152.672C135.565 153.206 136.269 153.472 137.176 153.472C138.083 153.472 138.781 153.206 139.272 152.672C139.773 152.139 140.024 151.408 140.024 150.48V143.184H141.544V150.576C141.544 151.419 141.373 152.16 141.032 152.8C140.691 153.44 140.189 153.936 139.528 154.288C138.877 154.64 138.093 154.816 137.176 154.816C136.259 154.816 135.469 154.64 134.808 154.288C134.157 153.936 133.661 153.44 133.32 152.8C132.979 152.16 132.808 151.419 132.808 150.576V143.184H134.328V150.48ZM145.301 146.544V148.032C145.557 147.488 145.909 147.072 146.357 146.784C146.805 146.496 147.323 146.352 147.909 146.352C148.549 146.352 149.115 146.528 149.605 146.88C150.096 147.222 150.475 147.712 150.741 148.352C151.008 148.982 151.141 149.712 151.141 150.544C151.141 151.387 150.997 152.123 150.709 152.752C150.432 153.382 150.043 153.872 149.541 154.224C149.04 154.566 148.469 154.736 147.829 154.736C147.243 154.736 146.736 154.598 146.309 154.32C145.883 154.043 145.573 153.696 145.381 153.28V157.664H144.021V146.544H145.301ZM147.509 153.536C148.192 153.536 148.725 153.275 149.109 152.752C149.504 152.219 149.701 151.483 149.701 150.544C149.701 149.606 149.509 148.875 149.125 148.352C148.752 147.819 148.229 147.552 147.557 147.552C146.885 147.552 146.347 147.803 145.941 148.304C145.547 148.795 145.349 149.472 145.349 150.336V150.72C145.349 151.584 145.541 152.272 145.925 152.784C146.32 153.286 146.848 153.536 147.509 153.536ZM155.51 154.736C154.87 154.736 154.305 154.566 153.814 154.224C153.324 153.872 152.94 153.382 152.662 152.752C152.396 152.112 152.262 151.376 152.262 150.544C152.262 149.734 152.406 149.014 152.694 148.384C152.982 147.744 153.382 147.248 153.894 146.896C154.417 146.534 155.009 146.352 155.67 146.352C156.737 146.352 157.521 146.811 158.022 147.728V142.944H159.382V154.544H158.102V153.056C157.857 153.6 157.516 154.016 157.078 154.304C156.652 154.592 156.129 154.736 155.51 154.736ZM155.878 153.536C156.54 153.536 157.068 153.286 157.462 152.784C157.857 152.272 158.054 151.59 158.054 150.736V150.368C158.054 149.494 157.857 148.806 157.462 148.304C157.078 147.803 156.55 147.552 155.878 147.552C155.196 147.552 154.662 147.819 154.278 148.352C153.894 148.875 153.702 149.606 153.702 150.544C153.702 151.483 153.894 152.219 154.278 152.752C154.662 153.275 155.196 153.536 155.878 153.536ZM164.006 154.736C163.185 154.736 162.529 154.523 162.038 154.096C161.547 153.67 161.302 153.099 161.302 152.384C161.302 151.979 161.398 151.616 161.59 151.296C161.782 150.966 162.059 150.699 162.422 150.496C162.731 150.347 163.094 150.219 163.51 150.112C163.926 150.006 164.459 149.915 165.11 149.84L166.598 149.664V149.536C166.598 148.8 166.459 148.272 166.182 147.952C165.905 147.632 165.457 147.472 164.838 147.472C164.294 147.472 163.862 147.611 163.542 147.888C163.222 148.166 163.046 148.555 163.014 149.056H161.558C161.611 148.235 161.931 147.579 162.518 147.088C163.115 146.598 163.883 146.352 164.822 146.352C165.921 146.352 166.721 146.619 167.222 147.152C167.723 147.675 167.974 148.518 167.974 149.68V151.84C167.974 153.056 168.065 153.958 168.246 154.544H166.822C166.758 154.096 166.715 153.611 166.694 153.088C166.513 153.6 166.182 154.006 165.702 154.304C165.222 154.592 164.657 154.736 164.006 154.736ZM164.31 153.616C165.003 153.616 165.558 153.387 165.974 152.928C166.401 152.459 166.614 151.835 166.614 151.056V150.656L164.438 150.976C163.851 151.062 163.419 151.216 163.142 151.44C162.875 151.654 162.742 151.958 162.742 152.352C162.742 152.747 162.881 153.056 163.158 153.28C163.435 153.504 163.819 153.616 164.31 153.616ZM170.615 146.544V144.448L171.975 143.872V146.544H173.975V147.664H171.975V152.096C171.975 152.555 172.066 152.891 172.247 153.104C172.439 153.307 172.738 153.408 173.143 153.408C173.378 153.408 173.655 153.371 173.975 153.296V154.544C173.623 154.64 173.228 154.688 172.791 154.688C171.98 154.688 171.415 154.47 171.095 154.032C170.775 153.595 170.615 152.966 170.615 152.144V147.664H169.127V146.544H170.615ZM181.889 150.944H176.209C176.22 151.723 176.439 152.352 176.865 152.832C177.303 153.302 177.879 153.536 178.593 153.536C179.105 153.536 179.543 153.408 179.905 153.152C180.268 152.886 180.54 152.507 180.721 152.016L181.841 152.512C181.564 153.238 181.137 153.792 180.561 154.176C179.996 154.55 179.308 154.736 178.497 154.736C177.345 154.736 176.449 154.384 175.809 153.68C175.169 152.966 174.849 151.952 174.849 150.64C174.849 149.296 175.169 148.246 175.809 147.488C176.449 146.731 177.34 146.352 178.481 146.352C179.569 146.352 180.407 146.662 180.993 147.28C181.591 147.899 181.889 148.8 181.889 149.984V150.944ZM180.513 149.664C180.513 148.939 180.332 148.384 179.969 148C179.617 147.616 179.111 147.424 178.449 147.424C177.756 147.424 177.212 147.638 176.817 148.064C176.433 148.491 176.231 149.083 176.209 149.84H180.513V149.664ZM186.532 154.736C185.583 154.736 184.804 154.523 184.196 154.096C183.599 153.67 183.231 153.062 183.092 152.272L184.468 152.032C184.564 152.534 184.793 152.923 185.156 153.2C185.519 153.478 185.993 153.616 186.58 153.616C187.103 153.616 187.508 153.504 187.796 153.28C188.095 153.046 188.244 152.752 188.244 152.4C188.244 152.059 188.148 151.803 187.956 151.632C187.764 151.462 187.476 151.344 187.092 151.28L185.524 150.992C184.841 150.864 184.313 150.614 183.94 150.24C183.577 149.856 183.396 149.36 183.396 148.752C183.396 148.048 183.668 147.472 184.212 147.024C184.767 146.576 185.508 146.352 186.436 146.352C187.332 146.352 188.063 146.544 188.628 146.928C189.204 147.312 189.529 147.84 189.604 148.512L188.26 148.816C188.164 148.4 187.956 148.07 187.636 147.824C187.316 147.579 186.895 147.456 186.372 147.456C185.86 147.456 185.455 147.563 185.156 147.776C184.868 147.99 184.724 148.294 184.724 148.688C184.724 149.008 184.825 149.259 185.028 149.44C185.241 149.622 185.551 149.75 185.956 149.824L187.508 150.112C188.223 150.251 188.745 150.502 189.076 150.864C189.417 151.216 189.588 151.691 189.588 152.288C189.588 153.024 189.316 153.616 188.772 154.064C188.239 154.512 187.492 154.736 186.532 154.736ZM197.343 154.736C196.522 154.736 195.866 154.523 195.375 154.096C194.885 153.67 194.639 153.099 194.639 152.384C194.639 151.979 194.735 151.616 194.927 151.296C195.119 150.966 195.397 150.699 195.759 150.496C196.069 150.347 196.431 150.219 196.847 150.112C197.263 150.006 197.797 149.915 198.447 149.84L199.935 149.664V149.536C199.935 148.8 199.797 148.272 199.519 147.952C199.242 147.632 198.794 147.472 198.175 147.472C197.631 147.472 197.199 147.611 196.879 147.888C196.559 148.166 196.383 148.555 196.351 149.056H194.895C194.949 148.235 195.269 147.579 195.855 147.088C196.453 146.598 197.221 146.352 198.159 146.352C199.258 146.352 200.058 146.619 200.559 147.152C201.061 147.675 201.311 148.518 201.311 149.68V151.84C201.311 153.056 201.402 153.958 201.583 154.544H200.159C200.095 154.096 200.053 153.611 200.031 153.088C199.85 153.6 199.519 154.006 199.039 154.304C198.559 154.592 197.994 154.736 197.343 154.736ZM197.647 153.616C198.341 153.616 198.895 153.387 199.311 152.928C199.738 152.459 199.951 151.835 199.951 151.056V150.656L197.775 150.976C197.189 151.062 196.757 151.216 196.479 151.44C196.213 151.654 196.079 151.958 196.079 152.352C196.079 152.747 196.218 153.056 196.495 153.28C196.773 153.504 197.157 153.616 197.647 153.616ZM204.928 148.368C205.131 147.771 205.44 147.286 205.856 146.912C206.283 146.539 206.784 146.352 207.36 146.352C207.488 146.352 207.584 146.358 207.648 146.368V147.696H207.584C206.827 147.696 206.24 147.904 205.824 148.32C205.483 148.662 205.264 149.056 205.168 149.504C205.072 149.952 205.024 150.491 205.024 151.12V154.544H203.664V146.544H204.928V148.368ZM215.336 150.944H209.656C209.667 151.723 209.886 152.352 210.312 152.832C210.75 153.302 211.326 153.536 212.04 153.536C212.552 153.536 212.99 153.408 213.352 153.152C213.715 152.886 213.987 152.507 214.168 152.016L215.288 152.512C215.011 153.238 214.584 153.792 214.008 154.176C213.443 154.55 212.755 154.736 211.944 154.736C210.792 154.736 209.896 154.384 209.256 153.68C208.616 152.966 208.296 151.952 208.296 150.64C208.296 149.296 208.616 148.246 209.256 147.488C209.896 146.731 210.787 146.352 211.928 146.352C213.016 146.352 213.854 146.662 214.44 147.28C215.038 147.899 215.336 148.8 215.336 149.984V150.944ZM213.96 149.664C213.96 148.939 213.779 148.384 213.416 148C213.064 147.616 212.558 147.424 211.896 147.424C211.203 147.424 210.659 147.638 210.264 148.064C209.88 148.491 209.678 149.083 209.656 149.84H213.96V149.664ZM223.079 154.736C222.258 154.736 221.602 154.523 221.111 154.096C220.62 153.67 220.375 153.099 220.375 152.384C220.375 151.979 220.471 151.616 220.663 151.296C220.855 150.966 221.132 150.699 221.495 150.496C221.804 150.347 222.167 150.219 222.583 150.112C222.999 150.006 223.532 149.915 224.183 149.84L225.671 149.664V149.536C225.671 148.8 225.532 148.272 225.255 147.952C224.978 147.632 224.53 147.472 223.911 147.472C223.367 147.472 222.935 147.611 222.615 147.888C222.295 148.166 222.119 148.555 222.087 149.056H220.631C220.684 148.235 221.004 147.579 221.591 147.088C222.188 146.598 222.956 146.352 223.895 146.352C224.994 146.352 225.794 146.619 226.295 147.152C226.796 147.675 227.047 148.518 227.047 149.68V151.84C227.047 153.056 227.138 153.958 227.319 154.544H225.895C225.831 154.096 225.788 153.611 225.767 153.088C225.586 153.6 225.255 154.006 224.775 154.304C224.295 154.592 223.73 154.736 223.079 154.736ZM223.383 153.616C224.076 153.616 224.631 153.387 225.047 152.928C225.474 152.459 225.687 151.835 225.687 151.056V150.656L223.511 150.976C222.924 151.062 222.492 151.216 222.215 151.44C221.948 151.654 221.815 151.958 221.815 152.352C221.815 152.747 221.954 153.056 222.231 153.28C222.508 153.504 222.892 153.616 223.383 153.616ZM231.896 154.736C230.936 154.736 230.237 154.47 229.8 153.936C229.373 153.403 229.16 152.64 229.16 151.648V146.544H230.52V151.488C230.52 152.16 230.659 152.678 230.936 153.04C231.224 153.392 231.629 153.568 232.152 153.568C232.792 153.568 233.309 153.318 233.704 152.816C234.099 152.315 234.296 151.659 234.296 150.848V146.544H235.656V154.544H234.376V153.04C234.195 153.531 233.875 153.936 233.416 154.256C232.957 154.576 232.451 154.736 231.896 154.736ZM238.509 146.544V144.448L239.869 143.872V146.544H241.869V147.664H239.869V152.096C239.869 152.555 239.959 152.891 240.141 153.104C240.333 153.307 240.631 153.408 241.037 153.408C241.271 153.408 241.549 153.371 241.869 153.296V154.544C241.517 154.64 241.122 154.688 240.685 154.688C239.874 154.688 239.309 154.47 238.989 154.032C238.669 153.595 238.509 152.966 238.509 152.144V147.664H237.021V146.544H238.509ZM246.471 154.736C245.724 154.736 245.068 154.571 244.503 154.24C243.938 153.899 243.5 153.414 243.191 152.784C242.892 152.155 242.743 151.408 242.743 150.544C242.743 149.68 242.892 148.934 243.191 148.304C243.5 147.675 243.938 147.195 244.503 146.864C245.068 146.523 245.724 146.352 246.471 146.352C247.218 146.352 247.874 146.523 248.439 146.864C249.004 147.195 249.436 147.675 249.735 148.304C250.044 148.934 250.199 149.68 250.199 150.544C250.199 151.408 250.044 152.155 249.735 152.784C249.436 153.414 249.004 153.899 248.439 154.24C247.874 154.571 247.218 154.736 246.471 154.736ZM246.471 153.552C247.196 153.552 247.756 153.296 248.151 152.784C248.556 152.272 248.759 151.526 248.759 150.544C248.759 149.563 248.556 148.816 248.151 148.304C247.756 147.792 247.196 147.536 246.471 147.536C245.746 147.536 245.18 147.792 244.775 148.304C244.38 148.816 244.183 149.563 244.183 150.544C244.183 151.526 244.38 152.272 244.775 152.784C245.18 153.296 245.746 153.552 246.471 153.552ZM253.314 147.936C253.762 146.88 254.524 146.352 255.602 146.352C256.156 146.352 256.626 146.491 257.01 146.768C257.404 147.035 257.692 147.43 257.874 147.952C258.396 146.886 259.207 146.352 260.306 146.352C261.074 146.352 261.671 146.614 262.098 147.136C262.524 147.648 262.738 148.368 262.738 149.296V154.544H261.378V149.408C261.378 148.15 260.871 147.52 259.858 147.52C259.292 147.52 258.85 147.723 258.53 148.128C258.22 148.523 258.066 149.083 258.066 149.808V154.544H256.706V149.344C256.706 148.758 256.572 148.31 256.306 148C256.05 147.68 255.682 147.52 255.202 147.52C254.647 147.52 254.204 147.734 253.874 148.16C253.554 148.576 253.394 149.147 253.394 149.872V154.544H252.034V146.544H253.314V147.936ZM267.041 154.736C266.22 154.736 265.564 154.523 265.073 154.096C264.583 153.67 264.337 153.099 264.337 152.384C264.337 151.979 264.433 151.616 264.625 151.296C264.817 150.966 265.095 150.699 265.457 150.496C265.767 150.347 266.129 150.219 266.545 150.112C266.961 150.006 267.495 149.915 268.145 149.84L269.633 149.664V149.536C269.633 148.8 269.495 148.272 269.217 147.952C268.94 147.632 268.492 147.472 267.873 147.472C267.329 147.472 266.897 147.611 266.577 147.888C266.257 148.166 266.081 148.555 266.049 149.056H264.593C264.647 148.235 264.967 147.579 265.553 147.088C266.151 146.598 266.919 146.352 267.857 146.352C268.956 146.352 269.756 146.619 270.257 147.152C270.759 147.675 271.009 148.518 271.009 149.68V151.84C271.009 153.056 271.1 153.958 271.281 154.544H269.857C269.793 154.096 269.751 153.611 269.729 153.088C269.548 153.6 269.217 154.006 268.737 154.304C268.257 154.592 267.692 154.736 267.041 154.736ZM267.345 153.616C268.039 153.616 268.593 153.387 269.009 152.928C269.436 152.459 269.649 151.835 269.649 151.056V150.656L267.473 150.976C266.887 151.062 266.455 151.216 266.177 151.44C265.911 151.654 265.777 151.958 265.777 152.352C265.777 152.747 265.916 153.056 266.193 153.28C266.471 153.504 266.855 153.616 267.345 153.616ZM273.65 146.544V144.448L275.01 143.872V146.544H277.01V147.664H275.01V152.096C275.01 152.555 275.101 152.891 275.282 153.104C275.474 153.307 275.773 153.408 276.178 153.408C276.413 153.408 276.69 153.371 277.01 153.296V154.544C276.658 154.64 276.264 154.688 275.826 154.688C275.016 154.688 274.45 154.47 274.13 154.032C273.81 153.595 273.65 152.966 273.65 152.144V147.664H272.162V146.544H273.65ZM278.683 146.544H280.043V154.544H278.683V146.544ZM278.587 143.344H280.139V145.056H278.587V143.344ZM285.558 154.736C284.822 154.736 284.176 154.566 283.622 154.224C283.067 153.883 282.635 153.398 282.326 152.768C282.027 152.128 281.878 151.387 281.878 150.544C281.878 149.243 282.203 148.219 282.854 147.472C283.515 146.726 284.416 146.352 285.558 146.352C286.496 146.352 287.254 146.608 287.83 147.12C288.406 147.632 288.747 148.347 288.854 149.264L287.462 149.424C287.387 148.816 287.179 148.352 286.838 148.032C286.507 147.702 286.07 147.536 285.526 147.536C284.832 147.536 284.288 147.803 283.894 148.336C283.51 148.859 283.318 149.59 283.318 150.528C283.318 151.488 283.515 152.235 283.91 152.768C284.304 153.291 284.859 153.552 285.574 153.552C286.118 153.552 286.555 153.392 286.886 153.072C287.216 152.752 287.435 152.278 287.542 151.648L288.838 151.856C288.688 152.774 288.326 153.483 287.75 153.984C287.184 154.486 286.454 154.736 285.558 154.736ZM292.095 154.544H290.223V152.656H292.095V154.544Z" fill="black"/>
<path d="M121.6 175.184H123.12V185.264H128.368V186.544H121.6V175.184ZM136.128 182.944H130.448C130.458 183.723 130.677 184.352 131.104 184.832C131.541 185.302 132.117 185.536 132.832 185.536C133.344 185.536 133.781 185.408 134.144 185.152C134.506 184.886 134.778 184.507 134.96 184.016L136.08 184.512C135.802 185.238 135.376 185.792 134.8 186.176C134.234 186.55 133.546 186.736 132.736 186.736C131.584 186.736 130.688 186.384 130.048 185.68C129.408 184.966 129.088 183.952 129.088 182.64C129.088 181.296 129.408 180.246 130.048 179.488C130.688 178.731 131.578 178.352 132.72 178.352C133.808 178.352 134.645 178.662 135.232 179.28C135.829 179.899 136.128 180.8 136.128 181.984V182.944ZM134.752 181.664C134.752 180.939 134.57 180.384 134.208 180C133.856 179.616 133.349 179.424 132.688 179.424C131.994 179.424 131.45 179.638 131.056 180.064C130.672 180.491 130.469 181.083 130.448 181.84H134.752V181.664ZM140.034 186.736C139.213 186.736 138.557 186.523 138.066 186.096C137.575 185.67 137.33 185.099 137.33 184.384C137.33 183.979 137.426 183.616 137.618 183.296C137.81 182.966 138.087 182.699 138.45 182.496C138.759 182.347 139.122 182.219 139.538 182.112C139.954 182.006 140.487 181.915 141.138 181.84L142.626 181.664V181.536C142.626 180.8 142.487 180.272 142.21 179.952C141.933 179.632 141.485 179.472 140.866 179.472C140.322 179.472 139.89 179.611 139.57 179.888C139.25 180.166 139.074 180.555 139.042 181.056H137.586C137.639 180.235 137.959 179.579 138.546 179.088C139.143 178.598 139.911 178.352 140.85 178.352C141.949 178.352 142.749 178.619 143.25 179.152C143.751 179.675 144.002 180.518 144.002 181.68V183.84C144.002 185.056 144.093 185.958 144.274 186.544H142.85C142.786 186.096 142.743 185.611 142.722 185.088C142.541 185.6 142.21 186.006 141.73 186.304C141.25 186.592 140.685 186.736 140.034 186.736ZM140.338 185.616C141.031 185.616 141.586 185.387 142.002 184.928C142.429 184.459 142.642 183.835 142.642 183.056V182.656L140.466 182.976C139.879 183.062 139.447 183.216 139.17 183.44C138.903 183.654 138.77 183.958 138.77 184.352C138.77 184.747 138.909 185.056 139.186 185.28C139.463 185.504 139.847 185.616 140.338 185.616ZM147.619 180.368C147.822 179.771 148.131 179.286 148.547 178.912C148.974 178.539 149.475 178.352 150.051 178.352C150.179 178.352 150.275 178.358 150.339 178.368V179.696H150.275C149.518 179.696 148.931 179.904 148.515 180.32C148.174 180.662 147.955 181.056 147.859 181.504C147.763 181.952 147.715 182.491 147.715 183.12V186.544H146.355V178.544H147.619V180.368ZM153.065 178.544V180.128C153.588 178.944 154.478 178.352 155.737 178.352C156.622 178.352 157.289 178.624 157.737 179.168C158.185 179.702 158.409 180.502 158.409 181.568V186.544H157.049V181.648C157.049 180.23 156.462 179.52 155.289 179.52C154.628 179.52 154.105 179.776 153.721 180.288C153.337 180.79 153.145 181.483 153.145 182.368V186.544H151.785V178.544H153.065ZM165.847 179.936C166.295 178.88 167.058 178.352 168.135 178.352C168.69 178.352 169.159 178.491 169.543 178.768C169.938 179.035 170.226 179.43 170.407 179.952C170.93 178.886 171.74 178.352 172.839 178.352C173.607 178.352 174.204 178.614 174.631 179.136C175.058 179.648 175.271 180.368 175.271 181.296V186.544H173.911V181.408C173.911 180.15 173.404 179.52 172.391 179.52C171.826 179.52 171.383 179.723 171.063 180.128C170.754 180.523 170.599 181.083 170.599 181.808V186.544H169.239V181.344C169.239 180.758 169.106 180.31 168.839 180C168.583 179.68 168.215 179.52 167.735 179.52C167.18 179.52 166.738 179.734 166.407 180.16C166.087 180.576 165.927 181.147 165.927 181.872V186.544H164.567V178.544H165.847V179.936ZM180.599 186.736C179.852 186.736 179.196 186.571 178.631 186.24C178.065 185.899 177.628 185.414 177.319 184.784C177.02 184.155 176.871 183.408 176.871 182.544C176.871 181.68 177.02 180.934 177.319 180.304C177.628 179.675 178.065 179.195 178.631 178.864C179.196 178.523 179.852 178.352 180.599 178.352C181.345 178.352 182.001 178.523 182.567 178.864C183.132 179.195 183.564 179.675 183.863 180.304C184.172 180.934 184.327 181.68 184.327 182.544C184.327 183.408 184.172 184.155 183.863 184.784C183.564 185.414 183.132 185.899 182.567 186.24C182.001 186.571 181.345 186.736 180.599 186.736ZM180.599 185.552C181.324 185.552 181.884 185.296 182.279 184.784C182.684 184.272 182.887 183.526 182.887 182.544C182.887 181.563 182.684 180.816 182.279 180.304C181.884 179.792 181.324 179.536 180.599 179.536C179.873 179.536 179.308 179.792 178.903 180.304C178.508 180.816 178.311 181.563 178.311 182.544C178.311 183.526 178.508 184.272 178.903 184.784C179.308 185.296 179.873 185.552 180.599 185.552ZM187.425 180.368C187.628 179.771 187.937 179.286 188.353 178.912C188.78 178.539 189.281 178.352 189.857 178.352C189.985 178.352 190.081 178.358 190.145 178.368V179.696H190.081C189.324 179.696 188.737 179.904 188.321 180.32C187.98 180.662 187.761 181.056 187.665 181.504C187.569 181.952 187.521 182.491 187.521 183.12V186.544H186.161V178.544H187.425V180.368ZM197.833 182.944H192.153C192.164 183.723 192.382 184.352 192.809 184.832C193.246 185.302 193.822 185.536 194.537 185.536C195.049 185.536 195.486 185.408 195.849 185.152C196.212 184.886 196.484 184.507 196.665 184.016L197.785 184.512C197.508 185.238 197.081 185.792 196.505 186.176C195.94 186.55 195.252 186.736 194.441 186.736C193.289 186.736 192.393 186.384 191.753 185.68C191.113 184.966 190.793 183.952 190.793 182.64C190.793 181.296 191.113 180.246 191.753 179.488C192.393 178.731 193.284 178.352 194.425 178.352C195.513 178.352 196.35 178.662 196.937 179.28C197.534 179.899 197.833 180.8 197.833 181.984V182.944ZM196.457 181.664C196.457 180.939 196.276 180.384 195.913 180C195.561 179.616 195.054 179.424 194.393 179.424C193.7 179.424 193.156 179.638 192.761 180.064C192.377 180.491 192.174 181.083 192.153 181.84H196.457V181.664Z" fill="black"/>
<path d="M120 188.144H198.633V188.944H120V188.144Z" fill="black"/>
<defs>
<clipPath id="clip0_3520_50505">
<rect width="41.2685" height="40.5445" fill="white" transform="translate(137.828 48)"/>
</clipPath>
</defs>
</svg>
